<svg id="Layer_3" xmlns="http://www.w3.org/2000/svg" width="1944.639" height="566.502" viewBox="0 0 1944.639 566.502">
  <g id="clientCentreCloud">
    <path fill="#E5E5E5" d="M1776.237 156.487c-58.094 0-109.316 29.417-139.586 74.168-5.905-.627-11.9-.956-17.972-.956-44.691 0-85.312 17.416-115.459 45.823-13.936-19.395-36.673-32.039-62.377-32.039-34.966 0-64.452 23.384-73.727 55.359-23.028-63.298-82.938-108.882-153.742-110.762-5.879-23.123-16.538-44.336-30.869-62.523 6.056-11.794 9.495-25.152 9.495-39.322C1192 38.609 1153.391 0 1105.765 0c-13.023 0-25.364 2.904-36.434 8.073-8.182-4.201-17.448-6.588-27.278-6.588-19.864 0-37.456 9.691-48.334 24.595-19.379-7.778-40.535-12.067-62.694-12.067-16.319 0-32.092 2.33-47.015 6.66-10.881-11.315-26.163-18.366-43.1-18.366-27.978 0-51.463 19.212-57.998 45.162-6.467-1.758-13.264-2.714-20.288-2.714-39.049 0-71.305 29.009-76.442 66.647-1.614 1-3.21 2.024-4.787 3.077-11.284-6.663-24.258-10.468-38.068-10.468-24.995 0-47.252 12.438-61.677 31.814-3.361-.467-6.781-.733-10.262-.733-27.916 0-52.421 15.513-66.404 38.885-23.393-23.074-55.515-37.32-90.968-37.32-13.725 0-26.949 2.142-39.363 6.097-16.2-19.526-40.647-31.963-68-31.963-13.59 0-26.462 3.073-37.963 8.557-28.016-20.802-62.712-33.112-100.287-33.112C75.396 86.235 0 161.631 0 254.637c0 37.274 12.119 71.714 32.62 99.612 15.187 60.864 70.214 105.958 135.781 105.958 14.544 0 28.57-2.22 41.758-6.338 28.427 52.796 84.204 88.685 148.368 88.685 49.021 0 93.143-20.952 123.918-54.382 30.775 33.43 74.897 54.382 123.918 54.382 47.583 0 90.551-19.741 121.177-51.473 23.227 17.651 52.197 28.136 83.621 28.136 30.021 0 57.804-9.566 80.478-25.812 25.289 27.566 61.604 44.852 101.961 44.852 43.715 0 82.687-20.283 108.038-51.943 29.119 24.055 66.462 38.507 107.181 38.507 34.768 0 67.072-10.539 93.899-28.593 20.915 24.954 52.311 40.825 87.417 40.825 36.409 0 68.833-17.066 89.708-43.637 30.36 44.139 81.215 73.086 138.836 73.086 58.094 0 109.316-29.417 139.586-74.167 5.906.626 11.9.955 17.972.955 93.006 0 168.401-75.396 168.401-168.401s-75.395-168.402-168.401-168.402z"/>
    <g fill="#C4C4C4">
      <path d="M668.87 234.82c-7.071 27.325-34.956 43.745-62.282 36.675-14.153-3.663-25.379-12.911-31.932-24.771 3.927 18.315 17.813 33.788 37.184 38.8 27.325 7.07 55.209-9.348 62.28-36.674 3.409-13.172 1.357-26.473-4.741-37.511 1.613 7.523 1.549 15.525-.509 23.481z"/>
      <path d="M584.926 281.798c.65 29.376-22.638 53.718-52.015 54.368-15.216.336-29.08-5.751-39.001-15.778 9.118 17.238 27.409 28.808 48.233 28.346 29.376-.649 52.665-24.99 52.014-54.367-.313-14.16-6.133-26.904-15.367-36.236 3.745 7.079 5.947 15.114 6.136 23.667z"/>
    </g>
    <g fill="#C4C4C4">
      <path d="M825.697 28.884c13.477-6.019 29.281.028 35.299 13.505 3.117 6.98 2.996 14.585.283 21.13 6.208-7.576 8.006-18.298 3.74-27.851-6.017-13.477-21.821-19.524-35.298-13.506-6.496 2.901-11.265 8.076-13.789 14.168 2.549-3.112 5.841-5.694 9.765-7.446z"/>
      <path d="M877.262 48.536c21.739-9.707 47.231.047 56.938 21.785 5.027 11.26 4.833 23.527.457 34.085 10.014-12.222 12.914-29.517 6.033-44.926-9.707-21.738-35.199-31.492-56.938-21.784-10.479 4.679-18.171 13.025-22.243 22.853 4.114-5.021 9.424-9.187 15.753-12.013z"/>
    </g>
    <g fill="#C4C4C4">
      <path d="M355.42 158.651c13.477-6.019 29.281.028 35.299 13.505 3.117 6.98 2.996 14.585.283 21.13 6.208-7.576 8.006-18.298 3.74-27.851-6.017-13.477-21.821-19.524-35.298-13.506-6.496 2.901-11.265 8.076-13.789 14.168 2.55-3.112 5.842-5.694 9.765-7.446z"/>
      <path d="M406.985 178.304c21.739-9.707 47.231.047 56.938 21.785 5.027 11.26 4.833 23.527.457 34.085 10.014-12.222 12.914-29.517 6.033-44.926-9.707-21.738-35.199-31.492-56.938-21.784-10.479 4.679-18.171 13.025-22.243 22.853 4.114-5.021 9.424-9.187 15.753-12.013z"/>
    </g>
    <g fill="#C4C4C4">
      <path d="M1458.123 276.577c13.477-6.019 29.28.028 35.299 13.505 3.116 6.98 2.995 14.585.283 21.13 6.207-7.576 8.006-18.298 3.739-27.851-6.017-13.477-21.821-19.524-35.298-13.506-6.496 2.901-11.265 8.076-13.789 14.168 2.549-3.112 5.842-5.694 9.766-7.446z"/>
      <path d="M1509.688 296.229c21.738-9.707 47.23.047 56.938 21.785 5.027 11.26 4.833 23.527.457 34.085 10.015-12.222 12.914-29.517 6.032-44.926-9.706-21.738-35.198-31.492-56.938-21.784-10.479 4.679-18.17 13.025-22.242 22.853 4.113-5.02 9.423-9.186 15.753-12.013z"/>
    </g>
    <g fill="#C4C4C4">
      <path d="M1080.271 64.575c-13.477-6.019-29.281.028-35.299 13.505-3.117 6.98-2.996 14.585-.283 21.13-6.207-7.576-8.006-18.298-3.74-27.851 6.018-13.477 21.822-19.524 35.299-13.506 6.496 2.901 11.264 8.076 13.789 14.168-2.549-3.112-5.842-5.694-9.766-7.446z"/>
      <path d="M1028.707 84.228c-21.738-9.707-47.23.047-56.939 21.785-5.027 11.26-4.832 23.527-.457 34.085-10.013-12.222-12.914-29.517-6.032-44.926 9.706-21.738 35.198-31.492 56.938-21.784 10.479 4.679 18.17 13.025 22.242 22.853-4.113-5.021-9.424-9.187-15.752-12.013z"/>
    </g>
    <path fill="#C4C4C4" d="M1090.578 92.462c23.463-10.477 50.976.05 61.453 23.512 5.426 12.153 5.215 25.393.493 36.787 10.808-13.19 13.938-31.855 6.511-48.487-10.476-23.462-37.988-33.989-61.451-23.512-11.311 5.05-19.612 14.06-24.007 24.665 4.439-5.418 10.171-9.915 17.001-12.965zM1083.435 15.489c19.438-8.68 42.23.041 50.91 19.478 4.495 10.068 4.32 21.036.409 30.476 8.953-10.928 11.546-26.391 5.394-40.168-8.679-19.438-31.472-28.158-50.909-19.479-9.369 4.184-16.247 11.647-19.888 20.434 3.676-4.489 8.425-8.214 14.084-10.741zM562.772 153.842c19.438-8.68 42.23.041 50.91 19.478 4.495 10.068 4.32 21.036.409 30.476 8.953-10.928 11.546-26.391 5.394-40.168-8.679-19.438-31.472-28.158-50.909-19.479-9.369 4.184-16.247 11.647-19.888 20.434 3.677-4.489 8.426-8.215 14.084-10.741zM1740.311 279.165c19.438-8.68 42.23.041 50.91 19.478 4.495 10.068 4.32 21.036.409 30.476 8.953-10.928 11.546-26.391 5.394-40.168-8.679-19.438-31.472-28.158-50.909-19.479-9.369 4.184-16.247 11.647-19.888 20.434 3.676-4.489 8.425-8.215 14.084-10.741zM941.995 48.917c10.538-13.556 30.07-16 43.626-5.462 7.021 5.459 11.059 13.331 11.858 21.535 2.225-11.177-1.8-23.166-11.408-30.637-13.555-10.538-33.086-8.093-43.625 5.463-5.08 6.533-7.142 14.455-6.398 22.091.914-4.591 2.879-9.044 5.947-12.99zM501.935 201.459c10.538-13.556 30.07-16 43.626-5.462 7.021 5.459 11.059 13.331 11.858 21.535 2.225-11.177-1.8-23.166-11.408-30.637-13.555-10.538-33.086-8.093-43.625 5.463-5.08 6.533-7.142 14.455-6.398 22.091.913-4.591 2.878-9.044 5.947-12.99zM1007.223 37.971c3.56-10.368 14.849-15.886 25.217-12.327 5.369 1.845 9.438 5.763 11.618 10.552-.97-7.21-5.882-13.618-13.23-16.142-10.366-3.559-21.656 1.959-25.215 12.326-1.717 4.998-1.322 10.209.707 14.666-.399-2.962-.133-6.057.903-9.075zM1219.52 355.356c-31.989 9.575-64.346-4.122-72.271-30.593-4.103-13.711-.845-28.159 7.692-40.234-16.626 13.552-24.797 33.695-19.18 52.46 7.923 26.47 40.278 40.168 72.27 30.592 15.419-4.615 27.938-13.797 35.883-25.034-6.829 5.565-15.082 10.022-24.394 12.809zM1381.305 384.971c-22.692 24.345-60.823 25.685-85.169 2.993-12.609-11.755-19.044-27.652-19.168-43.628-6.228 21.191-.534 45.035 16.723 61.12 24.344 22.691 62.476 21.354 85.169-2.992 10.938-11.734 16.291-26.673 16.176-41.543-2.558 8.705-7.124 16.963-13.731 24.05zM1520.926 397.138c-5.302 30.016-33.932 50.05-63.947 44.749-15.547-2.747-28.414-11.754-36.472-23.968 5.776 19.387 22.034 34.869 43.312 38.627 30.014 5.302 58.645-14.732 63.947-44.749 2.555-14.469-.778-28.612-8.276-39.981 2.371 7.962 2.98 16.582 1.436 25.322zM1662.592 455.805c-6.262 35.447-40.073 59.107-75.521 52.848-18.36-3.244-33.557-13.881-43.072-28.305 6.822 22.895 26.022 41.179 51.15 45.616 35.445 6.262 69.258-17.397 75.52-52.847 3.018-17.087-.919-33.791-9.774-47.217 2.801 9.405 3.52 19.584 1.697 29.905zM1676.224 301.466c8.581 39.413-16.412 78.322-55.826 86.904-20.413 4.444-40.692-.121-56.691-11.029 16.809 20.836 44.491 31.627 72.429 25.544 39.412-8.582 64.406-47.489 55.825-86.905-4.137-18.998-15.322-34.643-30.212-44.795 6.902 8.558 11.977 18.806 14.475 30.281zM1796.715 364.396c-8.783 30.672-40.768 48.415-71.439 39.631-15.886-4.549-28.302-15.324-35.362-28.916 3.906 20.811 19.148 38.696 40.89 44.922 30.669 8.783 62.654-8.96 71.438-39.631 4.234-14.785 2.303-29.873-4.269-42.521 1.603 8.546 1.298 17.586-1.258 26.515zM1687.313 191.421c25.029-18.309 60.162-12.859 78.472 12.169 9.482 12.965 12.589 28.64 9.904 43.283 9.41-18.305 8.373-41.122-4.605-58.864-18.307-25.029-53.439-30.479-78.47-12.17-12.065 8.825-19.578 21.561-22.076 35.188 3.865-7.518 9.488-14.277 16.775-19.606zM1534.093 253.399c29.245-11.553 62.317 2.788 73.873 32.032 5.983 15.147 5.019 31.322-1.365 45.001 13.919-15.549 18.744-38.201 10.554-58.931-11.552-29.244-44.626-43.587-73.87-32.032-14.098 5.568-24.729 16.14-30.67 28.871 5.717-6.386 12.964-11.577 21.478-14.941zM1869.324 263.982c26.292 14.346 35.976 47.29 21.631 73.583-7.432 13.619-19.854 22.779-33.754 26.454 19.866.697 39.381-9.592 49.55-28.229 14.347-26.292 4.663-59.236-21.631-73.583-12.674-6.916-26.892-8.245-39.83-4.825 8.16.287 16.38 2.423 24.034 6.6zM1079.451 452.954c-27.232 23.54-68.392 20.547-91.932-6.686-12.192-14.105-17.264-31.948-15.538-49.143-9.162 22.064-5.813 48.365 10.875 67.668 23.538 27.232 64.697 30.227 91.931 6.686 13.127-11.346 20.619-26.787 22.226-42.789-3.764 9.062-9.633 17.412-17.562 24.264zM1247.613 457.234c-25.027 21.634-62.854 18.884-84.488-6.145-11.205-12.963-15.866-29.361-14.28-45.163-8.42 20.277-5.342 44.449 9.995 62.189 21.632 25.027 59.459 27.779 84.487 6.144 12.063-10.427 18.949-24.618 20.426-39.324-3.459 8.328-8.853 16.002-16.14 22.299zM800.12 354.634c3.957 35.778-21.84 67.989-57.618 71.946-18.532 2.049-36.105-3.887-49.292-15.055 12.983 20.055 36.549 32.203 61.911 29.398 35.776-3.956 61.574-36.167 57.617-71.946-1.906-17.246-10.38-32.171-22.653-42.564 5.332 8.236 8.884 17.804 10.035 28.221zM657.42 448.287c-11.609 24.903-41.208 35.681-66.113 24.072-12.898-6.013-22.006-16.854-26.178-29.368.515 18.229 11.067 35.498 28.72 43.728 24.903 11.609 54.503.832 66.112-24.073 5.597-12.004 5.989-25.098 2.106-36.745.211 7.487-1.267 15.135-4.647 22.386zM166.876 119.876c22.846-15.265 53.741-9.119 69.007 13.728 7.906 11.832 10.066 25.826 7.139 38.688 9.019-15.85 8.959-36.088-1.861-52.283-15.264-22.846-46.16-28.992-69.006-13.726-11.013 7.357-18.142 18.347-20.867 30.318 3.703-6.509 8.936-12.281 15.588-16.725zM453.874 451.022c-26.359 24.514-67.6 23.019-92.114-3.341-12.697-13.652-18.413-31.3-17.313-48.545-8.354 22.382-4.051 48.544 13.327 67.229 24.512 26.358 65.753 27.855 92.113 3.341 12.707-11.816 19.632-27.52 20.656-43.57-3.433 9.193-8.995 17.75-16.669 24.886zM277.267 411.207c-35.848-3.265-62.262-34.972-58.998-70.819 1.691-18.568 11.015-34.604 24.59-45.296-22.242 8.72-38.85 29.387-41.164 54.798-3.265 35.847 23.148 67.555 58.998 70.818 17.28 1.574 33.595-3.75 46.23-13.701-9.135 3.581-19.219 5.151-29.656 4.2zM123.769 327.163c-34.907-8.788-56.081-44.209-47.294-79.117 4.552-18.08 16.251-32.475 31.321-40.931-23.326 5.162-42.939 23.002-49.168 47.746-8.788 34.906 12.386 70.329 47.294 79.116 16.826 4.236 33.771 1.508 47.796-6.362-9.58 2.12-19.786 2.107-29.949-.452zM217.71 237.075c-33.026 14.318-71.406-.847-85.726-33.873-7.416-17.105-6.919-35.648-.131-51.539-15.34 18.313-20.009 44.413-9.859 67.823 14.317 33.025 52.698 48.191 85.725 33.872 15.92-6.901 27.687-19.396 34.005-34.185-6.301 7.522-14.398 13.734-24.014 17.902zM392.492 317.23c-35.466 6.153-69.206-17.609-75.36-53.076-3.187-18.37 1.655-36.276 11.989-50.126-19.216 14.194-29.89 38.465-25.527 63.605 6.152 35.465 39.892 59.229 75.359 53.074 17.096-2.965 31.47-12.343 41.088-25.232-7.893 5.83-17.223 9.964-27.549 11.755zM768.165 218.208c32.868-14.677 71.411.07 86.089 32.938 7.602 17.024 7.307 35.571.691 51.535 15.141-18.479 19.525-44.628 9.121-67.927-14.676-32.867-53.219-47.615-86.088-32.938-15.844 7.074-27.474 19.695-33.631 34.553 6.219-7.589 14.249-13.889 23.818-18.161zM1017.285 185.527c-11.429 34.134 6.977 71.069 41.11 82.5 17.68 5.919 36.111 3.832 51.36-4.296-16.929 16.856-42.53 23.75-66.726 15.647-34.133-11.429-52.539-48.364-41.109-82.499 5.509-16.453 16.946-29.25 31.139-36.814-6.953 6.924-12.447 15.525-15.774 25.462zM786.88 144.066c-.217-25.57 20.335-46.474 45.905-46.691 13.244-.111 25.235 5.35 33.75 14.191-7.729-15.107-23.509-25.391-41.635-25.237-25.568.217-46.121 21.12-45.903 46.69.104 12.326 5.018 23.483 12.94 31.714-3.174-6.206-4.994-13.223-5.057-20.667zM280.551 176.392c-.217-25.57 20.335-46.474 45.905-46.691 13.244-.111 25.235 5.35 33.75 14.191-7.729-15.107-23.509-25.391-41.635-25.237-25.568.217-46.121 21.12-45.903 46.69.104 12.326 5.018 23.483 12.94 31.714-3.174-6.206-4.994-13.224-5.057-20.667zM708.463 123.4c-.217-25.57 20.335-46.474 45.905-46.691 13.244-.111 25.235 5.35 33.75 14.191-7.729-15.107-23.509-25.391-41.635-25.237-25.568.217-46.121 21.12-45.903 46.69.104 12.326 5.018 23.483 12.94 31.714-3.174-6.206-4.994-13.223-5.057-20.667zM1233.971 248.132c32.868-14.677 71.411.07 86.089 32.938 7.602 17.024 7.307 35.571.691 51.535 15.141-18.479 19.525-44.628 9.121-67.927-14.676-32.867-53.219-47.615-86.088-32.938-15.844 7.074-27.474 19.695-33.631 34.553 6.219-7.589 14.248-13.889 23.818-18.161z"/>
  </g>
</svg>
