<svg id="Layer_3" xmlns="http://www.w3.org/2000/svg" width="750.344" height="444.315" viewBox="0 0 750.344 444.315">
  <g id="clientRightCloud">
    <path fill="#D8D8D8" d="M651.802 119.854c-13.299 0-25.98 2.641-37.556 7.416-17.565-16.225-41.044-26.143-66.842-26.143-30.789 0-58.276 14.124-76.348 36.243-24.383-28.42-60.556-46.428-100.938-46.428-13.105 0-25.765 1.905-37.725 5.438-22.975-27.412-57.462-44.848-96.027-44.848-11.054 0-21.771 1.438-31.98 4.127C185.66 22.438 150.053 0 109.198 0 48.89 0 0 48.889 0 109.198c0 60.309 48.89 109.197 109.198 109.197 2.994 0 5.958-.125 8.891-.361 10.459 29.985 31.995 54.772 59.709 69.463-8.432 12.85-13.299 27.974-13.299 44.166 0 46.618 40.313 84.41 90.039 84.41 41.581 0 76.572-26.426 86.924-62.338 9.23 2.027 18.816 3.106 28.656 3.106 5.694 0 11.305-.359 16.811-1.054 5.348 49.719 50.123 88.527 104.566 88.527 58.047 0 105.103-44.114 105.103-98.531 0-19.559-6.079-37.785-16.562-53.112 1.662-.583 3.305-1.209 4.925-1.878 17.565 16.226 41.044 26.144 66.841 26.144 54.424 0 98.542-44.118 98.542-98.542 0-54.422-44.118-98.541-98.542-98.541z"/>
    <path fill="#C4C4C4" d="M625.945 157.263c32.868-14.677 71.411.07 86.089 32.938 7.602 17.024 7.307 35.571.691 51.535 15.141-18.479 19.525-44.628 9.121-67.927-14.676-32.867-53.219-47.615-86.088-32.938-15.844 7.074-27.474 19.695-33.631 34.553 6.22-7.589 14.249-13.889 23.818-18.161zM97.865 31.784c23.771-10.615 51.645.051 62.26 23.821 5.498 12.312 5.284 25.726.5 37.271 10.95-13.364 14.121-32.275 6.597-49.125-10.613-23.77-38.488-34.436-62.26-23.82-11.458 5.115-19.869 14.243-24.321 24.988 4.497-5.489 10.303-10.045 17.224-13.135z"/>
  </g>
</svg>
