<svg id="Layer_3" xmlns="http://www.w3.org/2000/svg" width="750.344" height="444.315" viewBox="0 0 750.344 444.315">
  <g id="clientLeftCloud">
    <path fill="#D8D8D8" d="M651.802 119.854c-13.299 0-25.98 2.641-37.555 7.417-17.565-16.226-41.044-26.144-66.842-26.144-30.789 0-58.277 14.124-76.347 36.243-24.383-28.42-60.556-46.428-100.939-46.428-13.105 0-25.764 1.905-37.725 5.438-22.974-27.412-57.462-44.848-96.027-44.848-11.054 0-21.771 1.438-31.981 4.127C185.66 22.439 150.053 0 109.198 0 48.89 0 0 48.889 0 109.198c0 60.309 48.89 109.197 109.198 109.197 2.994 0 5.958-.126 8.891-.362 10.459 29.986 31.995 54.773 59.709 69.464-8.432 12.849-13.299 27.974-13.299 44.166 0 46.618 40.313 84.41 90.039 84.41 41.582 0 76.572-26.426 86.923-62.338 9.23 2.028 18.817 3.106 28.657 3.106 5.694 0 11.305-.359 16.811-1.055 5.348 49.719 50.123 88.528 104.566 88.528 58.047 0 105.103-44.114 105.103-98.531 0-19.559-6.079-37.786-16.562-53.112 1.663-.583 3.304-1.209 4.925-1.878 17.565 16.226 41.043 26.144 66.841 26.144 54.424 0 98.542-44.118 98.542-98.542 0-54.422-44.118-98.541-98.542-98.541z"/>
    <path fill="#C4C4C4" d="M524.782 180.878c20.9-9.332 45.408.045 54.741 20.944 4.833 10.826 4.646 22.619.44 32.77 9.627-11.75 12.416-28.377 5.799-43.192-9.332-20.899-33.84-30.276-54.74-20.943-10.074 4.498-17.469 12.523-21.384 21.971 3.954-4.827 9.059-8.833 15.144-11.55zM608.332 162.396c32.868-14.677 71.411.07 86.089 32.938 7.602 17.024 7.307 35.571.691 51.535 15.141-18.479 19.525-44.628 9.121-67.927-14.676-32.867-53.219-47.615-86.088-32.938-15.844 7.074-27.474 19.695-33.631 34.553 6.219-7.588 14.248-13.888 23.818-18.161zM196.437 122.43c-5.5-21.646 5.473-43.114 24.508-47.951 9.859-2.505 19.948-.054 28.147 5.896-8.922-11.406-22.842-17.259-36.336-13.83-19.034 4.835-30.007 26.304-24.507 47.95 2.65 10.435 8.646 19.004 16.276 24.543-3.665-4.685-6.487-10.307-8.088-16.608zM143.85 216.506c-6.168-24.279 6.139-48.357 27.489-53.783 11.059-2.81 22.375-.061 31.571 6.613-10.007-12.793-25.621-19.357-40.756-15.512-21.349 5.423-33.657 29.503-27.488 53.782 2.973 11.704 9.698 21.315 18.256 27.528-4.11-5.254-7.276-11.56-9.072-18.628zM38.444 121.414c.69-35.989 30.425-64.605 66.415-63.916 18.641.358 35.303 8.511 46.939 21.285-10.289-21.561-32.092-36.647-57.604-37.136-35.988-.691-65.725 27.924-66.414 63.915-.333 17.349 6.146 33.241 16.976 45.131-4.225-8.855-6.513-18.801-6.312-29.279z"/>
  </g>
</svg>
