<svg id="Layer_3" xmlns="http://www.w3.org/2000/svg" width="1132.766" height="92.777" viewBox="0 0 1132.766 92.777">
  <g id="clientPartnerBg" fill="#C3C3DD">
    <g>
      <g>
        <path d="M134.443 24.952c-8.396 0-15.7 4.667-19.464 11.548 4.012-4.004 9.548-6.479 15.663-6.479 12.246 0 22.172 9.927 22.172 22.173 0 3.85-.982 7.469-2.708 10.623 4.021-4.014 6.51-9.562 6.51-15.691 0-12.247-9.928-22.174-22.173-22.174z"/>
        <path d="M101.589 8.961c-5.612 2.48-9.117 7.758-9.602 13.469 1.499-3.861 4.469-7.152 8.558-8.957 8.187-3.617 17.754.088 21.37 8.273 1.137 2.574 1.55 5.283 1.327 7.902 1.503-3.87 1.528-8.314-.282-12.413-3.616-8.185-13.184-11.89-21.371-8.274zM165.53 46.654c-8.997 3.525-14.864 11.596-16.008 20.55 2.617-5.975 7.511-10.954 14.064-13.522 13.123-5.143 27.93 1.328 33.072 14.45 1.617 4.125 2.084 8.417 1.559 12.522 2.625-5.989 2.961-12.98.386-19.55-5.143-13.123-19.95-19.592-33.073-14.45z"/>
      </g>
      <g>
        <path d="M65.926 37.074c8.396 0 15.7 4.668 19.464 11.548-4.011-4.003-9.548-6.479-15.663-6.479-12.245 0-22.172 9.927-22.172 22.172 0 3.85.982 7.469 2.708 10.624-4.021-4.013-6.51-9.562-6.51-15.692 0-12.246 9.928-22.173 22.173-22.173z"/>
        <path d="M98.78 21.084c5.612 2.479 9.117 7.758 9.602 13.467-1.499-3.86-4.469-7.15-8.558-8.956-8.186-3.616-17.754.087-21.37 8.274-1.137 2.574-1.55 5.283-1.328 7.902-1.503-3.87-1.527-8.315.283-12.414 3.616-8.185 13.184-11.89 21.371-8.273zM34.839 58.776c8.997 3.526 14.865 11.596 16.008 20.551-2.618-5.976-7.51-10.954-14.063-13.522-13.123-5.143-27.93 1.326-33.072 14.449-1.617 4.126-2.085 8.418-1.56 12.523-2.625-5.989-2.961-12.981-.386-19.551 5.142-13.122 19.95-19.591 33.073-14.45z"/>
      </g>
    </g>
    <g>
      <g>
        <path d="M1064.862 17.897c-8.647 0-16.17 4.808-20.048 11.895 4.132-4.123 9.835-6.674 16.133-6.674 12.612 0 22.837 10.224 22.837 22.837 0 3.966-1.012 7.693-2.789 10.943 4.143-4.135 6.704-9.85 6.704-16.163 0-12.612-10.223-22.838-22.837-22.838z"/>
        <path d="M1031.023 1.428c-5.78 2.554-9.391 7.99-9.89 13.871 1.544-3.977 4.604-7.365 8.814-9.225 8.432-3.727 18.286.09 22.011 8.521 1.172 2.651 1.597 5.442 1.367 8.14 1.549-3.986 1.574-8.564-.291-12.786-3.723-8.43-13.579-12.246-22.011-8.521zM1096.882 40.251c-9.266 3.632-15.311 11.942-16.488 21.166 2.696-6.154 7.736-11.282 14.485-13.927 13.516-5.298 28.768 1.367 34.063 14.882 1.666 4.249 2.148 8.671 1.606 12.899 2.703-6.17 3.05-13.371.398-20.137-5.297-13.516-20.548-20.179-34.064-14.883z"/>
      </g>
      <g>
        <path d="M994.291 30.383c8.646 0 16.17 4.809 20.047 11.895-4.131-4.122-9.834-6.674-16.132-6.674-12.613 0-22.838 10.225-22.838 22.838 0 3.965 1.012 7.693 2.789 10.942-4.142-4.134-6.704-9.849-6.704-16.162 0-12.614 10.225-22.839 22.838-22.839z"/>
        <path d="M1028.13 13.914c5.78 2.553 9.391 7.99 9.89 13.871-1.545-3.977-4.604-7.365-8.815-9.226-8.432-3.726-18.285.09-22.011 8.522-1.171 2.651-1.596 5.442-1.366 8.139-1.549-3.986-1.574-8.563.29-12.785 3.725-8.431 13.58-12.246 22.012-8.521zM962.271 52.736c9.267 3.632 15.312 11.943 16.489 21.167-2.696-6.154-7.736-11.282-14.485-13.928-13.517-5.298-28.769 1.367-34.064 14.883-1.665 4.249-2.147 8.67-1.605 12.898-2.703-6.169-3.05-13.37-.398-20.137 5.295-13.515 20.547-20.179 34.063-14.883z"/>
      </g>
    </g>
  </g>
</svg>
