<?xml version="1.0" encoding="utf-8"?>
<!-- Generator: Adobe Illustrator 16.0.0, SVG Export Plug-In . SVG Version: 6.00 Build 0)  -->
<!DOCTYPE svg PUBLIC "-//W3C//DTD SVG 1.1//EN" "http://www.w3.org/Graphics/SVG/1.1/DTD/svg11.dtd">
<svg version="1.1" id="Layer_1" xmlns="http://www.w3.org/2000/svg" xmlns:xlink="http://www.w3.org/1999/xlink" x="0px" y="0px"
	 width="413.797px" height="375.522px" viewBox="0 0 413.797 375.522" style="enable-background:new 0 0 413.797 375.522;"
	 xml:space="preserve">
<g>
	<g>
		<g>
			<radialGradient id="SVGID_1_" cx="-693.8857" cy="341.5947" r="288.9521" gradientUnits="userSpaceOnUse">
				<stop  offset="0" style="stop-color:#D5D2D8;stop-opacity:0.8"/>
				<stop  offset="0.4236" style="stop-color:#684F77;stop-opacity:0.7"/>
				<stop  offset="0.8046" style="stop-color:#B1A5B7;stop-opacity:0.4"/>
				<stop  offset="1" style="stop-color:#684F77;stop-opacity:0.7"/>
			</radialGradient>
			<path style="fill:url(#SVGID_1_);" d="M-575.384,183.52l0.002-0.002c0,0-0.021-0.023-0.023-0.027
				c-3.24-4.364-6.783-8.487-10.574-12.369c-15.922-18.773-44.865-53.529-51.418-65.7c0,0-33.9-42.715-24.654-105.421
				c-82.498,34.926-165.477,186.126-123.299,295.818c2.566,7.15,5.795,13.979,9.604,20.431c0.035,0.069,0.064,0.138,0.104,0.199
				l0.008-0.004c20.961,35.36,59.486,59.078,103.574,59.078c66.463,0,120.342-53.88,120.342-120.342
				C-551.72,228.329-560.521,203.541-575.384,183.52z"/>
			<radialGradient id="SVGID_2_" cx="-693.8867" cy="341.6006" r="288.953" gradientUnits="userSpaceOnUse">
				<stop  offset="0.0296" style="stop-color:#FFFFFF"/>
				<stop  offset="0.4236" style="stop-color:#B1A5B7"/>
				<stop  offset="0.8046" style="stop-color:#B1A5B7;stop-opacity:0.2"/>
				<stop  offset="1" style="stop-color:#B1A5B7"/>
			</radialGradient>
			<path style="fill:url(#SVGID_2_);" d="M-782.419,149.907c-10.578,31.175-15.924,64-13.736,95.546
				C-797.281,225.962-796.332,191.458-782.419,149.907z"/>
			<radialGradient id="SVGID_3_" cx="-693.8862" cy="341.6533" r="289.0176" gradientUnits="userSpaceOnUse">
				<stop  offset="0.0296" style="stop-color:#FFFFFF"/>
				<stop  offset="0.4236" style="stop-color:#B1A5B7"/>
				<stop  offset="0.8046" style="stop-color:#B1A5B7;stop-opacity:0.2"/>
				<stop  offset="1" style="stop-color:#B1A5B7"/>
			</radialGradient>
			<path style="fill:url(#SVGID_3_);" d="M-775.33,131.028c0.141-0.343,0.283-0.687,0.426-1.028
				C-775.046,130.342-775.189,130.685-775.33,131.028z"/>
			<radialGradient id="SVGID_4_" cx="-693.8774" cy="341.623" r="288.9877" gradientUnits="userSpaceOnUse">
				<stop  offset="0.0296" style="stop-color:#FFFFFF"/>
				<stop  offset="0.4236" style="stop-color:#B1A5B7"/>
				<stop  offset="0.8046" style="stop-color:#B1A5B7;stop-opacity:0.2"/>
				<stop  offset="1" style="stop-color:#B1A5B7"/>
			</radialGradient>
			<path style="fill:url(#SVGID_4_);" d="M-779.505,141.631c0.17-0.462,0.361-0.932,0.535-1.396
				C-779.146,140.701-779.332,141.163-779.505,141.631z"/>
			<path style="fill:#181022;" d="M-778.97,140.234c1.166-3.088,2.377-6.16,3.641-9.206
				C-776.613,134.126-777.833,137.198-778.97,140.234z"/>
			<path style="fill:#181022;" d="M-782.419,149.907c0.939-2.77,1.893-5.535,2.914-8.276
				C-780.533,144.417-781.503,147.178-782.419,149.907z"/>
			<path style="fill:#181022;" d="M-766.5,111.622c-3.113,6.226-5.881,12.35-8.404,18.378c2.6-6.205,5.42-12.296,8.393-18.28
				C-766.509,111.705-766.5,111.622-766.5,111.622z"/>
			<path style="opacity:0.6;fill:#684F77;" d="M-654.462,72.887c-4.277-11.615-7.918-25.987-8.904-42.483
				c-8.242,4.293-49.916,27.673-53.588,63.46c0,0-7.131,69.321,11.207,136.537C-705.748,230.4-683.671,88.994-654.462,72.887z"/>
			<linearGradient id="SVGID_5_" gradientUnits="userSpaceOnUse" x1="-792.2539" y1="132.2456" x2="-661.3204" y2="244.8471">
				<stop  offset="0.0296" style="stop-color:#B1A5B7"/>
				<stop  offset="1" style="stop-color:#684F77;stop-opacity:0.8"/>
			</linearGradient>
			<path style="fill:url(#SVGID_5_);" d="M-556.652,221.447c-1.75-4.266-3.938-8.512-6.402-12.704
				c-20.592-33.607-60.744-62.922-60.744-62.922c89.654,91.691-38.715,109.359-38.715,109.359
				c-51.408,1.435-77.916-23.729-91.439-53.351c-18.4-40.31-12.707-88.898-12.559-90.11c-2.973,5.984-5.793,12.076-8.393,18.28
				c-0.143,0.342-0.285,0.685-0.426,1.028c-1.264,3.046-2.475,6.118-3.641,9.206c-0.174,0.464-0.365,0.934-0.535,1.396
				c-1.021,2.741-1.975,5.506-2.914,8.276c-13.912,41.551-14.861,76.055-13.736,95.546c0.402,5.792,1.025,11.546,1.955,17.23
				c13.594,9.797,27.057,17.496,40.244,23.484c7.355,3.337,14.623,6.137,21.779,8.458c39.936,9.9,73.754,9.517,99.398,5.788
				c40.205-7.883,66.033-25.21,66.033-25.21c3.082-2.577,5.629-5.263,7.732-8.04c4.049-5.838,6.258-12.021,6.969-18.397
				C-552.542,239.327-554.099,230.182-556.652,221.447z"/>
			<path style="fill:#181022;" d="M-557.078,219.871c-1.705-3.74-3.729-7.461-5.977-11.128c2.465,4.192,4.652,8.438,6.402,12.704
				C-556.802,220.926-556.917,220.389-557.078,219.871z"/>
			<linearGradient id="SVGID_6_" gradientUnits="userSpaceOnUse" x1="-555.2002" y1="190.3242" x2="-558.637" y2="43.522">
				<stop  offset="0.0296" style="stop-color:#684F77;stop-opacity:0.7"/>
				<stop  offset="1" style="stop-color:#2A1439"/>
			</linearGradient>
			<path style="fill:url(#SVGID_6_);" d="M-556.652,221.447c2.553,8.734,4.109,17.88,4.607,27.319
				C-551.052,239.879-552.878,230.631-556.652,221.447z"/>
			<radialGradient id="SVGID_7_" cx="-701.2271" cy="261.4688" r="118.301" gradientUnits="userSpaceOnUse">
				<stop  offset="0.0296" style="stop-color:#FFFFFF"/>
				<stop  offset="1" style="stop-color:#684F77;stop-opacity:0.6"/>
			</radialGradient>
			<path style="opacity:0.7;fill:url(#SVGID_7_);" d="M-637.398,105.421c0,0-8.541-10.77-15.879-29.42
				c-6.441,7.605-26.633,36.743-19.193,96.16c0,0,18.338,58.07-28.527,99.844c0,0-25.469,18.336-25.469,56.028
				c0,0-1.016,38.566,39.732,43.811c0,0,66.223-0.004,76.41-73.355c0,0,5.094-60.389-5.094-82.661c0,0-7.465-21.431-5.822-87.676
				C-628.666,118.634-634.802,110.245-637.398,105.421z"/>
			<linearGradient id="SVGID_8_" gradientUnits="userSpaceOnUse" x1="-664.7207" y1="193.25" x2="-668.1426" y2="47.0832">
				<stop  offset="0.0296" style="stop-color:#684F77;stop-opacity:0.5"/>
				<stop  offset="1" style="stop-color:#2A1439;stop-opacity:0.8"/>
			</linearGradient>
			<path style="fill:url(#SVGID_8_);" d="M-580.605,282.907c21.182-9.697,28.797-23.733,28.287-39.227
				c-0.346-3.652-0.877-7.238-1.543-10.783c-7.947-32.279-44.021-67.837-64.1-83.083c-61.166-46.356-67.83-115.664-68.422-136.178
				c-11.742,8.132-23.227,18.363-34.096,30.216c-63.564,89.354-53.324,232.073-53.324,232.073
				C-691.267,320.001-619.251,300.679-580.605,282.907z"/>
			<path style="opacity:0.4;fill:#432458;" d="M-657.408,64.024c0,0-0.662,0.182-1.734,0.811c-1.08,0.633-2.535,1.753-4.188,3.378
				c-1.674,1.613-3.406,3.845-5.285,6.463c-1.723,2.75-3.637,5.836-5.4,9.419c-0.969,1.738-1.855,3.61-2.664,5.608
				c-0.846,1.976-1.719,4.016-2.615,6.114c-1.463,4.346-3.314,8.791-4.719,13.593c-1.455,4.78-3.066,9.676-4.313,14.786
				c-1.313,5.085-2.797,10.208-3.834,15.453c-1.127,5.221-2.471,10.392-3.416,15.57c-1,5.169-1.986,10.253-2.939,15.175
				c-0.957,4.924-1.672,9.724-2.502,14.251c-0.779,4.536-1.52,8.826-2.203,12.785c-1.107,7.959-2.275,14.564-2.979,19.21
				c-0.787,4.634-1.236,7.285-1.236,7.285s0.174-2.682,0.477-7.369c0.391-4.68,0.783-11.389,1.549-19.414
				c0.482-4.001,1.006-8.335,1.561-12.919c0.602-4.58,1.041-9.44,1.924-14.406c0.854-4.972,1.734-10.109,2.629-15.331
				c0.91-5.219,2.211-10.455,3.313-15.725c1.092-5.274,2.635-10.453,4.01-15.58c1.273-5.153,3.119-10.069,4.693-14.877
				c1.496-4.835,3.662-9.277,5.357-13.591c1.02-2.093,2.014-4.127,2.975-6.095c0.922-1.983,1.924-3.848,3.002-5.58
				c1.068-1.732,1.939-3.477,3.043-4.977c1.098-1.496,2.141-2.916,3.119-4.25c2.148-2.53,4.098-4.651,5.945-6.163
				c1.809-1.544,3.453-2.47,4.602-3.001C-658.074,64.127-657.408,64.024-657.408,64.024z"/>
			<path style="opacity:0.1;fill:#432458;" d="M-610.324,298.488c0,0,0.803-9.551,1.133-22.44l-0.055-21.979
				c0,0-0.855,86.443-60.453,109.907c0,0-35.299,15.015-48.621-17.365c0,0-12.76-34.918,10.854-68.583
				c-0.027,0.031-0.055,0.062-0.08,0.093l-5.43,6.724c-6.609,9.279-13.49,23.596-13.49,43.189c0,0-1.016,38.566,39.732,43.811
				C-686.734,371.844-620.511,371.84-610.324,298.488z"/>
			<path style="fill:#FFFFFF;" d="M-715.195,352.744c0,0,17.84,11.692,38.561,13.364
				C-676.634,366.108-701.478,373.719-715.195,352.744z"/>
			<linearGradient id="SVGID_9_" gradientUnits="userSpaceOnUse" x1="-755.1899" y1="138.4414" x2="-619.0169" y2="324.3689">
				<stop  offset="0" style="stop-color:#2A1439"/>
				<stop  offset="1" style="stop-color:#181022;stop-opacity:0.1"/>
			</linearGradient>
			<path style="opacity:0.6;fill:url(#SVGID_9_);" d="M-748.103,96.125c1.02,60.109,106.75,233.074,179.082,220.323
				c0,0-11.205,22.939-31.58,34.147c0,0-132.564-47.765-166.727-182.863C-763.117,131.028-748.103,96.125-748.103,96.125z"/>
		</g>
		<g>
			<radialGradient id="SVGID_10_" cx="-854.9492" cy="256.6055" r="354.8453" gradientUnits="userSpaceOnUse">
				<stop  offset="0" style="stop-color:#B1A5B7"/>
				<stop  offset="1" style="stop-color:#432458"/>
			</radialGradient>
			<path style="fill:url(#SVGID_10_);" d="M-471.832,172.669c-7.738-34.084-66.006-51.569-142.184-47.176l0.92,1.145
				c58.002-0.788,101.047,14.101,107.18,41.12c8.816,38.837-61.973,88.014-158.117,109.844
				c-96.143,21.831-181.232,8.044-190.049-30.799c-5.467-24.074,19.672-52.111,62.465-75.152l0.186-0.878
				c-57.305,27.866-92.035,63.529-85.162,93.795c10.252,45.153,109.172,61.18,220.941,35.801
				C-543.88,274.993-461.582,217.818-471.832,172.669z"/>
			<linearGradient id="SVGID_11_" gradientUnits="userSpaceOnUse" x1="-836.5825" y1="313.9961" x2="-452.0839" y2="169.314">
				<stop  offset="0" style="stop-color:#684F77"/>
				<stop  offset="1" style="stop-color:#2A1439"/>
			</linearGradient>
			<path style="fill:url(#SVGID_11_);" d="M-655.64,300.368c-111.771,25.379-210.689,9.353-220.941-35.801
				c-0.258-1.132-0.445-2.268-0.588-3.414c-0.469,4.085-0.305,8.113,0.588,12.041c10.252,45.153,109.17,61.184,220.941,35.805
				c108.918-24.727,189.809-79.646,184.387-124.214C-476.251,227.593-553.658,277.215-655.64,300.368z"/>
		</g>
	</g>
	<g>
		<g>
			<path style="fill:#B1A5B7;" d="M-396.939,300.936c-5.969,0-11.445-1.127-16.418-3.379c-4.979-2.252-9.299-5.344-12.965-9.271
				c-3.668-3.929-6.514-8.455-8.563-13.587c-2.041-5.133-3.061-10.634-3.061-16.502c0-5.758,1.02-11.179,3.061-16.261
				c2.049-5.079,4.871-9.532,8.486-13.354c3.613-3.824,7.932-6.858,12.965-9.114c5.025-2.252,10.473-3.379,16.342-3.379
				c5.969,0,11.438,1.127,16.416,3.379c4.973,2.256,9.246,5.316,12.805,9.191c3.561,3.874,6.338,8.328,8.324,13.356
				c1.996,5.025,2.992,10.368,2.992,16.026c0,0.837,0,1.673,0,2.513s-0.053,1.416-0.16,1.73h-70.076
				c0.314,4.396,1.336,8.458,3.063,12.175c1.732,3.721,3.957,6.939,6.682,9.663c2.723,2.728,5.838,4.845,9.344,6.363
				c3.514,1.52,7.258,2.279,11.24,2.279c2.615,0,5.232-0.368,7.855-1.102c2.615-0.732,5.025-1.729,7.227-2.988
				c2.195-1.254,4.189-2.8,5.969-4.634c1.779-1.829,3.146-3.847,4.082-6.045l9.275,2.513c-1.258,3.038-3.039,5.788-5.348,8.247
				c-2.301,2.463-4.971,4.61-8.01,6.44c-3.037,1.834-6.391,3.253-10.057,4.242C-389.137,300.438-392.957,300.936-396.939,300.936z
				 M-366.773,254.114c-0.314-4.403-1.334-8.408-3.061-12.021s-3.928-6.729-6.598-9.349s-5.762-4.661-9.268-6.126
				c-3.514-1.465-7.258-2.202-11.24-2.202s-7.748,0.737-11.309,2.202c-3.566,1.465-6.682,3.506-9.352,6.126
				s-4.818,5.762-6.445,9.425c-1.617,3.667-2.584,7.649-2.898,11.945H-366.773z"/>
			<path style="fill:#B1A5B7;" d="M-327.809,184.665h10.688v96.156c0,3.042,0.836,5.424,2.518,7.15
				c1.672,1.729,4.027,2.593,7.064,2.593c1.15,0,2.518-0.153,4.09-0.468c1.564-0.314,3.029-0.736,4.396-1.259l1.887,8.639
				c-1.994,0.844-4.428,1.52-7.311,2.045c-2.877,0.525-5.363,0.786-7.459,0.786c-4.924,0-8.799-1.389-11.629-4.166
				c-2.824-2.773-4.244-6.674-4.244-11.703V184.665z"/>
			<path style="fill:#B1A5B7;" d="M-273.76,200.376v-15.711h10.688v15.711H-273.76z M-273.76,299.363v-81.859h10.688v81.859H-273.76
				z"/>
			<path style="fill:#B1A5B7;" d="M-225.688,217.504l24.512,32.054l1.258,2.354l1.26-2.354l24.512-32.054h11.469l-31.271,41.167
				l31.271,40.692h-11.469l-24.512-31.896l-1.26-2.198l-1.258,2.198l-24.512,31.896h-11.469l31.27-40.692l-31.27-41.167H-225.688z"
				/>
			<path style="fill:#B1A5B7;" d="M-136.754,200.376v-15.711h10.686v15.711H-136.754z M-136.754,299.363v-81.859h10.686v81.859
				H-136.754z"/>
			<path style="fill:#B1A5B7;" d="M-49.863,226.933c-7.234,0.207-13.518,2.198-18.857,5.969s-9.113,8.953-11.314,15.555v50.907
				h-10.68v-81.859h10.049v19.64c3.039-6.283,7.129-11.208,12.26-14.768c5.133-3.561,10.635-5.344,16.496-5.344
				c0.836,0,1.518,0.054,2.047,0.157V226.933z"/>
		</g>
		<g>
			<path style="fill:#B1A5B7;" d="M-429.018,136.143v5.775h12.842v4.978h-12.842v5.889h14.666v4.977h-20.668v-26.596h20.25v4.978
				H-429.018z"/>
			<path style="fill:#B1A5B7;" d="M-398.314,157.761l-10.447-26.596h6.459l7.256,20.061l7.295-20.061h6.193l-10.563,26.596H-398.314
				z"/>
			<path style="fill:#B1A5B7;" d="M-368.826,136.143v5.775h12.842v4.978h-12.842v5.889h14.666v4.977h-20.668v-26.596h20.25v4.978
				H-368.826z"/>
			<path style="fill:#B1A5B7;" d="M-333.523,150.163h-0.57h-5.547v7.599h-6.004v-26.596h11.551c6.953,0,10.904,3.344,10.904,9.233
				c0,4.103-1.748,7.067-4.977,8.586l5.66,8.777h-6.801L-333.523,150.163z M-334.094,145.147c3.305,0,5.205-1.52,5.205-4.559
				c0-2.964-1.9-4.445-5.205-4.445h-5.547v9.004H-334.094z"/>
			<path style="fill:#B1A5B7;" d="M-301.795,157.761h-6.002v-8.435l-9.842-18.162h6.041l6.803,11.93l6.648-11.93h6.041
				l-9.689,18.009V157.761z"/>
			<path style="fill:#B1A5B7;" d="M-274.018,136.256v21.505h-6.002v-21.505h-8.094v-5.091h22.227v5.091H-274.018z"/>
			<path style="fill:#B1A5B7;" d="M-240.807,157.761v-10.486h-12.043v10.486h-6.004v-26.596h6.004v11.094h12.043v-11.094h6.004
				v26.596H-240.807z"/>
			<path style="fill:#B1A5B7;" d="M-225.146,157.761v-26.596h6.002v26.596H-225.146z"/>
			<path style="fill:#B1A5B7;" d="M-190.836,157.761l-12.881-17.06v17.06h-5.736v-26.596h5.471l12.918,17.098v-17.098h5.699v26.596
				H-190.836z"/>
			<path style="fill:#B1A5B7;" d="M-152.646,144.349v10.221c-2.813,2.052-7.105,3.458-10.791,3.458
				c-8.055,0-14.172-5.851-14.172-13.564c0-7.675,6.23-13.488,14.514-13.488c3.951,0,7.979,1.52,10.676,3.875l-3.381,4.293
				c-1.975-1.824-4.711-2.964-7.295-2.964c-4.711,0-8.359,3.61-8.359,8.283c0,4.711,3.686,8.321,8.398,8.321
				c1.596,0,3.494-0.57,5.205-1.444v-6.991H-152.646z"/>
		</g>
	</g>
</g>
<g>
	<g>
		<radialGradient id="SVGID_12_" cx="183.5713" cy="341.5947" r="288.9511" gradientUnits="userSpaceOnUse">
			<stop  offset="0" style="stop-color:#D5D2D8;stop-opacity:0.8"/>
			<stop  offset="0.4236" style="stop-color:#684F77;stop-opacity:0.7"/>
			<stop  offset="0.8046" style="stop-color:#B1A5B7;stop-opacity:0.4"/>
			<stop  offset="1" style="stop-color:#684F77;stop-opacity:0.7"/>
		</radialGradient>
		<path style="fill:url(#SVGID_12_);" d="M302.072,183.52l0.002-0.002c0,0-0.021-0.023-0.023-0.027
			c-3.24-4.364-6.783-8.487-10.574-12.369c-15.922-18.773-44.865-53.529-51.418-65.7c0,0-33.9-42.715-24.654-105.421
			C132.906,34.926,49.928,186.126,92.105,295.818c2.566,7.15,5.795,13.979,9.604,20.431c0.035,0.069,0.064,0.138,0.104,0.199
			l0.008-0.004c20.961,35.36,59.486,59.078,103.574,59.078c66.463,0,120.342-53.88,120.342-120.342
			C325.736,228.329,316.936,203.541,302.072,183.52z"/>
		<radialGradient id="SVGID_13_" cx="183.5703" cy="341.6006" r="288.9538" gradientUnits="userSpaceOnUse">
			<stop  offset="0.0296" style="stop-color:#FFFFFF"/>
			<stop  offset="0.4236" style="stop-color:#B1A5B7"/>
			<stop  offset="0.8046" style="stop-color:#B1A5B7;stop-opacity:0.2"/>
			<stop  offset="1" style="stop-color:#B1A5B7"/>
		</radialGradient>
		<path style="fill:url(#SVGID_13_);" d="M95.037,149.907c-10.578,31.175-15.924,64-13.736,95.546
			C80.176,225.962,81.125,191.458,95.037,149.907z"/>
		<radialGradient id="SVGID_14_" cx="183.5703" cy="341.6533" r="289.0176" gradientUnits="userSpaceOnUse">
			<stop  offset="0.0296" style="stop-color:#FFFFFF"/>
			<stop  offset="0.4236" style="stop-color:#B1A5B7"/>
			<stop  offset="0.8046" style="stop-color:#B1A5B7;stop-opacity:0.2"/>
			<stop  offset="1" style="stop-color:#B1A5B7"/>
		</radialGradient>
		<path style="fill:url(#SVGID_14_);" d="M102.127,131.028c0.141-0.343,0.283-0.687,0.426-1.028
			C102.41,130.342,102.268,130.685,102.127,131.028z"/>
		<radialGradient id="SVGID_15_" cx="183.5791" cy="341.623" r="288.9877" gradientUnits="userSpaceOnUse">
			<stop  offset="0.0296" style="stop-color:#FFFFFF"/>
			<stop  offset="0.4236" style="stop-color:#B1A5B7"/>
			<stop  offset="0.8046" style="stop-color:#B1A5B7;stop-opacity:0.2"/>
			<stop  offset="1" style="stop-color:#B1A5B7"/>
		</radialGradient>
		<path style="fill:url(#SVGID_15_);" d="M97.951,141.631c0.17-0.462,0.361-0.932,0.535-1.396
			C98.311,140.701,98.125,141.163,97.951,141.631z"/>
		<path style="fill:#181022;" d="M98.486,140.234c1.166-3.088,2.377-6.16,3.641-9.206
			C100.844,134.126,99.623,137.198,98.486,140.234z"/>
		<path style="fill:#181022;" d="M95.037,149.907c0.939-2.77,1.893-5.535,2.914-8.276C96.924,144.417,95.953,147.178,95.037,149.907
			z"/>
		<path style="fill:#181022;" d="M110.957,111.622c-3.113,6.226-5.881,12.35-8.404,18.378c2.6-6.205,5.42-12.296,8.393-18.28
			C110.947,111.705,110.957,111.622,110.957,111.622z"/>
		<path style="opacity:0.6;fill:#684F77;" d="M222.994,72.887c-4.277-11.615-7.918-25.987-8.904-42.483
			c-8.242,4.293-49.916,27.673-53.588,63.46c0,0-7.131,69.321,11.207,136.537C171.709,230.4,193.785,88.994,222.994,72.887z"/>
		<linearGradient id="SVGID_16_" gradientUnits="userSpaceOnUse" x1="85.2041" y1="132.2456" x2="216.1381" y2="244.8475">
			<stop  offset="0.0296" style="stop-color:#B1A5B7"/>
			<stop  offset="1" style="stop-color:#684F77;stop-opacity:0.8"/>
		</linearGradient>
		<path style="fill:url(#SVGID_16_);" d="M320.805,221.447c-1.75-4.266-3.938-8.512-6.402-12.704
			c-20.592-33.607-60.744-62.922-60.744-62.922c89.654,91.691-38.715,109.359-38.715,109.359
			c-51.408,1.435-77.916-23.729-91.439-53.351c-18.4-40.31-12.707-88.898-12.559-90.11c-2.973,5.984-5.793,12.076-8.393,18.28
			c-0.143,0.342-0.285,0.685-0.426,1.028c-1.264,3.046-2.475,6.118-3.641,9.206c-0.174,0.464-0.365,0.934-0.535,1.396
			c-1.021,2.741-1.975,5.506-2.914,8.276c-13.912,41.551-14.861,76.055-13.736,95.546c0.402,5.792,1.025,11.546,1.955,17.23
			c13.594,9.797,27.057,17.496,40.244,23.484c7.355,3.337,14.623,6.137,21.779,8.458c39.936,9.9,73.754,9.517,99.398,5.788
			c40.205-7.883,66.033-25.21,66.033-25.21c3.082-2.577,5.629-5.263,7.732-8.04c4.049-5.838,6.258-12.021,6.969-18.397
			C324.914,239.327,323.357,230.182,320.805,221.447z"/>
		<path style="fill:#181022;" d="M320.379,219.871c-1.705-3.74-3.729-7.461-5.977-11.128c2.465,4.192,4.652,8.438,6.402,12.704
			C320.654,220.926,320.539,220.389,320.379,219.871z"/>
		<linearGradient id="SVGID_17_" gradientUnits="userSpaceOnUse" x1="322.2568" y1="190.3232" x2="318.8201" y2="43.521">
			<stop  offset="0.0296" style="stop-color:#684F77;stop-opacity:0.7"/>
			<stop  offset="1" style="stop-color:#2A1439"/>
		</linearGradient>
		<path style="fill:url(#SVGID_17_);" d="M320.805,221.447c2.553,8.734,4.109,17.88,4.607,27.319
			C326.404,239.879,324.578,230.631,320.805,221.447z"/>
		<radialGradient id="SVGID_18_" cx="176.2305" cy="261.4688" r="118.3005" gradientUnits="userSpaceOnUse">
			<stop  offset="0.0296" style="stop-color:#FFFFFF"/>
			<stop  offset="1" style="stop-color:#684F77;stop-opacity:0.6"/>
		</radialGradient>
		<path style="opacity:0.7;fill:url(#SVGID_18_);" d="M240.059,105.421c0,0-8.541-10.77-15.879-29.42
			c-6.441,7.605-26.633,36.743-19.193,96.16c0,0,18.338,58.07-28.527,99.844c0,0-25.469,18.336-25.469,56.028
			c0,0-1.016,38.566,39.732,43.811c0,0,66.223-0.004,76.41-73.355c0,0,5.094-60.389-5.094-82.661c0,0-7.465-21.431-5.822-87.676
			C248.791,118.634,242.654,110.245,240.059,105.421z"/>
		<linearGradient id="SVGID_19_" gradientUnits="userSpaceOnUse" x1="212.7354" y1="193.251" x2="209.3134" y2="47.0836">
			<stop  offset="0.0296" style="stop-color:#684F77;stop-opacity:0.5"/>
			<stop  offset="1" style="stop-color:#2A1439;stop-opacity:0.8"/>
		</linearGradient>
		<path style="fill:url(#SVGID_19_);" d="M296.852,282.907c21.182-9.697,28.797-23.733,28.287-39.227
			c-0.346-3.652-0.877-7.238-1.543-10.783c-7.947-32.279-44.021-67.837-64.1-83.083c-61.166-46.356-67.83-115.664-68.422-136.178
			C179.332,21.769,167.848,32,156.979,43.853c-63.564,89.354-53.324,232.073-53.324,232.073
			C186.189,320.001,258.205,300.679,296.852,282.907z"/>
		<path style="opacity:0.4;fill:#432458;" d="M220.049,64.024c0,0-0.662,0.182-1.734,0.811c-1.08,0.633-2.535,1.753-4.188,3.378
			c-1.674,1.613-3.406,3.845-5.285,6.463c-1.723,2.75-3.637,5.836-5.4,9.419c-0.969,1.738-1.855,3.61-2.664,5.608
			c-0.846,1.976-1.719,4.016-2.615,6.114c-1.463,4.346-3.314,8.791-4.719,13.593c-1.455,4.78-3.066,9.676-4.313,14.786
			c-1.313,5.085-2.797,10.208-3.834,15.453c-1.127,5.221-2.471,10.392-3.416,15.57c-1,5.169-1.986,10.253-2.939,15.175
			c-0.957,4.924-1.672,9.724-2.502,14.251c-0.779,4.536-1.52,8.826-2.203,12.785c-1.107,7.959-2.275,14.564-2.979,19.21
			c-0.787,4.634-1.236,7.285-1.236,7.285s0.174-2.682,0.477-7.369c0.391-4.68,0.783-11.389,1.549-19.414
			c0.482-4.001,1.006-8.335,1.561-12.919c0.602-4.58,1.041-9.44,1.924-14.406c0.854-4.972,1.734-10.109,2.629-15.331
			c0.91-5.219,2.211-10.455,3.313-15.725c1.092-5.274,2.635-10.453,4.01-15.58c1.273-5.153,3.119-10.069,4.693-14.877
			c1.496-4.835,3.662-9.277,5.357-13.591c1.02-2.093,2.014-4.127,2.975-6.095c0.922-1.983,1.924-3.848,3.002-5.58
			c1.068-1.732,1.939-3.477,3.043-4.977c1.098-1.496,2.141-2.916,3.119-4.25c2.148-2.53,4.098-4.651,5.945-6.163
			c1.809-1.544,3.453-2.47,4.602-3.001C219.383,64.127,220.049,64.024,220.049,64.024z"/>
		<path style="opacity:0.1;fill:#432458;" d="M267.133,298.488c0,0,0.803-9.551,1.133-22.44l-0.055-21.979
			c0,0-0.855,86.443-60.453,109.907c0,0-35.299,15.015-48.621-17.365c0,0-12.76-34.918,10.854-68.583
			c-0.027,0.031-0.055,0.062-0.08,0.093l-5.43,6.724c-6.609,9.279-13.49,23.596-13.49,43.189c0,0-1.016,38.566,39.732,43.811
			C190.723,371.844,256.945,371.84,267.133,298.488z"/>
		<path style="fill:#FFFFFF;" d="M162.262,352.744c0,0,17.84,11.692,38.561,13.364C200.822,366.108,175.979,373.719,162.262,352.744
			z"/>
		<linearGradient id="SVGID_20_" gradientUnits="userSpaceOnUse" x1="122.2666" y1="138.4414" x2="258.4396" y2="324.3689">
			<stop  offset="0" style="stop-color:#2A1439"/>
			<stop  offset="1" style="stop-color:#181022;stop-opacity:0.1"/>
		</linearGradient>
		<path style="opacity:0.6;fill:url(#SVGID_20_);" d="M129.354,96.125c1.02,60.109,106.75,233.074,179.082,220.323
			c0,0-11.205,22.939-31.58,34.147c0,0-132.564-47.765-166.727-182.863C114.34,131.028,129.354,96.125,129.354,96.125z"/>
	</g>
	<g>
		<radialGradient id="SVGID_21_" cx="22.5078" cy="256.6055" r="354.8449" gradientUnits="userSpaceOnUse">
			<stop  offset="0" style="stop-color:#B1A5B7"/>
			<stop  offset="1" style="stop-color:#432458"/>
		</radialGradient>
		<path style="fill:url(#SVGID_21_);" d="M405.625,172.669c-7.738-34.084-66.006-51.569-142.184-47.176l0.92,1.145
			c58.002-0.788,101.047,14.101,107.18,41.12c8.816,38.837-61.973,88.014-158.117,109.844
			c-96.143,21.831-181.232,8.044-190.049-30.799c-5.467-24.074,19.672-52.111,62.465-75.152l0.186-0.878
			C28.721,198.639-6.01,234.302,0.863,264.567c10.252,45.153,109.172,61.18,220.941,35.801
			C333.576,274.993,415.875,217.818,405.625,172.669z"/>
		<linearGradient id="SVGID_22_" gradientUnits="userSpaceOnUse" x1="40.874" y1="313.9961" x2="425.3727" y2="169.314">
			<stop  offset="0" style="stop-color:#684F77"/>
			<stop  offset="1" style="stop-color:#2A1439"/>
		</linearGradient>
		<path style="fill:url(#SVGID_22_);" d="M221.816,300.368c-111.771,25.379-210.689,9.353-220.941-35.801
			c-0.258-1.132-0.445-2.268-0.588-3.414c-0.469,4.085-0.305,8.113,0.588,12.041c10.252,45.153,109.17,61.184,220.941,35.805
			c108.918-24.727,189.809-79.646,184.387-124.214C401.205,227.593,323.799,277.215,221.816,300.368z"/>
	</g>
</g>
<g>
	<radialGradient id="SVGID_23_" cx="447.2783" cy="27.8472" r="22.0023" gradientUnits="userSpaceOnUse">
		<stop  offset="0" style="stop-color:#D5D2D8;stop-opacity:0.8"/>
		<stop  offset="0.4236" style="stop-color:#684F77;stop-opacity:0.7"/>
		<stop  offset="0.8046" style="stop-color:#B1A5B7;stop-opacity:0.4"/>
		<stop  offset="1" style="stop-color:#684F77;stop-opacity:0.7"/>
	</radialGradient>
	<path style="fill:url(#SVGID_23_);" d="M456.301,15.811L456.301,15.811c0,0-0.002-0.001-0.002-0.002
		c-0.246-0.332-0.517-0.646-0.805-0.942c-1.212-1.429-3.417-4.076-3.914-5.002c0,0-2.583-3.252-1.878-8.027
		c-6.282,2.66-12.601,14.172-9.389,22.524c0.195,0.545,0.441,1.064,0.732,1.556c0.002,0.004,0.004,0.01,0.006,0.015h0.001
		c1.598,2.692,4.53,4.499,7.888,4.499c5.061,0,9.163-4.103,9.163-9.163C458.104,19.223,457.433,17.335,456.301,15.811z"/>
	<radialGradient id="SVGID_24_" cx="447.2734" cy="27.8477" r="21.9951" gradientUnits="userSpaceOnUse">
		<stop  offset="0.0296" style="stop-color:#FFFFFF"/>
		<stop  offset="0.4236" style="stop-color:#B1A5B7"/>
		<stop  offset="0.8046" style="stop-color:#B1A5B7;stop-opacity:0.2"/>
		<stop  offset="1" style="stop-color:#B1A5B7"/>
	</radialGradient>
	<path style="fill:url(#SVGID_24_);" d="M440.537,13.251c-0.806,2.374-1.213,4.874-1.045,7.275
		C439.404,19.042,439.478,16.415,440.537,13.251z"/>
	<radialGradient id="SVGID_25_" cx="447.2422" cy="27.9155" r="22.0666" gradientUnits="userSpaceOnUse">
		<stop  offset="0.0296" style="stop-color:#FFFFFF"/>
		<stop  offset="0.4236" style="stop-color:#B1A5B7"/>
		<stop  offset="0.8046" style="stop-color:#B1A5B7;stop-opacity:0.2"/>
		<stop  offset="1" style="stop-color:#B1A5B7"/>
	</radialGradient>
	<path style="fill:url(#SVGID_25_);" d="M441.077,11.814c0.01-0.026,0.021-0.052,0.032-0.079
		C441.098,11.762,441.087,11.788,441.077,11.814z"/>
	<radialGradient id="SVGID_26_" cx="447.3203" cy="27.7954" r="21.9608" gradientUnits="userSpaceOnUse">
		<stop  offset="0.0296" style="stop-color:#FFFFFF"/>
		<stop  offset="0.4236" style="stop-color:#B1A5B7"/>
		<stop  offset="0.8046" style="stop-color:#B1A5B7;stop-opacity:0.2"/>
		<stop  offset="1" style="stop-color:#B1A5B7"/>
	</radialGradient>
	<path style="fill:url(#SVGID_26_);" d="M440.758,12.621c0.014-0.035,0.028-0.07,0.041-0.106
		C440.786,12.551,440.771,12.585,440.758,12.621z"/>
	<path style="fill:#181022;" d="M440.799,12.515c0.089-0.236,0.182-0.469,0.278-0.701C440.979,12.049,440.886,12.284,440.799,12.515
		z"/>
	<path style="fill:#181022;" d="M440.537,13.251c0.071-0.21,0.144-0.421,0.221-0.63C440.681,12.833,440.606,13.043,440.537,13.251z"
		/>
	<path style="fill:#181022;" d="M441.749,10.336c-0.236,0.474-0.449,0.94-0.64,1.399c0.197-0.472,0.412-0.937,0.639-1.392
		C441.749,10.342,441.749,10.336,441.749,10.336z"/>
	<path style="opacity:0.6;fill:#684F77;" d="M450.28,7.387c-0.325-0.885-0.604-1.979-0.679-3.235
		c-0.627,0.327-3.802,2.106-4.08,4.832c0,0-0.544,5.279,0.854,10.396C446.375,19.38,448.056,8.613,450.28,7.387z"/>
	<linearGradient id="SVGID_27_" gradientUnits="userSpaceOnUse" x1="439.7881" y1="11.9067" x2="449.7578" y2="20.4806">
		<stop  offset="0.0296" style="stop-color:#B1A5B7"/>
		<stop  offset="1" style="stop-color:#684F77;stop-opacity:0.8"/>
	</linearGradient>
	<path style="fill:url(#SVGID_27_);" d="M457.728,18.699c-0.133-0.325-0.3-0.648-0.488-0.968c-1.567-2.559-4.625-4.791-4.625-4.791
		c6.827,6.981-2.947,8.328-2.947,8.328c-3.915,0.108-5.933-1.808-6.963-4.063c-1.401-3.069-0.968-6.77-0.956-6.861
		c-0.227,0.455-0.441,0.919-0.639,1.392c-0.012,0.026-0.022,0.052-0.032,0.079c-0.097,0.232-0.189,0.465-0.278,0.701
		c-0.013,0.036-0.027,0.071-0.041,0.106c-0.077,0.208-0.149,0.42-0.221,0.63c-1.06,3.164-1.133,5.791-1.045,7.275
		c0.029,0.441,0.076,0.879,0.147,1.312c1.035,0.747,2.06,1.333,3.063,1.788c0.562,0.254,1.113,0.467,1.659,0.645
		c3.041,0.754,5.615,0.724,7.568,0.441c3.062-0.601,5.027-1.92,5.027-1.92c0.236-0.196,0.43-0.4,0.588-0.612
		c0.31-0.444,0.478-0.915,0.531-1.401C458.04,20.06,457.922,19.364,457.728,18.699z"/>
	<path style="fill:#181022;" d="M457.695,18.579c-0.131-0.285-0.285-0.569-0.456-0.848c0.188,0.32,0.355,0.643,0.488,0.968
		C457.716,18.659,457.707,18.618,457.695,18.579z"/>
	<linearGradient id="SVGID_28_" gradientUnits="userSpaceOnUse" x1="457.8379" y1="16.3301" x2="457.5763" y2="5.157">
		<stop  offset="0.0296" style="stop-color:#684F77;stop-opacity:0.7"/>
		<stop  offset="1" style="stop-color:#2A1439"/>
	</linearGradient>
	<path style="fill:url(#SVGID_28_);" d="M457.728,18.699c0.194,0.665,0.313,1.361,0.35,2.08
		C458.152,20.102,458.014,19.398,457.728,18.699z"/>
	<radialGradient id="SVGID_29_" cx="446.7188" cy="21.7456" r="9.0086" gradientUnits="userSpaceOnUse">
		<stop  offset="0.0296" style="stop-color:#FFFFFF"/>
		<stop  offset="1" style="stop-color:#684F77;stop-opacity:0.6"/>
	</radialGradient>
	<path style="opacity:0.7;fill:url(#SVGID_29_);" d="M451.58,9.864c0,0-0.651-0.819-1.211-2.24c-0.489,0.58-2.026,2.798-1.461,7.322
		c0,0,1.397,4.421-2.171,7.603c0,0-1.94,1.396-1.94,4.266c0,0-0.077,2.936,3.026,3.336c0,0,5.042,0,5.818-5.585
		c0,0,0.388-4.599-0.389-6.295c0,0-0.569-1.631-0.444-6.675C452.244,10.87,451.777,10.231,451.58,9.864z"/>
	<linearGradient id="SVGID_30_" gradientUnits="userSpaceOnUse" x1="449.498" y1="16.5518" x2="449.2375" y2="5.4218">
		<stop  offset="0.0296" style="stop-color:#684F77;stop-opacity:0.5"/>
		<stop  offset="1" style="stop-color:#2A1439;stop-opacity:0.8"/>
	</linearGradient>
	<path style="fill:url(#SVGID_30_);" d="M455.903,23.378c1.614-0.738,2.193-1.808,2.153-2.986c-0.025-0.279-0.066-0.552-0.117-0.822
		c-0.605-2.458-3.353-5.165-4.881-6.326c-4.656-3.53-5.165-8.808-5.209-10.37c-0.894,0.619-1.769,1.398-2.597,2.301
		c-4.84,6.803-4.061,17.67-4.061,17.67C447.477,26.204,452.961,24.731,455.903,23.378z"/>
	<path style="opacity:0.4;fill:#432458;" d="M450.055,6.711c0,0-0.05,0.014-0.132,0.063c-0.082,0.048-0.192,0.133-0.317,0.257
		c-0.128,0.123-0.261,0.293-0.403,0.492c-0.131,0.209-0.276,0.445-0.411,0.717c-0.074,0.133-0.142,0.275-0.203,0.427
		c-0.064,0.15-0.131,0.306-0.199,0.466c-0.111,0.331-0.251,0.669-0.359,1.035c-0.111,0.364-0.232,0.736-0.327,1.125
		c-0.101,0.388-0.213,0.777-0.293,1.177c-0.086,0.396-0.188,0.791-0.26,1.185c-0.076,0.394-0.152,0.781-0.224,1.156
		c-0.073,0.375-0.127,0.74-0.191,1.085c-0.059,0.345-0.115,0.672-0.167,0.974c-0.084,0.606-0.174,1.109-0.228,1.463
		c-0.059,0.353-0.093,0.554-0.093,0.554s0.013-0.204,0.035-0.561c0.031-0.357,0.061-0.867,0.118-1.479
		c0.037-0.304,0.077-0.634,0.119-0.984c0.045-0.348,0.078-0.718,0.146-1.096c0.064-0.378,0.132-0.77,0.2-1.167
		c0.069-0.397,0.167-0.796,0.252-1.197c0.083-0.402,0.201-0.796,0.306-1.187c0.096-0.392,0.237-0.767,0.356-1.133
		c0.114-0.368,0.28-0.706,0.409-1.034c0.077-0.16,0.153-0.315,0.226-0.465c0.069-0.15,0.146-0.292,0.229-0.424
		c0.083-0.132,0.147-0.265,0.232-0.379c0.083-0.114,0.162-0.222,0.237-0.324c0.163-0.192,0.313-0.354,0.453-0.469
		c0.137-0.117,0.262-0.188,0.35-0.228C450.005,6.719,450.055,6.711,450.055,6.711z"/>
	<path style="opacity:0.1;fill:#432458;" d="M453.642,24.565c0,0,0.061-0.728,0.085-1.709l-0.004-1.673c0,0-0.064,6.583-4.603,8.369
		c0,0-2.688,1.143-3.703-1.322c0,0-0.972-2.659,0.827-5.221c-0.004,0.001-0.004,0.003-0.006,0.006l-0.413,0.512
		c-0.504,0.707-1.028,1.797-1.028,3.289c0,0-0.077,2.936,3.026,3.336C447.823,30.15,452.865,30.15,453.642,24.565z"/>
	<path style="fill:#FFFFFF;" d="M445.656,28.696c0,0,1.357,0.889,2.937,1.017C448.593,29.713,446.699,30.292,445.656,28.696z"/>
	<linearGradient id="SVGID_31_" gradientUnits="userSpaceOnUse" x1="442.6094" y1="12.3774" x2="452.9778" y2="26.5342">
		<stop  offset="0" style="stop-color:#2A1439"/>
		<stop  offset="1" style="stop-color:#181022;stop-opacity:0.1"/>
	</linearGradient>
	<path style="opacity:0.6;fill:url(#SVGID_31_);" d="M443.148,9.156c0.078,4.577,8.13,17.748,13.637,16.776
		c0,0-0.854,1.747-2.404,2.6c0,0-10.094-3.636-12.694-13.923C442.006,11.814,443.148,9.156,443.148,9.156z"/>
</g>
<g>
	<radialGradient id="SVGID_32_" cx="435.0137" cy="21.376" r="27.0189" gradientUnits="userSpaceOnUse">
		<stop  offset="0" style="stop-color:#B1A5B7"/>
		<stop  offset="1" style="stop-color:#432458"/>
	</radialGradient>
	<path style="fill:url(#SVGID_32_);" d="M464.186,14.984c-0.59-2.595-5.026-3.926-10.825-3.592l0.07,0.087
		c4.415-0.06,7.692,1.074,8.16,3.131c0.671,2.957-4.72,6.701-12.04,8.364c-7.319,1.662-13.8,0.612-14.471-2.346
		c-0.416-1.832,1.498-3.968,4.757-5.722l0.013-0.067c-4.362,2.122-7.008,4.838-6.483,7.142c0.78,3.438,8.313,4.659,16.822,2.726
		C458.701,22.775,464.966,18.422,464.186,14.984z"/>
	<linearGradient id="SVGID_33_" gradientUnits="userSpaceOnUse" x1="436.4131" y1="25.7466" x2="465.6888" y2="14.7305">
		<stop  offset="0" style="stop-color:#684F77"/>
		<stop  offset="1" style="stop-color:#2A1439"/>
	</linearGradient>
	<path style="fill:url(#SVGID_33_);" d="M450.189,24.708c-8.51,1.933-16.043,0.712-16.822-2.726
		c-0.02-0.086-0.034-0.173-0.044-0.259c-0.035,0.31-0.024,0.617,0.044,0.917c0.779,3.438,8.313,4.658,16.822,2.726
		c8.294-1.883,14.454-6.063,14.039-9.458C463.85,19.167,457.955,22.945,450.189,24.708z"/>
</g>
</svg>
