<svg id="Layer_3" xmlns="http://www.w3.org/2000/svg" width="372.225" height="885.911" viewBox="0 0 372.225 885.911">
  <g id="firstRocket">
    <path fill="#6B002C" d="M100.59 480.048l-41.805 46.453-14.112 100.802h-7.039L0 504.093l74.527-130.452z"/>
    <path fill="#EF5C22" d="M100.59 480.048l-41.805 46.453-14.112 100.802h-7.039L0 504.093l74.527-130.452z"/>
    <path fill="#FFAD97" d="M76.537 381.845l-2.01-8.204L0 504.093l37.634 123.21h6.696L6.696 504.093z"/>
    <path fill="#EF5C22" d="M271.634 480.048l41.805 46.453 14.113 100.802h7.038l37.635-123.21-74.527-130.452z"/>
    <path fill="#C63D0E" d="M323.241 530.269l-43.243-49.273 22.63-98.724-4.93-8.631-26.064 106.407 41.805 46.453 14.113 100.802h7.038l1.886-6.175z"/>
    <path fill="#FFAD97" d="M297.698 373.641l-2.709 11.058 72.574 127.033-35.302 115.571h2.329l37.635-123.21z"/>
    <path opacity=".3" d="M74.527 373.641l-41.929 73.394c-1.324 17.029-2.034 34.94-2.034 53.438 0 47.982 4.757 92.073 12.706 126.831h1.403l14.112-100.802 41.805-46.453-26.063-106.408z"/>
    <g>
      <path fill="#E5E5E5" d="M102.019 488.784v361.305s21.163 32.503 61.516 35.822V500.56s-44.73-4.813-61.516-11.776z"/>
      <path fill="#CECECE" d="M269.023 488.784v332.48s-18.452 19.011-55.899 33.116V499.309s27.272.587 55.899-10.525z"/>
      <path fill="#A0A0A0" d="M224.632 498.289v303.427s-18.577 29.711-39.837 29.156v-330.31c0 .001 19.093 4.238 39.837-2.273z"/>
      <path fill="#CECECE" d="M142.455 497.799s33.204 5.739 42.34 2.764v340.305s-28.888 12.719-42.411 7.724l.071-350.793z"/>
    </g>
    <path fill="none" stroke="#3F3F3F" stroke-miterlimit="10" d="M63.478 389.959c0 1.008.491 1.997 1.433 2.964-.298-1.604-.589-3.209-.87-4.819-.368.611-.563 1.229-.563 1.855zM306.966 388.382c-.249 1.422-.508 2.841-.771 4.258.771-.877 1.18-1.771 1.18-2.681 0-.531-.142-1.058-.409-1.577z"/>
    <path fill="#878787" d="M185.426 409.243c-60.977 0-111.499-7.078-120.515-16.32 6.392 34.396 16.862 67.359 30.905 98.361 0 0 43.33 13.549 89.671 13.549s89.752-13.549 89.752-13.549c14.081-31.088 24.57-64.146 30.957-98.645-8.254 9.382-59.175 16.604-120.77 16.604z"/>
    <path fill="#999" d="M185.528 409.243v95.59c46.326-.01 89.711-13.549 89.711-13.549 14.081-31.088 24.57-64.146 30.957-98.645-8.249 9.377-59.119 16.596-120.668 16.604z"/>
    <path fill="#606060" d="M84.094 400.688c-9.713-2.289-16.412-4.925-19.183-7.766 6.392 34.396 16.862 67.359 30.905 98.361 0 0 7.832 2.447 20.392 5.262-13.415-30.64-24.206-62.687-32.114-95.857z"/>
    <path fill="#D1D1D1" d="M291.911 399.701c-8.148 33.174-19.001 65.283-32.329 96.075 9.92-2.353 15.923-4.227 15.923-4.227 14.081-31.086 24.57-64.145 30.957-98.643-2.147 2.441-7.19 4.737-14.551 6.795z"/>
    <path fill="#020202" d="M119.684 91.946l-2.722 10.646s93.553 18.35 137.431-.456l-1.639-10.189h-133.07z"/>
    <path fill="#62B76E" d="M306.966 388.382c-.249 1.422-.508 2.841-.77 4.258-8.254 9.381-59.174 16.604-120.77 16.604-60.977 0-111.499-7.078-120.515-16.32-.298-1.604-.589-3.209-.87-4.819-4.203-24.149-6.4-48.989-6.4-74.341 0-77.736 20.6-150.655 56.627-213.613 1.916 2.7 33.042 4.846 71.157 4.846 39.137 0 70.892-2.262 71.234-5.064 36.104 63.008 56.752 136.006 56.752 213.832.002 25.447-2.21 50.379-6.445 74.617z"/>
    <path fill="#4B9652" d="M75.955 320.171c0-78.243 18.833-152.081 52.2-217.247-8.093-.783-13.149-1.737-13.885-2.774-36.027 62.958-56.627 135.877-56.627 213.613 0 25.352 2.197 50.191 6.4 74.341.28 1.61.572 3.216.87 4.819 2.635 2.702 8.822 5.218 17.775 7.427-4.413-26.071-6.733-52.853-6.733-80.179z"/>
    <g>
      <path opacity=".3" d="M180.689 350.827l-27.728 57.725c9.359.408 19.168.643 29.285.684l-1.557-58.409z"/>
      <path opacity=".3" d="M182.246 409.235c-10.116-.041-19.926-.275-29.285-.684l-24.807 51.643 6.02 39.914c14.752 2.549 32.437 4.668 50.621 4.721l-2.549-95.594z"/>
    </g>
    <path fill="#73C67B" d="M185.677 104.995v304.248c61.483-.02 112.277-7.234 120.52-16.604.262-1.417.521-2.836.77-4.258 4.235-24.238 6.447-49.17 6.447-74.619 0-77.826-20.648-150.824-56.752-213.832-.344 2.798-31.964 5.054-70.985 5.065z"/>
    <path fill="#ACE5B0" d="M256.661 99.931c-.133 1.088-5.011 2.093-13.199 2.916 33.291 65.375 52.071 139.374 52.071 217.768 0 27.099-2.272 53.663-6.583 79.537 8.832-2.238 14.846-4.783 17.247-7.512.262-1.417.521-2.836.77-4.258 4.235-24.238 6.447-49.17 6.447-74.619-.001-77.826-20.649-150.825-56.753-213.832z"/>
    <path fill="#EF5C22" d="M256.367 91.946c.098.169.446.544.543.715-.343 2.802-32.097 5.064-71.234 5.064-38.116 0-69.241-2.146-71.157-4.848.178-.31.355-.622.533-.932l-.25-.202C134.212 58.022 158.048 27.175 185.528 0c27.534 27.229 51.41 58.146 70.839 91.946M190.366 350.827h-9.677l-8.137 123.227 7.36 153.806h10.173l8.419-153.806z"/>
    <g>
      <circle fill="#3F3F3F" cx="185.527" cy="244.04" r="102.541"/>
      <circle fill="#E6FFFF" cx="185.528" cy="244.04" r="94.626"/>
    </g>
    <path fill="#F97A4E" d="M185.677 97.726c39.137 0 70.891-2.263 71.234-5.064-.098-.171-.445-.546-.543-.715-19.43-33.801-43.306-64.718-70.84-91.947v97.726h.149z"/>
    <path fill="#FFAD97" d="M256.911 92.661c-.098-.171-.445-.546-.543-.715-19.43-33.8-43.306-64.717-70.84-91.946 0 0 42.116 50.071 60.464 95.333 6.806-.774 10.798-1.689 10.919-2.672z"/>
    <path fill="#C63D0E" d="M141.915 96.647c8.686-47.697 31.827-81.92 41.144-94.164-26.436 26.569-49.433 56.559-68.255 89.261l.25.202c-.178.31-.355.622-.533.932 1.085 1.532 11.572 2.885 27.394 3.769z"/>
    <path fill="#FFAD97" d="M190.085 627.86l8.419-153.806-8.138-123.227h-4.838V627.86z"/>
    <ellipse fill="#606060" cx="290.214" cy="413.313" rx="6.908" ry="8.275"/>
    <ellipse fill="#606060" cx="253.053" cy="418.904" rx="6.908" ry="8.274"/>
    <ellipse fill="#606060" cx="213.124" cy="423.709" rx="6.908" ry="8.274"/>
    <ellipse fill="#4C4C4C" cx="156.475" cy="423.709" rx="6.909" ry="8.274"/>
    <ellipse fill="#606060" cx="121.065" cy="418.904" rx="6.908" ry="8.274"/>
    <ellipse fill="#606060" cx="87.394" cy="415.435" rx="6.908" ry="8.274"/>
  </g>
</svg>
