<svg id="Layer_3" xmlns="http://www.w3.org/2000/svg" width="489.73" height="723.04" viewBox="0 0 489.73 723.04">
  <g id="firstBaloon">
    <path fill="#E6FFFF" d="M474.73 244.771c0 37.34-9.18 74.359-26.54 107.069l-131.43 218.2h-48.1c-.69-.21-1.42-.32-2.18-.32s-1.49.11-2.18.32h-40.64c-.69-.21-1.42-.32-2.18-.32s-1.49.11-2.18.32h-46.16L41.55 352.47C23.93 318.72 15 282.54 15 244.94 15 118.15 118.11 15 244.86 15s229.87 103.08 229.87 229.771z"/>
    <path fill="#AA8144" d="M304.2 622.22c9.17 3.04 15.78 11.681 15.78 21.86V700c0 12.72-10.32 23.04-23.04 23.04h-30.46V621.57h38.08l-.36.65z"/>
    <path fill="#997336" d="M217.53 621.57h48.95v101.47h-48.95z"/>
    <path fill="#725327" d="M217.53 621.57v101.47h-26.51c-12.72 0-23.04-10.32-23.04-23.04v-55.92c0-10.08 6.48-18.65 15.51-21.771l-.38-.739h34.42z"/>
    <path fill="#62B76E" d="M198.45 621.04H214c-.01-.13-.02-.25-.02-.38v-35.62h-32.71l16.39 32.24c.61 1.21.86 2.5.79 3.76zm30.51 0H259c-.01-.13-.02-.25-.02-.38v-35.62h-30v35.62c0 .13-.01.25-.02.38zm75.6.53H183.11l-19.27-37.92L28.36 359.63C9.54 323.65 0 285.06 0 244.94c0-65.41 25.47-126.91 71.72-173.18C117.97 25.49 179.46 0 244.86 0c65.42 0 126.91 25.46 173.15 71.67 46.25 46.22 71.72 107.69 71.72 173.101 0 39.85-9.82 79.38-28.39 114.289l-.2.351L325.23 585.04h-.11l-20.56 36.53zm-15.48-.53c-.07-1.36.22-2.76.94-4.04l17.99-31.96h-34.03v35.62c0 .13-.01.25-.02.38h15.12zm159.11-269.2c17.36-32.71 26.54-69.729 26.54-107.069C474.73 118.08 371.61 15 244.86 15S15 118.15 15 244.94c0 37.6 8.93 73.779 26.55 107.529l131.59 217.57h46.16c.69-.21 1.42-.32 2.18-.32s1.49.11 2.18.32h40.64c.69-.21 1.42-.32 2.18-.32s1.49.11 2.18.32h48.1L448.19 351.84z"/>
  </g>
</svg>
