<svg id="Layer_3" xmlns="http://www.w3.org/2000/svg" width="1396.634" height="219.914" viewBox="0 0 1396.634 219.914">
  <g id="footballScene">
    <path fill="#83C686" d="M786.862 96.039c55.333 9.586 144.114 15.8 244.211 15.8 167.063 0 302.619-17.311 303.709-38.717-56.493-16.342-134.373-31.409-229.518-31.409-97.441 0-207.368 24.936-318.402 54.326z"/>
    <ellipse fill="#A1E5A7" cx="1105.365" cy="62.914" rx="139.473" ry="17.898"/>
    <ellipse transform="matrix(.9995 -.03 .03 .9995 -2.426 40.8)" opacity=".3" cx="1356.349" cy="101.137" rx="28.528" ry="5.532"/>
    <g>
      <g opacity=".2">
        <g>
          <path d="M772.243 99.463c-5.005 1.986-8.909 5.463-13.393 8.34-4.986 3.199-10.105 6.134-15.281 8.976-1.453.798-1.58 2.781-.506 3.927.044.047.089.095.134.142 2.209 2.357 5.737-1.186 3.535-3.535-.044-.048-.089-.095-.133-.143-.168 1.309-.337 2.618-.506 3.926 4.174-2.292 8.246-4.693 12.345-7.146 5.08-3.039 9.607-7.473 15.134-9.666 2.96-1.174 1.671-6.011-1.329-4.821z"/>
        </g>
      </g>
      <g opacity=".2">
        <g>
          <path d="M770.567 100.509c-2.381.857-4.946.917-7.382 1.566-3.265.869-6.461 1.992-9.68 3.013-6.384 2.025-12.941 3.432-19.437 4.985-5.589 1.336-10.747 5.819-15.381 9.022-2.695 1.863-5.369 3.675-8.331 5.091-2.919 1.396-5.927 2.542-8.735 4.168.202.262.404.523.606.785 2.285-2.018 5.686-2.186 8.567-2.622 3.798-.575 7.48-1.289 11.325-1.613 7.605-.642 14.535-3.954 21.947-5.49.404-.083.513-.737.12-.914-3.998-1.797-8.807.956-12.727 1.908-5.228 1.27-11.308 2.984-16.659 1.865l.12.914c11.177-6.946 25.25-3.807 36.766-9.854.318-.167.334-.701 0-.863-3.351-1.633-7.134-.655-10.582.157-4.622 1.088-9.788 2.343-14.539 1.705.1.245.199.489.299.734 1.771-2.592 5.882-2.785 8.707-3.145 3.568-.454 7.091-1.183 10.667-1.59 7.652-.873 14.757-1.959 21.772-5.38.301-.147.306-.564.101-.785-1.412-1.525-2.622-2.35-4.706-1.783-3.034.825-5.713 2.87-8.195 4.707-2.759 2.042-5.577 4.003-8.27 6.134-2.828 2.237-5.1 5.848-8.408 7.335.251.144.501.288.752.432-.329-6.708 8.114-9.921 10.962-15.189.18-.333-.044-.749-.432-.752-3.646-.035-6.878 4.431-8.999 6.867-3.282 3.771-6.54 9.397-11.429 11.092.211.161.422.321.633.482-.027-4.711 5.456-7.701 7.783-11.329 1.241-1.936.69-4.26-1.75-2.56-2.081 1.45-3.699 3.887-5.46 5.705-2.165 2.234-4.507 4.236-6.92 6.193-1.094.887-2.175 1.772-3.356 2.542-.438.286-3.564 1.962-3.122.438.433-1.491 1.649-3.438 2.826-4.461.487-.424-.223-1.128-.707-.707-1.575 1.37-3.674 4.487-3.217 6.664.042.201.273.388.482.367 3.139-.311 5.444-2.199 7.802-4.136 3.551-2.917 6.832-5.988 9.917-9.4.596-.66 1.169-1.32 1.803-1.943 1.554-1.529 1.422-.29.84.793-.87 1.617-2.427 2.933-3.687 4.241-2.005 2.082-4.25 4.529-4.232 7.592.002.309.321.59.633.482 4.561-1.581 7.209-6.054 10.271-9.497 1.337-1.503 2.619-3.05 4.005-4.51 1.461-1.54 3.577-3.938 5.887-3.916-.144-.251-.288-.501-.432-.752-2.971 5.495-11.447 8.583-11.099 15.694.02.404.403.589.752.432 2.073-.932 3.501-2.62 5.018-4.258 2.255-2.435 5.029-4.378 7.694-6.33 2.394-1.752 4.765-3.564 7.242-5.197 1.292-.851 2.664-1.513 4.098-2.087 1.864-.746 3.027-.067 4.314 1.322.034-.262.067-.523.101-.785-4.007 1.954-8.187 3.314-12.553 4.197-4.084.825-8.27.922-12.387 1.531-3.372.498-6.753.996-10.116 1.546-2.399.393-5.01 1.093-6.448 3.199-.167.244-.013.693.299.734 3.998.538 7.956-.358 11.883-1.029 4.119-.704 8.954-2.903 12.998-.933v-.863c-11.508 6.042-25.562 2.891-36.766 9.854-.346.215-.323.821.12.914 4.429.926 8.419-.154 12.759-1.015 2.671-.53 5.297-1.018 7.915-1.79 2.689-.793 5.684-2.322 8.472-1.069l.12-.914c-3.825.792-7.513 2.05-11.234 3.218-4.333 1.36-8.588 2.084-13.11 2.455-3.484.286-6.818 1.123-10.264 1.628-2.709.397-5.553.808-7.673 2.68-.434.383.124 1.064.606.785 2.55-1.477 5.255-2.604 7.941-3.803 3-1.34 5.683-3.096 8.386-4.947 5.122-3.507 10.533-8.151 16.672-9.619 6.233-1.49 12.508-2.886 18.645-4.795 2.93-.912 5.831-1.905 8.778-2.762 2.721-.791 5.62-.858 8.284-1.818.603-.215.344-1.182-.265-.963z"/>
        </g>
      </g>
    </g>
    <g opacity=".2">
      <g>
        <g>
          <path d="M1271.799 59.243c4.356.385 8.336 2.595 12.542 3.671 4.482 1.148 9.041 1.991 13.606 2.73-.04-.304-.08-.609-.119-.914-4.967 2.91-10.481 4.849-14.346 9.307-1.663 1.919-3.021 4.073-4.795 5.901-2.743 2.827-6.31 2.603-9.958 2.831-7.066.442-14.134.966-21.197.196-3.739-.407-11.154-.726-13.218-4.413-.144.251-.288.501-.432.752.835-.105.996-.22 1.284-.969.231-.603-.735-.861-.965-.266-.014.185-.12.263-.319.234-.367.046-.634.391-.432.752 1.977 3.533 7.787 4.033 11.333 4.535 7.388 1.045 14.704.772 22.127.294 2.888-.187 6.523.221 9.226-.996 2.341-1.055 3.995-2.895 5.532-4.905 2.306-3.017 4.502-5.592 7.767-7.617 2.859-1.774 5.993-3.073 8.896-4.774.345-.202.326-.842-.119-.914-4.57-.741-9.111-1.618-13.606-2.731-4.323-1.071-8.334-3.312-12.808-3.707-.642-.053-.636.947.001 1.003z"/>
        </g>
      </g>
      <g>
        <g>
          <g>
            <path d="M1270.796 55.642c-19.487 1.141-34.376 16.224-48.712 27.816-1.777 1.437-.237 4.249 1.768 4.268 6.537.062 12.997-1.396 18.916-4.153 2.921-1.36.38-5.669-2.523-4.317-5.105 2.377-10.773 3.524-16.393 3.471.589 1.422 1.179 2.845 1.768 4.268 13.146-10.63 27.27-25.303 45.177-26.351 3.203-.19 3.222-5.191-.001-5.002z"/>
          </g>
        </g>
        <g>
          <g>
            <path d="M1236.089 77.7c4.003-.104 8.018 1.147 12.042 1.333 4.391.202 8.786.492 13.182.513 4.599.021 9.196-.25 13.788-.458 1.27-.057 4.096.381 5.177-.253.318-.186 1.218-1.533.962-1.228.77-.917 1.835-1.572 2.849-2.183.464-.279.215-.872-.252-.932-7.271-.926-14.572-1.166-21.895-1.026-7.137.137-14.62 1.158-21.388-1.714v.863c3.581-2.708 7.11-4.968 11.778-4.647 4.965.341 10.165 1.688 15.041 2.679 4.516.917 9.191.858 13.774 1.066 1.877.085 3.656.683 5.515.156 1.839-.521 3.504-1.707 5.251-2.464.479-.208.208-.926-.252-.932-6.494-.074-12.781-1.582-19.128-2.791-2.938-.56-5.885-1.123-8.842-1.575-2.982-.456-6.183-.331-9.013-1.435.04.305.08.609.119.914 7.39-5.143 15.418-3.534 23.052.128 5.497 2.637 11.872 5.39 17.956 3.132.247-.091.438-.338.35-.615-1.726-5.408-8.777.1-11.177 1.979-2.584 2.023-4.879 4.298-6.959 6.837-1.735 2.12-3.231 4.453-5.073 6.48-1.509 1.66-3.951 1.205-5.963 1.389.118.285.235.569.354.854 1.913-2.1 3.97-4.053 6.001-6.036 1.885-1.839 3.515-3.895 5.354-5.764 2.688-2.731 7.047-4.893 8.034-8.884.065-.264-.082-.541-.35-.615-2.313-.637-4.432-1.24-6.643-.032-1.382.755-2.423 2.17-3.468 3.303-1.39 1.505-2.728 3.051-4 4.656-4.286 5.409-7.653 13.655-15.914 12.718.118.285.235.569.354.854 2.365-2.916 5.74-4.784 8.279-7.554 2.805-3.059 5.172-6.511 7.719-9.774 1.374-1.761 4.326-3.737 4.823-6.023.327-1.506-2.171-2.041-3.196-1.786-4.293 1.068-6.979 6.55-9.377 9.834-2.003 2.742-4.389 5.303-6.544 7.935-1.188 1.452-2.455 2.825-3.84 4.091-2.231 2.041-4.751 2.396-7.647 2.223.144.251.288.501.432.752 3.062-4.441 7.169-7.999 10.542-12.186 2.863-3.552 6.873-6.847 8.717-11.086.152-.351-.024-.73-.432-.752-7.279-.394-10.743 6.182-15.167 10.756-1.897 1.962-3.743 3.964-5.746 5.823-1.451 1.348-5.239 5.254-7.523 3.952.061.228.12.456.18.684 2.743-4.499 6.358-8.336 9.753-12.337.414-.488-.289-1.199-.707-.707-3.45 4.066-7.121 7.968-9.909 12.54-.141.231-.054.551.18.684 1.766 1.007 3.805-.286 5.271-1.275 2.584-1.743 4.808-4.051 6.961-6.284 4.657-4.832 9.113-13.246 16.709-12.835-.144-.251-.288-.501-.432-.752-1.021 2.345-2.706 4.186-4.445 6.023-1.675 1.769-3.126 3.633-4.649 5.524-3.254 4.038-7.208 7.436-10.164 11.724-.229.333.083.731.432.752 2.452.146 5.146.04 7.174-1.55 2.539-1.991 4.569-4.467 6.572-6.977 1.581-1.98 3.358-3.833 4.877-5.855 1.551-2.064 2.945-4.236 4.578-6.24.782-.96 1.647-1.861 2.63-2.617.44-.339.934-.59 1.454-.782.401-.148 2.836-.292 2.125 1.101-.546 1.068-1.838 2.159-2.671 3.018-1.01 1.04-1.895 2.195-2.759 3.355-2.293 3.081-4.646 6.182-7.243 9.016-2.337 2.548-5.474 4.181-7.661 6.879-.288.355-.096.803.354.854 5.976.678 9.844-3.366 13.047-7.88 2.238-3.153 4.384-6.252 6.98-9.137 1.373-1.526 2.766-3.42 4.72-4.213 1.539-.625 3.506.134 5.012.548-.116-.205-.232-.41-.35-.615-.948 3.837-5.547 6.178-8.159 8.831-1.71 1.737-3.229 3.655-4.972 5.375-2.021 1.995-4.087 3.936-6.001 6.036-.268.294-.11.896.354.854 2.512-.229 4.705.149 6.67-1.682 3.145-2.93 5.166-7.017 8.279-10.044 1.852-1.8 11.616-10.842 13.258-5.694.116-.205.233-.41.35-.615-7.687 2.852-15.01-2.481-21.948-5.074-6.611-2.471-13.43-2.17-19.298 1.915-.373.259-.293.753.119.914 2.35.917 4.879.923 7.355 1.222 3.528.425 6.999 1.187 10.499 1.788 6.477 1.112 12.78 2.751 19.394 2.827l-.252-.932c-2.305.999-4.456 2.659-7.062 2.548-2.23-.095-4.448-.434-6.69-.515-5.223-.19-10.229-.953-15.362-1.883-4.168-.754-8.685-2.149-12.944-1.667-3.532.399-6.558 2.652-9.301 4.727-.259.195-.388.699 0 .863 6.125 2.6 12.8 2.197 19.305 1.932 8.168-.333 16.37-.088 24.481.945l-.252-.932c-1.125.677-2.12 1.416-3.052 2.339-1.466 1.454-3.435 1.101-5.432 1.188-4.596.2-9.187.442-13.788.458-4.393.015-8.794-.311-13.182-.513-4.034-.187-8.014-1.438-12.042-1.333-.646.018-.648 1.018-.002 1.001z"/>
          </g>
        </g>
      </g>
    </g>
    <ellipse transform="rotate(-10.527 471.802 212.353)" opacity=".3" cx="471.878" cy="212.381" rx="28.528" ry="5.532"/>
    <g>
      <ellipse transform="rotate(173.23 842.303 90.453)" opacity=".2" fill="#0F0F0F" cx="842.282" cy="90.45" rx="16.454" ry="2.339"/>
      <path fill="#EAAA7A" d="M846.147 56.25c-.692 0-1.254.133-1.254.298v2.233c0 .165.562.298 1.254.298s1.253-.133 1.253-.298v-2.233c.001-.164-.561-.298-1.253-.298z"/>
      <path fill="#FFC392" d="M848.904 52.814s.113 4.349-2.131 4.655c-2.245.306-3.391-1.451-3.391-2.745v-2.299l5.522.389z"/>
      <ellipse fill="#303030" cx="846.147" cy="52.425" rx="3.002" ry=".982"/>
      <ellipse fill="#6D6D6D" cx="847.617" cy="51.934" rx="2.565" ry=".491"/>
      <ellipse fill="#3F3F3F" cx="846.266" cy="51.431" rx="2.884" ry=".994"/>
      <path fill="#FFC392" d="M857.358 64.789l-7.246-1.447c-.047-.012-.094-.021-.144-.028l-.066-.014-.001.007c-.051-.006-.101-.016-.153-.016-.811 0-1.469.658-1.469 1.469 0 .761.58 1.378 1.319 1.454l7.159 1.449c.011.002.023.005.035.007l.038.008.001-.004c.078.013.157.024.239.024.812 0 1.47-.658 1.47-1.469.001-.713-.508-1.306-1.182-1.44z"/>
      <ellipse fill="#4C4C4C" cx="847.179" cy="50.437" rx="2.69" ry="1.007"/>
      <path fill="#000B35" d="M842.012 71.001l-.929 5.215 4.813 1.157.876-1.579 5.725 2.229 1.655-4.471-5.247-2.551z"/>
      <ellipse fill="#000B35" cx="854.152" cy="76.216" rx="2.257" ry="2.664"/>
      <path fill="#F26688" d="M851.708 63.199l.004-.002-1.774-3.439-.007.003c-.39-.779-1.188-1.319-2.118-1.319-1.313 0-2.377 1.064-2.377 2.377 0 .363.087.703.233 1.01l-.004.002 1.841 3.563.008-.004c.411.712 1.171 1.196 2.051 1.196 1.313 0 2.377-1.064 2.377-2.378-.001-.361-.088-.702-.234-1.009z"/>
      <circle fill="#FFC392" cx="854.173" cy="76.216" r="1.731"/>
      <circle fill="#FFC392" cx="852.822" cy="85.777" r="1.731"/>
      <circle fill="#F4B382" cx="857.82" cy="66.229" r="2.048"/>
      <ellipse fill="#303030" cx="843.381" cy="53.429" rx=".738" ry="2"/>
      <path fill="#FF738E" d="M841.404 60.114l3.489-1.524 2.507-.148s4.54 1.322 1.504 12.559c0 0-3.097 1.685-6.893 0 .001 0 2.181-7.436-.607-10.887z"/>
      <path fill="#FC90AA" d="M846.54 64.521l.004-.003-1.775-3.438-.007.003c-.39-.779-1.188-1.319-2.119-1.319-1.313 0-2.377 1.064-2.377 2.378 0 .362.087.702.234 1.011l-.005.002 1.841 3.563.008-.004c.411.712 1.17 1.196 2.051 1.196 1.313 0 2.377-1.064 2.377-2.377 0-.365-.087-.704-.232-1.012z"/>
      <path fill="#FFC9A4" d="M846.595 65.312l-1.651-.647c-.047-.012-.094-.021-.144-.028l-.066-.014v.007c-.051-.005-.101-.016-.153-.016-.812 0-1.469.657-1.469 1.469 0 .76.58 1.378 1.32 1.455l1.564.649c.012.002.073.015.073.015s.158.021.24.021c.811 0 1.469-.657 1.469-1.469-.001-.715-.509-1.308-1.183-1.442z"/>
      <circle fill="#FFC392" cx="846.765" cy="66.587" r="2.048"/>
      <path fill="#FFC392" d="M852.492 75.822l-1.402 9.855 3.404.545 1.37-9.723z"/>
      <circle fill="#000B35" cx="843.519" cy="76.843" r="2.436"/>
      <circle fill="#FFC392" cx="843.519" cy="76.843" r="1.731"/>
      <circle fill="#FFC392" cx="841.788" cy="88.166" r="1.731"/>
      <path fill="#0F0F0F" d="M844.485 89.298s.267.938.004 1.152c0 0-2.577 1.529-5.108-.069 0 0-.207-.201.138-1.083h4.966z"/>
      <path fill="#FFC392" d="M841.906 76.216l-1.6 11.137 3.429.336 1.515-10.632z"/>
      <path fill="#510021" d="M844.489 89.42c0 1.373-4.97 1.373-4.97 0 0-1.372 1.112-2.485 2.485-2.485s2.485 1.113 2.485 2.485z"/>
      <path fill="#0F0F0F" d="M858.467 87.331s.162 1.233-.587 1.453-5.36 1.152-7.858-.097c0 0-.665-.5 0-1.116s8.445-.24 8.445-.24z"/>
      <path fill="#510021" d="M850.603 85.609c.982-.295 1.932 1.371 4.096.263 0 0 5 .364 3.497 2.231-.682.824-7.592 1.006-8.001-.05-.332-.524-.184-2.265.408-2.444z"/>
      <path fill="#6B4224" d="M844.742 54.183s.629-.393 1.435-.147M846.634 54.069s.629-.393 1.436-.147"/>
      <circle fill="#6B4224" cx="847.352" cy="54.396" r=".199"/>
      <circle fill="#6B4224" cx="845.307" cy="54.592" r=".199"/>
      <path fill="#6B4224" d="M846.485 54.733s.354 1.221 0 1.391"/>
      <ellipse fill="#6B4224" cx="845.93" cy="56.778" rx=".336" ry=".423"/>
      <circle fill="#0F0F0F" cx="856.958" cy="89.097" r=".405"/>
      <circle fill="#0F0F0F" cx="855.979" cy="89.324" r=".405"/>
      <circle fill="#0F0F0F" cx="854.958" cy="89.493" r=".405"/>
      <circle fill="#0F0F0F" cx="852.02" cy="89.324" r=".405"/>
      <circle fill="#0F0F0F" cx="843.706" cy="91.005" r=".405"/>
      <circle fill="#0F0F0F" cx="841.877" cy="91.19" r=".405"/>
      <circle fill="#0F0F0F" cx="840.057" cy="90.785" r=".405"/>
      <circle fill="#0F0F0F" cx="850.874" cy="89.097" r=".405"/>
    </g>
    <g>
      <path fill="#8FE1E5" d="M974.741 42.338c-1.433.414-2.26 1.911-1.845 3.344.102.356.271.675.491.946.226.277.5.504.809.673l3.098 2.581.006-.007c.672.644 1.653.931 2.611.654 1.435-.414 2.26-1.911 1.846-3.344-.151-.528-.453-.972-.842-1.303v-.001l-.01-.008c-.008-.008-.018-.015-.026-.023L977.361 43c-.111-.109-.231-.205-.359-.292l-.07-.057-.005.005c-.629-.395-1.413-.54-2.186-.318z"/>
      <circle fill="#D8996F" cx="979.151" cy="48.364" r="1.862"/>
      <circle fill="#EAAA7A" cx="981.516" cy="47.783" r="2.701"/>
      <path fill="#B0F8FF" d="M969.798 41.039l2.525-.228 2.979.598s4.19 5.132-2.317 14.56c0 0-5.084 1.961-7.286 0 0 0 5.47-8.902 4.099-14.93z"/>
      <g fill="#D8996F">
        <ellipse transform="rotate(11.35 973.946 41.125)" cx="973.813" cy="41.11" rx="1.519" ry=".476"/>
        <ellipse transform="rotate(11.35 974.406 38.84)" cx="974.273" cy="38.824" rx="1.519" ry=".476"/>
        <path d="M972.2832 40.7646l.4598-2.2863 2.9795.5993-.46 2.2863z"/>
      </g>
      <g>
        <path fill="#EAAA7A" d="M978.787 34.419l-.475 1.608s.763 1.904.406 2.396c-.143.2-.972.147-.972.147s-.464 1.699-.792 1.907c-1.751.701-3.804-.428-3.804-.428-1.372-.843-2.339-1.997-2.089-4.636l2.701-3.324 5.025 2.33z"/>
        <g>
          <path fill="#1C1C1C" d="M970.779 36.177s2.592-.914 2.792-2.374c.145-1.05 2.858-.02 3.755.283 0 0-1.656-2.175-3.627-2.922-1.969-.748-3.109 2.63-2.92 5.013z"/>
          <ellipse transform="rotate(20.265 976.36 32.89)" fill="#262626" cx="976.354" cy="32.953" rx="4.113" ry=".725"/>
          <ellipse transform="rotate(20.265 975.095 31.73)" fill="#353535" cx="975.205" cy="31.719" rx="2.609" ry=".76"/>
          <ellipse transform="rotate(20.265 977.86 32.22)" fill="#515151" cx="977.982" cy="32.31" rx="2.809" ry="1.167"/>
        </g>
        <g>
          <path fill="#1C1C1C" d="M969.994 34.894s2.592-.914 2.792-2.375c.145-1.049 2.858-.02 3.756.283 0 0-1.657-2.175-3.628-2.922-1.969-.748-3.109 2.631-2.92 5.014z"/>
          <ellipse transform="rotate(20.254 975.61 31.685)" fill="#262626" cx="975.569" cy="31.67" rx="4.113" ry=".726"/>
          <ellipse transform="rotate(20.265 974.486 30.484)" fill="#353535" cx="974.42" cy="30.436" rx="2.608" ry=".76"/>
          <ellipse transform="rotate(20.254 977.21 31.036)" fill="#515151" cx="977.196" cy="31.026" rx="2.809" ry="1.167"/>
        </g>
        <path fill="#7C4E2C" d="M977.289 36.177l-1.526-.429.592.429-.18.439M977.39 39.623s-.567.518-1.152 0"/>
        <ellipse fill="#262626" cx="971.354" cy="36.822" rx=".595" ry="1.703"/>
      </g>
      <ellipse opacity=".2" cx="958.557" cy="78.788" rx="18.164" ry="3.207"/>
      <circle fill="#EAAA7A" cx="965.698" cy="47.143" r="1.849"/>
      <g fill="#EAAA7A">
        <circle cx="965.362" cy="63.33" r="2.44"/>
        <circle cx="959.672" cy="74.314" r="2.44"/>
        <path d="M963.146 62.309l-5.651 10.907 4.352 2.198 5.588-10.8z"/>
      </g>
      <path fill="#3A3A3A" d="M969.008 62.757c1.711-2.39 3.978-6.788 3.978-6.788l-7.517.24-2.056 4.029.003.002c-.17.381-.268.801-.268 1.246 0 1.696 1.374 3.07 3.07 3.07.472 0 .913-.115 1.313-.304.006-.001.01 0 .016-.001.098-.023.213-.092.339-.193.488-.316.879-.767 1.122-1.301z"/>
      <g fill="#EAAA7A">
        <path d="M963.85 46.804l-2.527 8.742 3.523.777 2.533-8.421z"/>
        <circle cx="962.111" cy="56.323" r="2.701"/>
      </g>
      <path fill="#CAFDFF" d="M972.498 43.74c0-1.491-1.209-2.701-2.7-2.701-.371 0-.725.075-1.046.21h-.001c-.329.139-.624.34-.871.59l-3.339 2.259.006.008c-.807.467-1.354 1.329-1.354 2.328 0 1.492 1.209 2.701 2.701 2.701.55 0 1.059-.166 1.485-.448v.002l.012-.008c.01-.006.02-.014.029-.021l3.715-2.587c.135-.077.261-.166.38-.264l.074-.052-.004-.006c.556-.495.913-1.208.913-2.011z"/>
      <g fill="#EAAA7A">
        <circle cx="975.831" cy="60.813" r="2.439"/>
        <circle cx="970.14" cy="71.798" r="2.44"/>
        <path d="M973.613 59.792l-5.648 10.907 4.351 2.197 5.586-10.799z"/>
      </g>
      <g fill="#4C4C4C">
        <circle cx="967.968" cy="57.674" r="3.274"/>
        <circle cx="974.942" cy="60.707" r="3.273"/>
        <path d="M969.182 54.634l6.993 3.04-2.406 6.086-7.783-3.489z"/>
      </g>
      <g>
        <path fill="#BCBCBC" d="M966.112 74.531s-1.14 1.005-.106 1.823c0 0 5.909 2.469 9.89 1.836 0 0 1.034-.293.775-1.203-.265-.921-10.559-2.456-10.559-2.456z"/>
        <path fill="#DDD" d="M968.066 71.798s.219 2.497 3.176 1.617c0 0 1.01-.577 1.69.188 0 0 1.524 1.464 2.898 1.812 1.374.346 1.054 2.325-.068 2.251 0 0-5.444.221-9.257-1.832 0 0-.953-.293 0-2.638.953-2.346 1.364-2.796 1.561-1.398z"/>
      </g>
      <g>
        <path fill="#BCBCBC" d="M955.272 73.692s-1.498.256-1.048 1.495c0 0 3.732 5.204 7.451 6.756 0 0 1.034.293 1.292-.616.262-.923-7.695-7.635-7.695-7.635z"/>
        <path fill="#DDD" d="M958.371 72.392s-1.125 2.24 1.854 3.044c0 0 1.163.04 1.34 1.048 0 0 .527 2.046 1.516 3.062.987 1.017-.324 2.533-1.241 1.881 0 0-4.749-2.672-6.915-6.421 0 0-.657-.75 1.385-2.246 2.042-1.495 2.627-1.661 2.061-.368z"/>
      </g>
      <circle fill="#BCBCBC" cx="974.516" cy="78.293" r=".493"/>
      <circle fill="#BCBCBC" cx="973.073" cy="78.294" r=".493"/>
      <circle fill="#BCBCBC" cx="971.636" cy="78.056" r=".493"/>
      <circle fill="#BCBCBC" cx="968.194" cy="77.27" r=".494"/>
      <circle fill="#BCBCBC" cx="966.74" cy="76.776" r=".494"/>
      <circle fill="#BCBCBC" cx="961.058" cy="81.823" r=".493"/>
      <circle fill="#BCBCBC" cx="959.672" cy="80.813" r=".494"/>
      <circle fill="#BCBCBC" cx="958.557" cy="80.056" r=".493"/>
      <circle fill="#BCBCBC" cx="955.544" cy="77.27" r=".493"/>
      <circle fill="#BCBCBC" cx="954.634" cy="75.907" r=".493"/>
    </g>
    <g>
      <path fill="#070707" d="M1040.378 63.263c.073.871-2.134 1.767-4.93 2.001s-5.091.012-5.165-.859c-.072-.871 2.105-2.059 4.901-2.294s5.122.282 5.194 1.152z"/>
      <g fill="#EAAA7A">
        <circle cx="1041.437" cy="72.58" r="2.85"/>
        <circle cx="1048.367" cy="83.746" r="2.849"/>
        <path d="M1043.845 71.055l6.876 11.09-4.766 3.119-7.082-11.443z"/>
      </g>
      <g fill="#C17700">
        <circle cx="1038.907" cy="50.483" r="2.793"/>
        <circle cx="1044.292" cy="52.988" r="2.792"/>
        <path d="M1039.852 47.857l5.421 2.518-1.921 5.241-6.255-3.007z"/>
      </g>
      <g fill="#210028">
        <circle cx="1040.57" cy="72.494" r="3.782"/>
        <path d="M1039.535 64.328l4.114 5.976-6.2 4.197-3.783-6.212s-3.729.102-2.594-4.625c.952-1.796 8.533-.899 8.533-.899l-.07 1.563z"/>
      </g>
      <g>
        <circle fill="#EAAA7A" cx="1031.073" cy="72.485" r="2.85"/>
        <circle fill="#EAAA7A" cx="1018.941" cy="71.651" r="2.85"/>
        <path fill="#EAAA7A" d="M1031.073 75.335l-12.132-.834v-5.7l12.132.835z"/>
        <g>
          <path fill="#262626" d="M1014.63 68.433s-1.507-.827-1.979.587c0 0-.355 7.231 1.846 11.221 0 0 .71.987 1.577.362.879-.635-1.444-12.17-1.444-12.17z"/>
          <path fill="#353535" d="M1018.287 69.46s-2.569 1.192-.499 3.999c0 0 1.003.852.451 1.869 0 0-.972 2.183-.813 3.777.159 1.594-2.066 2.014-2.421.792 0 0-2.326-5.703-1.608-10.546 0 0-.053-1.125 2.807-1.014 2.858.112 3.493.375 2.083 1.123z"/>
        </g>
      </g>
      <g fill="#2E0035">
        <circle cx="1031.575" cy="70.72" r="3.782"/>
        <path d="M1030.808 65.074l-2.41 3.599 6.572 3.704 3.688-8.049c-.001 0-6.279-.753-7.85.746z"/>
      </g>
      <g>
        <path fill="#262626" d="M1047.299 89.431s-.105 1.898 1.529 1.697c0 0 7.391-3.093 10.324-7.192 0 0 .647-1.178-.39-1.747-1.051-.576-11.463 7.242-11.463 7.242z"/>
        <path fill="#353535" d="M1046.582 85.289s2.415 1.998 4.23-1.407c0 0 .374-1.405 1.652-1.34 0 0 2.643-.07 4.16-.989 1.515-.919 2.994 1.104 1.943 2.039 0 0-4.586 5.041-9.764 6.633 0 0-1.1.59-2.352-2.318-1.249-2.91-1.286-3.67.131-2.618z"/>
      </g>
      <path fill="#D88B03" d="M1035.537 46.753l-5.952-.255v5.585s3.316 1.763 1.134 10.177l-.436 2.145s.001-2.215 10.038-1.307c0 0 3.229-14.496-1.807-15.665-3.507-.813-2.977-.68-2.977-.68z"/>
      <ellipse transform="rotate(92.97 1039.133 38.046)" fill="#494949" cx="1039.177" cy="38.047" rx="1.433" ry="3.254"/>
      <circle fill="#EF9F20" cx="1029.585" cy="49.291" r="2.793"/>
      <path fill="#D8996F" d="M1029.14 51.229l1.597.736-1.152-1.769z"/>
      <circle fill="#EAAA7A" cx="1029.585" cy="49.291" r="1.99"/>
      <path fill="#D8996F" d="M1044.293 55.266s2.467.773 2.514.784c.048.011-1.257-1.915-1.257-1.915l-1.257 1.131z"/>
      <circle fill="#EAAA7A" cx="1031.693" cy="49.291" r="2.842"/>
      <circle fill="#D8996F" cx="1044.583" cy="53.276" r="1.989"/>
      <circle fill="#EAAA7A" cx="1047.424" cy="53.276" r="2.842"/>
      <circle fill="#EAEAEF" cx="1057.996" cy="85.1" r="6.037"/>
      <path fill="#353535" d="M1063.33 82.495c-.448-.276-.896-.378-.983-.396-.049-.062-.109-.145-.188-.238-.095-.102-.208-.22-.329-.344-.064-.058-.132-.119-.199-.181-.068-.061-.137-.124-.207-.183-.146-.116-.286-.237-.429-.338-.14-.104-.271-.199-.386-.275-.099-.065-.184-.119-.25-.159-.034-.11-.17-.522-.384-.852-.635-.228-1.321-.353-2.035-.353-.328 0-.648.026-.963.077-.251.18-.545.441-.725.771 0 0 .021.004.057.013-.019.005-.042.013-.07.021-.075.025-.182.057-.308.101-.066.02-.131.053-.201.084-.069.033-.142.067-.218.103-.077.036-.153.077-.229.123-.075.044-.153.09-.23.135-.077.046-.147.101-.221.149-.074.05-.144.1-.211.149-.132.104-.256.198-.354.29-.093.081-.166.154-.221.207-.304-.022-.73.163-1.024.314-.517.724-.874 1.565-1.03 2.476.126.486.351.793.45.913-.001.074-.002.159-.001.255.006.158.01.342.032.539.017.196.052.404.089.612.024.103.044.207.072.307.026.1.052.199.085.292.032.095.06.186.097.269.036.084.067.165.103.235.017.032.031.063.047.092-.089.237-.067.595-.024.892.524.774 1.225 1.419 2.043 1.879.449.028.792-.063.975-.129.084.039.205.096.356.151.151.053.33.113.526.163.096.024.198.046.303.067.104.015.211.036.318.047.105.01.212.024.319.025.105.006.21.007.312.001.102-.001.199-.008.29-.022.093-.012.179-.02.258-.038.065-.013.124-.027.18-.04.136.095.393.243.746.325 1.01-.282 1.914-.818 2.636-1.538.033-.276.055-.627.007-.892.014-.016.027-.033.044-.051.04-.047.081-.105.127-.167.045-.061.095-.128.141-.203.047-.075.103-.15.146-.236.046-.085.099-.169.14-.262.043-.092.089-.184.127-.279.04-.094.078-.189.109-.285.037-.094.063-.19.093-.282.054-.185.091-.359.118-.51.019-.097.028-.181.037-.255.297-.132.527-.449.683-.733.001-.04.003-.08.003-.121-.002-.976-.236-1.898-.649-2.715zm-5.117-1.699c.001.001.001.001 0 0 .001 0 .223-.274 2.14-.385.057.049.129.111.214.183.212.178.497.414.78.65.071.057.14.12.208.177.069.06.137.117.203.173.127.116.248.224.353.314.09.087.165.159.221.214.075 1.412-.114 2.051-.136 2.12-.05.007-.105.016-.165.027-.248.045-.576.113-.901.191-.325.079-.648.167-.889.24-.111.034-.205.066-.272.088l-1.992-1.696c.013-.064.029-.144.042-.235.041-.252.085-.591.121-.931.033-.339.059-.679.069-.935.002-.073.003-.137.004-.195zm-5.193 6.883c-.012-.03-.026-.062-.039-.095-.029-.072-.053-.154-.081-.238-.03-.083-.05-.176-.078-.269-.031-.092-.047-.192-.076-.29-.024-.099-.042-.202-.065-.302-.02-.102-.037-.204-.057-.305-.014-.101-.035-.2-.046-.296-.029-.193-.052-.374-.067-.529-.009-.073-.016-.141-.021-.2.004.006.008.008.008.008.056-.525 1.188-1.658 1.188-1.658.026-1.603.415-2.1.415-2.1-.006 0-.01 0-.014-.001.06-.042.137-.095.223-.157.108-.079.239-.162.374-.257.069-.045.142-.092.215-.14.073-.046.143-.099.219-.143.077-.045.153-.091.227-.137.073-.045.146-.092.22-.129.072-.04.143-.079.208-.115.066-.036.128-.076.188-.103.119-.056.218-.107.288-.141.032-.017.06-.03.077-.041.24.06 1.068.283 1.852.735-.011.06-.024.129-.036.209-.041.253-.085.592-.121.931-.034.34-.059.68-.069.936-.004.081-.004.152-.006.213l-.003-.001-2.246 1.339c-.051-.029-.113-.066-.188-.106-.194-.105-.459-.237-.727-.359-.268-.121-.541-.234-.747-.312-.103-.04-.191-.068-.253-.09-.062-.021-.096-.031-.096-.031s.03.02.087.053c.057.032.136.079.234.131.193.105.457.236.725.358.268.121.54.235.747.313.077.029.144.052.198.071l.597 2.575c-.048.046-.116.109-.192.188-.162.163-.369.387-.568.617-.201.23-.395.467-.532.649-.056.072-.102.136-.138.187-1.262-.418-1.714-.844-1.824-.968zm5.684 2.931s.021.018.058.045c-.041.004-.084.01-.13.016-.078.013-.165.013-.255.018-.091.007-.186.005-.285.004-.098.003-.2-.006-.304-.012-.103-.003-.208-.018-.313-.029-.104-.009-.209-.028-.312-.042-.101-.02-.203-.035-.3-.055-.193-.041-.374-.081-.529-.125-.137-.04-.255-.072-.341-.1.073-.028.114-.05.114-.05-.483-.206-1.228-1.609-1.234-1.623.045-.042.098-.093.158-.154.161-.163.369-.385.568-.616.2-.229.394-.467.531-.649.061-.08.11-.149.147-.202l.001.003 2.63.215c.029.059.069.136.119.224.115.21.278.485.449.755.171.268.351.533.492.727.069.097.133.175.175.231.003.003.005.005.007.009-.107.148-.968 1.284-1.446 1.41zm4.485-4.305c-.038.146-.095.315-.154.494-.063.177-.131.368-.211.552-.036.094-.08.185-.122.275-.041.09-.087.176-.127.26-.042.086-.089.165-.129.241-.039.078-.082.148-.122.212-.041.064-.074.126-.106.178-.007.009-.012.018-.018.027-.007-.03-.015-.059-.023-.084 0 0-.433.456-2.009.725-.002-.002-.002-.003-.003-.005-.033-.062-.078-.152-.136-.257-.116-.209-.278-.485-.449-.754-.172-.268-.353-.533-.494-.726-.052-.073-.1-.135-.139-.185l.041.003.989-2.448c.069-.01.167-.024.279-.045.247-.044.574-.113.901-.19.324-.079.646-.167.888-.241.066-.02.125-.039.178-.056.29.318.978 1.819.978 1.819.015-.005.03-.012.046-.018-.016.066-.035.14-.058.223z"/>
      <g fill="#D8996F">
        <ellipse transform="rotate(24.828 1037.457 45.57)" cx="1037.483" cy="45.57" rx="1.527" ry=".327"/>
        <ellipse transform="rotate(24.828 1036.632 47.292)" cx="1036.683" cy="47.299" rx="1.526" ry=".326"/>
        <path d="M1035.258 46.656l.7996-1.729 2.771 1.2816-.7998 1.729z"/>
      </g>
      <ellipse transform="rotate(-146.776 1039.367 42.432)" fill="#EAAA7A" cx="1039.328" cy="42.431" rx="3.557" ry="4.491"/>
      <ellipse transform="rotate(11.496 1036.126 41.752)" fill="#212121" cx="1036.15" cy="41.759" rx="1.432" ry="3.254"/>
      <ellipse transform="rotate(11.958 1037.966 40.222)" fill="#2D2D2D" cx="1037.921" cy="40.313" rx="1.186" ry="2.693"/>
      <ellipse transform="rotate(75.896 1037.668 38.573)" fill="#3A3A3A" cx="1037.698" cy="38.558" rx="1.433" ry="3.255"/>
      <ellipse transform="rotate(104.91 1040.902 38.645)" fill="#3A3A3A" cx="1040.873" cy="38.647" rx="1.433" ry="4.38"/>
      <ellipse transform="rotate(104.91 1039.722 37.893)" fill="#2D2D2D" cx="1039.709" cy="37.918" rx="1.433" ry="4.38"/>
      <ellipse transform="rotate(104.916 1040.527 36.68)" fill="#2D2D2D" cx="1040.522" cy="36.68" rx=".945" ry="3.695"/>
      <path fill="#5B3B24" d="M1039.329 42.055s.676.274 1.192.377c.516.103-.596.392-.596.392l.067-.257-.663-.512zM1041.341 42.823l.914.288-.555.45v-.369zM1040.658 43.561l-.454 1.698s-.161.224-.674 0"/>
      <ellipse fill="#5B3B24" cx="1037.987" cy="45.462" rx=".89" ry=".502"/>
      <circle fill="#262626" cx="1014.014" cy="79.22" r=".437"/>
      <circle fill="#262626" cx="1013.464" cy="77.882" r=".437"/>
      <circle fill="#262626" cx="1013.066" cy="76.554" r=".438"/>
      <circle fill="#262626" cx="1012.59" cy="72.505" r=".437"/>
      <circle fill="#262626" cx="1012.59" cy="70.72" r=".437"/>
      <ellipse fill="#262626" cx="1050.179" cy="90.508" rx=".542" ry=".516"/>
      <ellipse fill="#262626" cx="1052.22" cy="89.604" rx=".542" ry=".516"/>
      <ellipse transform="rotate(178.854 1031.098 92.045)" opacity=".2" fill="#262626" cx="1031.102" cy="92.043" rx="25.646" ry="2.389"/>
    </g>
    <g>
      <path fill="#D8996F" d="M1105.013 57.443l-4.023 2.909-3.287-4.207 3.731-3.241z"/>
      <g fill="#3F3F3F">
        <circle cx="1103.638" cy="59.776" r="2.709"/>
        <path d="M1105.448 57.762l3.824 4.083-4.668 3.72-3.353-4.506z"/>
      </g>
      <circle fill="#EAAA7A" cx="1116.943" cy="55.667" r="2.175"/>
      <path d="M1105.764 60.368s-1.506.898.955 1.959c2.459 1.062 6.565 2.192 6.966.747.401-1.446-5.704-3.854-7.921-2.706z"/>
      <path fill="#D8996F" d="M1113.107 63.682s2.676-4.194 2.375-6.13c-.302-1.937-7.712 1.696-7.712 1.696l-1.308 2.614 6.645 1.82z"/>
      <g fill="#FF9292">
        <circle cx="1114.131" cy="50.811" r="2.194"/>
        <circle cx="1116.833" cy="54.371" r="2.194"/>
        <path d="M1112.354 52.093l2.967 3.866 3.271-2.899-2.811-3.696z"/>
      </g>
      <circle fill="#D8996F" cx="1099.657" cy="54.634" r="2.474"/>
      <path fill="#EAAA7A" d="M1106.463 39.911s.005 7.617 4.63 7.419c0 0 2.023-.046 2.592-1.309l-1.325-3.667-2.589-3.781-3.308 1.338z"/>
      <ellipse transform="rotate(-15.368 1109.18 38.817)" fill="#494949" cx="1109.2" cy="38.807" rx="4.366" ry="1.786"/>
      <ellipse transform="rotate(-8.66 1110.157 40.704)" fill="#494949" cx="1110.301" cy="40.737" rx="1.428" ry="2.22"/>
      <path fill="#F76161" d="M1114.063 48.416s6.727 2.542-.378 14.658c0 0-2.544-2.942-7.921-2.706 0 0 5.026-4.217 3.275-11.852 0 0 2.514-.5 5.024-.1z"/>
      <ellipse transform="rotate(-8.66 1112.815 41.59)" fill="#494949" cx="1113.031" cy="41.73" rx="1.784" ry="3.687"/>
      <g fill="#EAAA7A">
        <ellipse cx="1112.101" cy="48.416" rx="1.961" ry=".298"/>
        <ellipse cx="1111.233" cy="46.654" rx="1.961" ry=".298"/>
        <path d="M1113.194 46.654s.743.616.868 1.762h-3.923s-.001-.744-.867-1.762h3.922z"/>
      </g>
      <ellipse transform="rotate(-8.66 1112.704 43.606)" fill="#494949" cx="1112.492" cy="43.653" rx="2.067" ry="2.714"/>
      <ellipse transform="rotate(-8.66 1108.544 37.276)" fill="#494949" cx="1108.352" cy="37.432" rx="2.614" ry=".941"/>
      <circle fill="#EAAA7A" cx="1103.331" cy="53.503" r="1.999"/>
      <circle fill="#EAAA7A" cx="1104.816" cy="50.71" r="1.998"/>
      <circle fill="#EAAA7A" cx="1105.329" cy="49.457" r="2.175"/>
      <path fill="#EAAA7A" d="M1102.93 50.066l-1.333 2.458 3.416 1.868 1.66-3.088z"/>
      <g fill="#EA5353">
        <circle cx="1109.04" cy="50.71" r="2.194"/>
        <circle cx="1105.012" cy="52.649" r="2.194"/>
        <path d="M1108.136 48.713l-4.379 2.138 2.189 3.783 4.182-2.019z"/>
      </g>
      <ellipse transform="rotate(-11.45 1102.386 71.037)" fill="#EAAA7A" cx="1102.131" cy="71.152" rx="2.472" ry="2.507"/>
      <path fill="#EAAA7A" d="M1104.486 70.332c1.89.842 2.719 5.549 3.28 11.131.124 1.231-2.737 2.471-3.877 1.989.249-4.299-3.952-11.16-3.952-11.16s3.313-1.897 4.549-1.96z"/>
      <path fill="#494949" d="M1107.204 60.38s5.954.424 6.075 3.024c.087 1.884-5.066 5.017-5.066 5.017l-3.995-4.253 2.986-3.788z"/>
      <path fill="#EAAA7A" d="M1103.895 64.758l-3.759 4.916 4.646 1.475 2.609-2.413z"/>
      <path fill="#494949" d="M1109.459 65.951c0 2.271-2.196 3.23-2.911 2.91-1.218-.546-2.413-1.284-2.91-2.91-.468-1.538 1.304-2.91 2.91-2.91s2.911 1.303 2.911 2.91z"/>
      <path fill="#4C4C4C" d="M1099.121 86.153s-.655.563.205.922c0 0 6.771 1.939 10.166-.313 0 0 .256-.751-.428-.767-.683-.014-9.943.158-9.943.158z"/>
      <path fill="#3A3A3A" d="M1103.89 83.452s-1.146.365-3.304.865c-.606.141-1.897.664-1.398 2.062 0 0 6.582 1.721 9.852 0 0 0 .313-3.837-1.272-4.916-.001 0-.975 2.16-3.878 1.989z"/>
      <g>
        <path fill="#4C4C4C" d="M1088.059 65.841s-.809.14-.283.853c0 0 4.576 4.889 8.443 4.71 0 0 .575-.488.026-.834-.549-.348-8.186-4.729-8.186-4.729z"/>
        <path fill="#3A3A3A" d="M1093.267 65.967s-1.113-.263-3.115-.907c-.563-.182-1.874-.386-2.149.998 0 0 4.528 4.619 8.035 4.812 0 0 2.129-2.978 1.363-4.631-.001-.001-1.848 1.284-4.134-.272z"/>
      </g>
      <path fill="#D8996F" d="M1097.207 54.31l-3.555 12.02s1.633 2.839 3.531.762c3.881-7.467 2.952-9.329 2.952-9.329l-2.928-3.453z"/>
      <ellipse fill="#4C4C4C" cx="1088.214" cy="67.135" rx=".486" ry=".457"/>
      <ellipse fill="#4C4C4C" cx="1089.187" cy="68.049" rx=".486" ry=".457"/>
      <ellipse fill="#4C4C4C" cx="1090.159" cy="68.921" rx=".486" ry=".458"/>
      <ellipse fill="#4C4C4C" cx="1093.166" cy="70.95" rx=".486" ry=".458"/>
      <ellipse fill="#4C4C4C" cx="1094.558" cy="71.408" rx=".486" ry=".457"/>
      <ellipse fill="#4C4C4C" cx="1100.232" cy="87.299" rx=".453" ry=".377"/>
      <ellipse fill="#4C4C4C" cx="1101.25" cy="87.676" rx=".453" ry=".378"/>
      <ellipse fill="#4C4C4C" cx="1102.584" cy="87.676" rx=".453" ry=".378"/>
      <ellipse fill="#4C4C4C" cx="1106.963" cy="87.852" rx=".453" ry=".378"/>
      <ellipse fill="#4C4C4C" cx="1108.296" cy="87.475" rx=".453" ry=".377"/>
      <path fill="#9E6944" d="M1106.814 42.826l1.029.117-.9.401zM1107.813 45.456l.185.281.635-.562z"/>
      <ellipse opacity=".2" cx="1091.33" cy="89.686" rx="16.174" ry="1.457"/>
    </g>
    <g>
      <path fill="#CE9167" d="M1183.498 39.591l1.316-2.901 6.524 1.451-.864 1.941c.001 0-3.289 2.268-6.976-.491z"/>
      <path d="M1182.677 39.472s-.331.452.33 1.016 6.439 1.333 7.468.275c1.029-1.057-7.352-1.992-7.798-1.291z"/>
      <path fill="#EAAA7A" d="M1181.035 45.111s-.602 1.942-1.136 2.362c-1.287.603-4.984 12.075-4.984 12.075-.034.151.433 2.267 1.588 2.267.979 0 1.796-.676 2.021-1.584h.005s3.084-7.728 5.571-10.689c.712-.444 1.765-3.22 1.765-3.22l-4.83-1.211z"/>
      <path fill="#494949" d="M1183.498 39.591s2.93 1.44 6.316.651l-3.746 6.894-5.873-1.513 3.303-6.032z"/>
      <ellipse transform="rotate(12.5 1183.067 46.486)" fill="#494949" cx="1183.121" cy="46.401" rx="3.045" ry="1.136"/>
      <g>
        <path fill="#5B5B5B" d="M1173.204 61.017s-.895.595-.532.915c1.073.951 3.109 3.284 6.176 3.617 0 0 4.412.764 3.106-.901-1.308-1.665-2.8 1.367-8.75-3.631z"/>
        <path fill="#494949" d="M1175.287 58.417s-.112.87 1.034 2.033c.929 1.24 2.311.33 2.22-.271-.046-.403 1.104 3.107 1.104 3.107s2.104-.545 2.337 1.558h-2.882s-2.006.174-5.819-3.638c-.001-.001-.189-1.517 2.006-2.789z"/>
      </g>
      <path fill="#3F3F3F" d="M1190.475 40.082v.681l3.74 2.601-2.876 3.772-4.27-1.842 2.745-5.051z"/>
      <ellipse transform="rotate(-51.745 1192.73 45.217)" fill="#3F3F3F" cx="1192.776" cy="45.227" rx="2.372" ry=".825"/>
      <ellipse transform="rotate(-51.764 1192.556 45.1)" fill="#EAAA7A" cx="1192.609" cy="45.111" rx="2.127" ry=".741"/>
      <circle fill="#EAAA7A" cx="1195.827" cy="47.159" r="2.1"/>
      <circle fill="#EAAA7A" cx="1191.861" cy="57.146" r="1.866"/>
      <path fill="#EAAA7A" d="M1193.926 43.44l2.974 1.916.956 2.336-4.292 10.214-3.233-1.824s1.982-7.097 3.396-8.013l-2.434-1.289 2.633-3.34z"/>
      <g>
        <path fill="#707070" d="M1188.604 59.212s-1.014.893-.096 1.62c0 0 5.252 2.194 8.791 1.632 0 0 .918-.261.688-1.068-.234-.821-9.383-2.184-9.383-2.184z"/>
        <path fill="#4C4C4C" d="M1190.34 56.783s-.01 1.398 1.731 1.633c0 0 .867 0 1.655-.324 0 0 2.294 1.595 3.515 1.903 1.221.308.937 2.067-.061 2.001 0 0-4.839.196-8.228-1.628 0 0-.847-.26 0-2.345.849-2.083 1.214-2.483 1.388-1.24z"/>
      </g>
      <g>
        <path fill="#CE9167" d="M1197.804 31.315l1.101.905 7.438-.761.421 2.267s-6.746 1.577-8.355 1.361c-.868-.117-2.931-1.922-2.931-1.922l2.326-1.85z"/>
        <g fill="#494949">
          <circle cx="1193.767" cy="30.4" r="1.71"/>
          <circle cx="1196.354" cy="32.221" r="1.71"/>
          <path d="M1194.545 28.88l2.747 1.914-1.926 2.822-2.697-1.907z"/>
        </g>
        <ellipse fill="#E2A074" cx="1206.763" cy="31.779" rx="2.117" ry="1.935"/>
      </g>
      <ellipse transform="rotate(6.142 1190.21 27.844)" fill="#CE9167" cx="1190.274" cy="27.846" rx="1.645" ry=".291"/>
      <path fill="#CE9167" d="M1188.639 27.67s.299-.21.259-1.123l2.083.166s.059.598-.15 1.087c-.208.49-2.192-.13-2.192-.13z"/>
      <path fill="#E2A074" d="M1194.215 35.509l3.67-.508-1.472-2.546-1.307-.146z"/>
      <path fill="#232323" d="M1186.336 28.991c-1.484 2.084.293 4.403-3.659 10.481.649-.54 3.01 2.299 7.798 1.292 0 0 5.353-8.935 3.433-12.172-1.131-.608-5.972-1.847-7.572.399z"/>
      <g>
        <path fill="#EAAA7A" d="M1186.969 23.227s-.058 3.5 3.216 3.784c2.704.234 3.351-3.502 3.351-3.502l-.378-2.801-3.805-.973-2.425 1.463c0 .001-.467 1.281.041 2.029z"/>
        <path fill="#494949" d="M1186.889 22.814c0-1.844 1.451-2.374 3.238-2.374 1.789 0 3.24.53 3.24 2.374 0 .354.266.375.168.694.435-.6.372-1.013.372-1.807 0-1.519-1.061-3.763-2.47-3.097-.412.195-.739.391-1.254.392-2.057 0-3.724.679-3.724 2.706 0 .674.188.983.509 1.525-.05-.236-.079-.16-.079-.413z"/>
        <path fill="#494949" d="M1186.928 18.629c.533.536 1.354.948 2.314 1.093.963.146 1.868-.005 2.536-.36-.534-.537-1.354-.949-2.315-1.094-.963-.144-1.867.006-2.535.361z"/>
        <path fill="#494949" d="M1185.803 18.475c.93-.325 2.203-.536 3.361-.228 1.163.295 1.927.91 2.482 1.447-.037-.704-.666-1.806-2.064-2.236-1.385-.453-2.985.103-3.779 1.017z"/>
        <path fill="#494949" d="M1185.802 19.729c.767.409 1.85.634 3.041.567 1.188-.066 2.241-.41 2.96-.901-.769-.409-1.853-.634-3.041-.567-1.191.067-2.241.41-2.96.901z"/>
        <path fill="#494949" d="M1187.366 21.511c.611.131 1.404.072 2.214-.21.808-.282 1.465-.729 1.864-1.213-.614-.131-1.407-.071-2.215.21-.808.283-1.466.73-1.863 1.213z"/>
      </g>
      <ellipse fill="#E2A074" cx="1198.415" cy="33.104" rx="2.117" ry="1.935"/>
      <g fill="#EAAA7A">
        <circle cx="1194.052" cy="33.734" r="1.775"/>
        <path d="M1192.937 30.902l2.169 1.407-1.881 2.995-2.159-1.57z"/>
      </g>
      <g fill="#161616">
        <circle cx="1188.546" cy="29.983" r="1.845"/>
        <circle cx="1191.338" cy="31.948" r="1.846"/>
        <path d="M1189.386 28.341l2.966 2.066-2.081 3.048-2.912-2.06z"/>
      </g>
      <path fill="#825537" d="M1187.979 23.216s.728-.437 1.703-.083c0 0-.291.398-.727.375 0 0 .04-.199.187-.256.145-.056-.955.068-1.163-.036zM1190.487 23.216s.727-.437 1.703-.083c0 0-.291.398-.728.375 0 0 .042-.199.187-.256.146-.056-.955.068-1.162-.036z"/>
      <ellipse fill="#825537" cx="1190.103" cy="24.66" rx=".289" ry=".052"/>
      <ellipse fill="#825537" cx="1190.755" cy="25.972" rx=".653" ry=".575"/>
      <circle fill="#5B5B5B" cx="1180.754" cy="65.723" r=".467"/>
      <circle fill="#5B5B5B" cx="1179.119" cy="65.724" r=".467"/>
      <ellipse opacity=".2" fill="#494949" cx="1180.299" cy="66.401" rx="14.681" ry="1.349"/>
      <circle fill="#5B5B5B" cx="1177.39" cy="65.256" r=".466"/>
      <circle fill="#5B5B5B" cx="1174.447" cy="63.621" r=".466"/>
      <circle fill="#5B5B5B" cx="1173.277" cy="62.688" r=".466"/>
      <circle fill="#707070" cx="1188.75" cy="61.031" r=".466"/>
      <circle fill="#707070" cx="1190.247" cy="61.484" r=".467"/>
      <circle fill="#707070" cx="1194.093" cy="62.417" r=".466"/>
      <circle fill="#707070" cx="1195.408" cy="62.556" r=".466"/>
      <circle fill="#707070" cx="1196.76" cy="62.57" r=".467"/>
    </g>
    <g>
      <g fill="#AFAFAF">
        <path d="M789.207 95.534V50.278h-.046c-.216-1.185-1.249-2.084-2.496-2.084-1.247 0-2.28.899-2.496 2.084h-.045v46.369M760.451 68.921c-.216-1.185-1.249-2.083-2.496-2.083-1.248 0-2.28.899-2.496 2.083h-.046v49.191h.046c-.027.149-.046.302-.046.458 0 1.404 1.138 2.542 2.542 2.542s2.542-1.139 2.542-2.542c0-.157-.019-.309-.046-.458h.046V68.921h-.046z"/>
        <path d="M756.395 67.383l29.052-18.858 3.793 3.593-28.743 18.68z"/>
      </g>
      <g>
        <path fill="#AFAFAF" d="M786.103 50.915c-4.298-.991-8.768 1.109-12.886 2.083-3.061.724-6.358.846-9.485 1.124-3.203.285-6.413.476-9.626.584-.514.018-.516.817 0 .8 5.939-.2 11.859-.722 17.757-1.45 4.624-.57 9.286-3.462 14.028-2.37.502.114.714-.656.212-.771z"/>
      </g>
      <g>
        <path fill="#AFAFAF" d="M758.272 67.571c-2.001.095-3.791.839-5.669 1.467-2.256.756-4.648 1.056-6.996 1.378-5.161.71-10.213.959-15.421.96-.515 0-.515.799 0 .799 4.763 0 9.497-.06 14.212-.787 2.381-.367 4.763-.63 7.109-1.204 2.288-.561 4.378-1.7 6.766-1.814.512-.025.515-.824-.001-.799z"/>
      </g>
      <g>
        <path fill="#AFAFAF" d="M730.022 71.755c-1.104 1.436-1.469 3.346-1.864 5.071-.552 2.406-1.166 4.795-1.772 7.188-1.528 6.041-3.383 11.866-6.442 17.324-2.827 5.047-6.312 9.703-9.992 14.153-1.781 2.154-3.631 4.251-5.494 6.334-.936 1.045-1.879 2.085-2.823 3.124-.563.619-1.326 1.099-1.755 1.831-.091.155-.064.357.063.484l.062.062c.363.367.928-.198.565-.565.498.503 9.483-10.141 10.392-11.241 3.582-4.332 6.876-8.898 9.672-13.778 2.775-4.843 4.55-10.057 5.984-15.431.694-2.598 1.356-5.21 1.984-7.824.504-2.104.755-4.567 2.109-6.328.315-.409-.38-.806-.689-.404z"/>
      </g>
      <g>
        <path fill="#AFAFAF" d="M753.719 55.362c-.721 1.984-.68 4.147-.818 6.228-.186 2.806-1.039 5.602-1.847 8.283-1.654 5.495-4.221 10.61-6.646 15.791-4.775 10.207-9.889 21.163-18.854 28.414-.401.324.168.886.564.565 8.834-7.145 13.975-17.901 18.69-27.958 2.36-5.032 4.825-9.996 6.595-15.275.928-2.77 1.766-5.669 2.173-8.565.342-2.42.065-4.938.913-7.269.178-.488-.594-.695-.77-.214z"/>
      </g>
      <g>
        <path fill="#AFAFAF" d="M753.541 55.304c-5.188 2.438-8.789 7.171-13.596 10.198-3.544 2.231-8.274 3.661-10.647 7.341-.28.435.412.835.69.404 2.414-3.744 7.645-5.322 11.268-7.629 4.506-2.868 7.789-7.321 12.688-9.623.466-.221.06-.909-.403-.691z"/>
      </g>
      <g>
        <path fill="#AFAFAF" d="M775.381 55.807c-6.844 2.373-13.962 2.349-21.095 1.797-.585-.045-6.542-.438-4.994 1.226.352.378.916-.188.564-.565.36.387 2.955.088 3.741.118 2.268.086 4.525.322 6.795.376 5.135.123 10.339-.496 15.201-2.182.485-.167.276-.939-.212-.77z"/>
      </g>
      <g>
        <path fill="#AFAFAF" d="M769.326 60.504c-5.159.273-10.219 1.567-15.362.496-1.647-.343-3.29-.754-4.959-.972-.808-.106-1.925-.353-2.612.231-.393.334.175.897.565.565.769-.654 3.25.206 4.097.375 1.522.304 3.031.678 4.564.928 4.505.733 9.207-.586 13.707-.824.513-.027.515-.826 0-.799z"/>
      </g>
      <g>
        <path fill="#AFAFAF" d="M766.97 62.678c-4.502-.094-8.902 1.17-13.409.906-4.212-.247-8.46.218-12.609.92-.507.086-.292.856.212.771 4.353-.736 8.737-1.106 13.15-.848 4.235.249 8.414-1.038 12.656-.95.516.012.514-.789 0-.799z"/>
      </g>
      <g>
        <path fill="#AFAFAF" d="M764.615 64.853c-6.324.492-12.614 1.152-18.95 1.514-2.381.137-4.766.289-7.132.598-.819.107-2.587.133-3.076.985-.256.448.434.851.69.404.494-.861 3.92-.771 4.746-.849 2.11-.197 4.228-.312 6.343-.426 5.812-.316 11.578-.976 17.378-1.427.511-.04.515-.839.001-.799z"/>
      </g>
      <g>
        <path fill="#AFAFAF" d="M737.509 67.223c-3.062.429-4.431 3.819-5.306 6.384-1.25 3.671-1.649 7.544-2.564 11.296-1.546 6.344-4.622 12.606-7.618 18.373-2.989 5.751-6.05 12.094-10.602 16.781-.359.369.206.936.565.565 4.001-4.12 6.518-9.368 9.307-14.321 3.295-5.851 5.997-12.03 8.212-18.366 1.225-3.501 1.704-7.13 2.535-10.734.707-3.065 1.871-8.673 5.682-9.207.51-.072.292-.842-.211-.771z"/>
      </g>
      <g>
        <path fill="#AFAFAF" d="M700.393 127.61c1.165-.22 2.23-1.355 3.107-2.09 1.943-1.63 4.315-2.76 6.578-3.879 5.226-2.584 10.678-4.638 16.046-6.897.467-.197.262-.97-.213-.771-4.748 1.998-9.573 3.811-14.229 6.021-2.442 1.159-4.846 2.36-7.157 3.768-1.411.858-2.699 2.768-4.344 3.078-.507.096-.292.866.212.77z"/>
      </g>
      <g>
        <path fill="#AFAFAF" d="M741.038 65.27c-2.871 2.074-4.205 5.474-5.205 8.75-1.199 3.923-1.877 7.993-2.984 11.944-1.616 5.764-3.808 11.35-6.184 16.837-2.219 5.123-4.474 10.287-8.178 14.537-.337.387.226.954.565.565 3.278-3.761 5.41-8.185 7.426-12.706 2.265-5.078 4.355-10.229 6.078-15.518 1.326-4.073 2.242-8.21 3.229-12.37.947-3.988 2.148-8.816 5.655-11.351.414-.296.016-.991-.402-.688z"/>
      </g>
      <g>
        <path fill="#AFAFAF" d="M747.199 60.559c-1.172.605-1.786 1.988-2.339 3.113-.862 1.755-1.599 3.578-2.234 5.426-1.953 5.68-3.875 11.22-6.269 16.742-2.198 5.072-4.471 10.119-6.44 15.286-1.882 4.938-3.216 9.931-6.719 14.038-.332.39.23.958.565.565 2.84-3.331 4.392-7.195 5.813-11.282 1.909-5.484 4.244-10.799 6.563-16.119 2.12-4.863 4.291-9.706 5.897-14.767.778-2.453 1.5-4.92 2.531-7.28.683-1.562 1.418-4.196 3.033-5.032.46-.238.056-.927-.401-.69z"/>
      </g>
      <g>
        <path fill="#AFAFAF" d="M749.371 58.261c-.425 2.778-1.557 5.351-2.358 8.029-.915 3.057-1.16 6.283-1.982 9.367-1.646 6.167-5.412 11.778-8.542 17.266-2.177 3.818-3.911 7.701-5.583 11.752-1.578 3.823-3.486 8.859-7.446 10.789-.463.226-.059.915.403.69 3.558-1.734 5.43-5.835 6.957-9.258 1.956-4.384 3.651-8.749 6.008-12.951 3.061-5.456 6.295-10.752 8.513-16.627 1.136-3.009 1.417-6.296 2.091-9.423.691-3.208 2.212-6.164 2.71-9.422.076-.504-.693-.721-.771-.212z"/>
      </g>
      <g>
        <path fill="#AFAFAF" d="M771.213 53.27c-4.292 1.38-7.523 4.684-11.063 7.318-4.239 3.155-8.367 6.281-12.309 9.818-.384.345.183.908.565.565 3.713-3.333 7.528-6.517 11.649-9.337 3.766-2.579 6.917-6.162 11.369-7.594.49-.157.281-.928-.211-.77z"/>
      </g>
      <g>
        <path fill="#AFAFAF" d="M759.461 55.366c-1.805-1.791-6.246 5.145-7.101 6.224-2.032 2.57-5.12 3.948-7.933 5.479-1.234.672-2.377 1.431-3.503 2.268-.627.467-2.117 2.049-2.947 2.04-.516-.006-.515.793 0 .799 1.405.016 3.358-2.168 4.43-2.939 2.449-1.762 5.31-2.868 7.802-4.572 1.677-1.146 2.807-2.626 4.041-4.197.371-.471 3.961-5.215 4.646-4.535.366.362.931-.204.565-.567z"/>
      </g>
      <g>
        <path fill="#AFAFAF" d="M728.656 78.763c2.107-2.109 4.8-3.339 7.473-4.568 2.343-1.078 4.451-2.394 6.68-3.661 3.34-1.898 8.379-2.908 10.554-6.347.276-.438-.415-.838-.69-.404-1.144 1.808-3.413 2.768-5.271 3.663-2.034.979-4.164 1.806-6.061 3.044-4.265 2.783-9.591 4.045-13.251 7.709-.364.364.202.929.566.564z"/>
      </g>
      <g>
        <path fill="#AFAFAF" d="M727.45 83.938c2.638-3.617 8.072-4.336 11.829-6.357 2.443-1.315 4.958-2.64 7.265-4.183 2.274-1.521 3.338-4.074 6.036-5.042.481-.172.274-.944-.212-.77-2.217.794-3.389 2.365-4.95 4.03-2.217 2.365-5.778 3.66-8.543 5.274-3.886 2.27-9.304 2.789-12.115 6.644-.305.417.389.815.69.404z"/>
      </g>
      <g>
        <path fill="#AFAFAF" d="M726.119 88.367c3.311-3.133 7.979-4.334 11.989-6.323 4.344-2.155 8.564-4.7 12.293-7.811.396-.331-.173-.893-.565-.565-3.856 3.215-8.247 5.759-12.734 7.984-3.906 1.938-8.312 3.088-11.548 6.149-.374.356.191.92.565.566z"/>
      </g>
      <g>
        <path fill="#AFAFAF" d="M725.676 91.329c3.469-2.629 7.834-3.32 11.842-4.768 4.038-1.459 7.107-4.312 10.627-6.648.428-.283.028-.976-.402-.69-3.671 2.436-6.796 5.251-11.008 6.773-3.909 1.413-8.074 2.075-11.462 4.643-.406.307-.008 1.001.403.69z"/>
      </g>
      <g>
        <path fill="#AFAFAF" d="M724.188 95.354c1.47-2.842 5.869-3.063 8.63-3.767 4.081-1.042 7.798-3.45 11.522-5.332.46-.232.055-.922-.403-.69-4.103 2.074-8.082 4.523-12.607 5.557-2.689.614-6.418 1.095-7.833 3.828-.235.457.455.862.691.404z"/>
      </g>
      <g>
        <path fill="#AFAFAF" d="M721.589 99.602c6.048-4.935 15.39-3.312 21.02-9.061.361-.368-.204-.934-.565-.564-5.586 5.704-14.963 4.119-21.02 9.06-.4.325.169.887.565.565z"/>
      </g>
      <g>
        <path fill="#AFAFAF" d="M719.777 103.407c1.48-1.195 3.58-1.553 5.394-1.919 2.394-.482 4.817-.802 7.211-1.282 3.01-.603 7.565-1.581 8.337-5.129.109-.503-.662-.716-.771-.213-.86 3.95-7.149 4.494-10.347 5.045-3.328.574-7.646.717-10.389 2.933-.401.324.168.886.565.565z"/>
      </g>
      <g>
        <path fill="#AFAFAF" d="M718.146 106.669c2.091-2.29 6.882-2.201 9.694-2.55 3.023-.374 6.425-.628 9.07-2.28.436-.272.035-.964-.403-.69-3.174 1.982-7.518 2.015-11.12 2.477-2.479.319-5.99.489-7.807 2.478-.346.379.218.946.566.565z"/>
      </g>
      <g>
        <path fill="#AFAFAF" d="M714.888 110.758c6.426-2.28 13.535-1.919 19.666-5.114.458-.238.053-.928-.402-.69-6.061 3.158-13.121 2.778-19.475 5.033-.483.171-.276.943.211.771z"/>
      </g>
      <g>
        <path fill="#AFAFAF" d="M710.897 116.091c4.807-5.688 14.127-3.089 20.032-7.004.428-.283.028-.976-.402-.69-5.988 3.97-15.27 1.301-20.195 7.129-.33.391.232.959.565.565z"/>
      </g>
      <g>
        <path fill="#AFAFAF" d="M706.187 121.347c3.279-3.677 8.944-4.736 13.367-6.438 3.914-1.506 9.239-1.669 12.183-4.978.341-.384-.222-.952-.565-.565-1.668 1.875-4.188 2.533-6.529 3.159-2.271.607-4.435 1.311-6.641 2.115-4.163 1.516-9.315 2.706-12.379 6.142-.344.382.219.95.564.565z"/>
      </g>
      <g>
        <path fill="#AFAFAF" d="M700.669 127.751c4.445-2.578 9.377-3.622 14.388-4.478 2.522-.431 5.063-.798 7.545-1.432 2.418-.617 4.753-1.535 7.15-2.229 5.337-1.546 11.241-.896 16.706-.457 2.458.198 4.81.414 7.121 1.291 1.271.482 2.69 1.159 4.074.822.501-.122.288-.893-.212-.771-1.724.42-3.898-.985-5.517-1.472-2.183-.656-4.734-.616-6.989-.788-5.126-.39-10.386-.747-15.396.604-2.412.649-4.744 1.563-7.15 2.229-2.461.68-5.032 1.007-7.545 1.431-5.077.855-10.082 1.951-14.579 4.559-.445.259-.042.95.404.691z"/>
      </g>
      <g>
        <path fill="#AFAFAF" d="M781.303 54.541c-3.373 5.979-1.352 13.588-.932 20.032.518 7.944-1.265 17.171-5.411 24-.269.442.423.843.69.404 3.876-6.384 5.326-14.275 5.583-21.664.251-7.216-3.033-15.648.759-22.369.255-.449-.436-.852-.689-.403z"/>
      </g>
      <g>
        <path fill="#AFAFAF" d="M776.732 58.623c-1.183 7.21-1.127 14.568-2.561 21.742-.73 3.655-1.924 7.196-2.578 10.874-.267 1.5-.425 3.006-.753 4.496-.248 1.124-.877 4.453-2.239 4.453-.515 0-.515.8 0 .8 1.157 0 1.121-.218 1.706-1.317.719-1.35 1.116-2.866 1.443-4.35.87-3.952 1.445-7.911 2.476-11.842 2.119-8.079 1.932-16.441 3.278-24.644.082-.504-.688-.72-.772-.212z"/>
      </g>
      <g>
        <path fill="#AFAFAF" d="M773.029 59.896c-1.962 1.876-2.614 4.595-3.129 7.169-.684 3.413-1.288 6.844-1.897 10.272-.722 4.062-1.134 8.103-1.36 12.221-.123 2.226-.369 4.419-.965 6.574-.241.871-.486 1.734-.765 2.595-.269.833-.504 2.223-1.001 2.935h.69c-.062-.123-.124-.247-.187-.371-.232-.461-.921-.056-.69.403.063.124.124.247.187.371.146.289.531.228.69 0 .664-.951.935-2.671 1.295-3.786.523-1.616.977-3.291 1.2-4.976.591-4.491.586-9.012 1.294-13.5.549-3.482 1.282-6.927 1.894-10.395.542-3.065.944-6.687 3.309-8.949.373-.355-.192-.919-.565-.563z"/>
      </g>
      <g>
        <path fill="#AFAFAF" d="M769.487 54.216c-2.584 1.701-3.155 5.429-3.782 8.213-1.131 5.017-2.814 9.962-4.302 14.884-1.574 5.207-3.347 10.392-5.224 15.498-1.688 4.591-3.601 8.835-6.405 12.83-.297.423.396.822.69.404 5.375-7.659 7.856-16.894 10.798-25.687 1.694-5.065 3.098-10.229 4.608-15.351.92-3.122 1.048-8.144 4.02-10.101.428-.281.028-.974-.403-.69z"/>
      </g>
      <g>
        <path fill="#AFAFAF" d="M760.526 55.366c-2.725 2.971-2.796 7.296-3.546 11.049-1.222 6.118-2.603 11.919-5.308 17.575-2.489 5.206-5.425 10.185-8.116 15.287-.82 1.554-1.451 3.157-2.157 4.763-.586 1.333-1.664 4.255-3.422 4.303-.515.014-.516.813 0 .799 2.717-.075 4.015-4.417 4.848-6.424 2.074-5.001 5.058-9.647 7.576-14.435 2.811-5.343 4.995-10.621 6.271-16.535.598-2.771 1.18-5.541 1.635-8.339.427-2.629.924-5.45 2.784-7.479.348-.378-.216-.945-.565-.564z"/>
      </g>
      <g>
        <path fill="#AFAFAF" d="M751.711 70.146c-.194 4.576-.25 9.156-.547 13.728-.326 5.026-1.448 9.818-2.289 14.76-.588 3.463-.563 6.918-.616 10.413-.027 1.788-.15 3.573-.466 5.334-.129.718-1.051 4.303-1.918 4.124-.502-.104-.717.667-.212.771.764.158.954.079 1.269-.633.706-1.591 1.407-2.798 1.727-4.576.699-3.896.259-7.906.563-11.834.4-5.167 1.944-10.17 2.488-15.327.588-5.563.564-11.176.801-16.759.021-.517-.778-.515-.8-.001z"/>
      </g>
      <g>
        <path fill="#AFAFAF" d="M746.652 71.126c-1.259 3.755-1.051 7.765-1.174 11.67-.159 5.014-.573 10.118-1.248 15.088-.599 4.414-1.566 8.635-3.124 12.813-.459 1.234-.84 2.479-1.222 3.739-.319 1.052-.697 3.356-1.746 3.927.2.115.4.23.601.345v-.363c0-.516-.799-.516-.799 0v.363c0 .31.337.488.601.345 1.663-.903 2.13-4.454 2.61-6.061 1.206-4.03 2.722-7.822 3.436-12.002.879-5.146 1.15-10.364 1.522-15.563.335-4.662-.192-9.6 1.313-14.089.165-.49-.607-.698-.77-.212z"/>
      </g>
      <g>
        <path fill="#AFAFAF" d="M741.619 71.574c-1.878 2.812-1.846 6.661-1.959 9.913-.179 5.17-.037 10.411-.846 15.532-.808 5.122-3.271 9.54-5.027 14.334-.463 1.266-.882 2.547-1.343 3.813-.345.95-.89 3.464-1.916 3.921.2.115.4.23.601.345v-.181c0-.516-.799-.516-.799 0v.181c0 .328.333.464.601.345.763-.338 1.125-1.53 1.427-2.218.606-1.388 1.097-2.828 1.594-4.257 1.556-4.487 3.76-8.668 5.022-13.278 1.371-5.005 1.221-10.251 1.372-15.391.117-4-.351-9.191 1.964-12.656.286-.43-.407-.83-.691-.403z"/>
      </g>
      <g>
        <path fill="#AFAFAF" d="M734.795 71.675c-1.84 2.338-2.254 5.588-2.625 8.448-.549 4.218-.773 8.493-1.201 12.726-.547 5.412-1.691 10.709-3.12 15.952-.133.488-3.638 11.396-3.986 11.193-.446-.26-.849.431-.403.69 1.562.909 2.664-3.746 2.943-4.588 1.799-5.431 3.364-10.92 4.444-16.544.982-5.115 1.454-10.469 1.775-15.662.227-3.669.359-8.629 2.737-11.65.316-.4-.245-.97-.564-.565z"/>
      </g>
      <g>
        <path fill="#AFAFAF" d="M733.165 71.855c-6.194 7.931-2.916 19.311-5.177 28.445-1.328 5.362-3.647 9.966-6.943 14.362-1.24 1.653-2.518 3.277-3.869 4.841-.765.884-2.35 3.132-3.662 3.154.133.134.267.267.399.4v-.543c0-.516-.799-.516-.799 0v.543c0 .215.182.404.4.4 1.014-.018 1.891-.966 2.568-1.613 1.536-1.471 2.864-3.176 4.173-4.846 2.919-3.726 5.496-7.508 7.161-11.982 1.917-5.154 2.258-10.394 2.452-15.832.199-5.626.23-12.112 3.861-16.763.314-.401-.248-.971-.564-.566z"/>
      </g>
      <g>
        <path fill="#AFAFAF" d="M773.936 53.373c-2.144 2.653-5.624 4.155-6.988 7.425-.199.475.575.681.771.212 1.287-3.083 4.754-4.561 6.783-7.071.319-.398-.242-.968-.566-.566z"/>
      </g>
      <g>
        <path fill="#AFAFAF" d="M784.264 58.809c-4.625 4.269-10.948 5.402-16.675 7.508-5.893 2.166-11.025 6.326-17.47 6.871-.51.043-.514.843 0 .8 6.246-.529 11.652-4.243 17.249-6.716 5.954-2.632 12.491-3.309 17.462-7.897.379-.351-.188-.915-.566-.566z"/>
      </g>
      <g>
        <path fill="#AFAFAF" d="M784.078 63.055c-6.32 1.851-11.97 5.607-18.002 8.197-6.622 2.842-13.421 5.319-19.965 8.333-.468.216-.062.904.403.69 6.314-2.908 12.876-5.326 19.277-8.042 3.17-1.345 6.351-2.729 9.362-4.407 2.908-1.621 5.938-3.064 9.138-4.001.493-.144.283-.915-.213-.77z"/>
      </g>
      <g>
        <path fill="#AFAFAF" d="M783.54 66.238c-7.77 7.733-19.755 8.149-29.275 12.622-.467.219-.061.907.403.69 9.608-4.515 21.583-4.93 29.437-12.747.365-.363-.2-.928-.565-.565z"/>
      </g>
      <g>
        <path fill="#AFAFAF" d="M783.54 71.675c-3.525 2.842-8.45 3.893-12.532 5.715-5.183 2.314-10.302 4.884-15.922 5.96-.506.097-.292.867.212.771 5.652-1.083 10.93-3.629 16.113-6.042 4.142-1.927 9.081-2.927 12.694-5.84.401-.323-.168-.885-.565-.564z"/>
      </g>
      <g>
        <path fill="#AFAFAF" d="M784.345 75.055c-7.924 3.625-15.435 8.469-24.004 10.47-.502.117-.289.887.212.77 8.638-2.015 16.21-6.896 24.195-10.55.468-.214.062-.903-.403-.69z"/>
      </g>
      <g>
        <path fill="#AFAFAF" d="M784.803 79.001c-4.823 1.602-9.837 3.95-14.122 6.687-3.491 2.23-7.178 6.115-11.428 6.723-.509.072-.292.842.212.77 3.817-.545 7.228-3.774 10.276-5.898 1.911-1.333 3.913-2.346 5.994-3.385 3.034-1.516 6.054-3.054 9.28-4.125.487-.163.278-.935-.212-.772z"/>
      </g>
      <g>
        <path fill="#AFAFAF" d="M783.44 84.115c-7.14 5.36-16.025 7.079-24.101 10.51-.473.201-.065.889.403.69 8.083-3.434 16.953-5.145 24.101-10.51.407-.305.009-1-.403-.69z"/>
      </g>
      <g>
        <path fill="#AFAFAF" d="M783.983 89.914c-6.605 4.872-15.478 6.921-23.536 7.556-.511.04-.515.84 0 .799 8.2-.645 17.213-2.704 23.939-7.665.41-.302.012-.997-.403-.69z"/>
      </g>
      <g>
        <path fill="#AFAFAF" d="M728.954 76.668c.024-.384 10.387.773 11.391.892 1.548.182 3.089.391 4.647.431 3.694.093 7.375-1.244 10.582-2.971.454-.245.051-.935-.403-.69-3.48 1.874-7.405 3.136-11.399 2.812-2.06-.166-4.112-.466-6.166-.698-1.082-.121-9.328-1.654-9.453.224-.032.515.767.512.801 0z"/>
      </g>
      <g>
        <path fill="#AFAFAF" d="M727.467 82.323c5.67.015 11.333.208 17.004.094 3.126-.063 6.276-.164 9.374-.613.865-.125 3.426-.351 3.377-1.692-.019-.514-.818-.516-.799 0 .086 2.392-26.03 1.42-28.956 1.412-.515-.002-.515.797 0 .799z"/>
      </g>
      <g>
        <path fill="#AFAFAF" d="M726.018 87.94c5.509.075 10.78-2.046 16.308-1.631 4.601.346 8.479 1.962 12.705-.779.431-.279.03-.972-.403-.69-4.433 2.876-8.953.754-13.759.59-5.011-.17-9.834 1.779-14.851 1.71-.517-.006-.516.794 0 .8z"/>
      </g>
      <g>
        <path fill="#AFAFAF" d="M724.493 93.906c6.262-1.883 12.665-3.419 19.249-2.84 4.523.397 9.827 1.4 13.826-1.368.42-.291.022-.984-.403-.69-4.195 2.902-9.939 1.504-14.666 1.161-6.166-.448-12.373 1.209-18.219 2.967-.492.147-.282.919.213.77z"/>
      </g>
      <g>
        <path fill="#AFAFAF" d="M722.051 99.845c3.378-1.603 7.051-2.047 10.735-2.384 3.05-.279 6.15-.88 9.206-.952 4.212-.099 10.052 1.2 13.763-1.375.421-.291.022-.984-.402-.689-2.042 1.416-4.867 1.338-7.25 1.349-2.587.012-5.187-.222-7.77.002-3.179.276-6.378.73-9.559 1.063-3.151.329-6.249.932-9.125 2.297-.467.22-.061.909.402.689z"/>
      </g>
      <g>
        <path fill="#AFAFAF" d="M719.333 104.375c6.284-2.736 13.263-2.497 19.977-2.681 5.627-.153 11.373.34 16.445-2.575.448-.256.045-.947-.402-.689-5.585 3.208-12.494 2.396-18.691 2.53-6.023.131-12.121.282-17.732 2.724-.472.207-.064.895.403.691z"/>
      </g>
      <g>
        <path fill="#AFAFAF" d="M716.072 109.268c7.863-3.532 17.019-3.897 25.527-3.982 3.206-.032 6.414-.077 9.599-.484 2.302-.294 4.8-.782 6.632-2.301.397-.329-.171-.891-.565-.564-2.281 1.89-5.825 2.106-8.642 2.329-3.011.238-6.036.186-9.053.25-8.018.169-16.505.739-23.902 4.063-.469.21-.062.899.404.689z"/>
      </g>
      <g>
        <path fill="#AFAFAF" d="M712.171 114.02c9.247-1.822 18.335-3.825 27.81-3.82 5.57.003 13.673.732 18.03-3.531.369-.361-.196-.926-.565-.565-2.377 2.326-6.077 2.788-9.236 3.077-3.176.291-6.375.208-9.56.221-9.064.037-17.847 2.104-26.691 3.847-.505.1-.292.87.212.771z"/>
      </g>
      <g>
        <path fill="#AFAFAF" d="M707.998 119.353c2.734-2.303 7.005-2.078 10.371-2.197 4.315-.154 8.533-.896 12.78-1.621 4.424-.754 8.842-1.057 13.313-1.372 4.008-.283 8.543-.569 12.286-2.137.468-.196.263-.97-.212-.771-4.137 1.733-9.084 1.909-13.501 2.207-4.579.309-9.05.776-13.573 1.555-4.399.758-8.735 1.231-13.192 1.417-3.006.125-6.435.332-8.834 2.354-.397.332.171.895.562.565z"/>
      </g>
    </g>
    <g>
      <g fill="#AFAFAF">
        <path d="M1274.545 58.364l-.033-45.896h-.046c-.216-1.185-1.248-2.084-2.496-2.084-1.247 0-2.279.899-2.496 2.084h-.046v44.875M1245.756 31.112c-.217-1.185-1.249-2.084-2.496-2.084-1.248 0-2.28.899-2.496 2.084h-.046v49.191h.046c-.027.149-.046.301-.046.458 0 1.404 1.138 2.542 2.542 2.542s2.543-1.138 2.543-2.542c0-.157-.02-.309-.047-.458h.047V31.112h-.047z"/>
        <path d="M1241.699 29.572l29.053-18.857 3.793 3.593-28.742 18.68z"/>
      </g>
      <g>
        <path fill="#AFAFAF" d="M1272.508 13.773c3.681.074 7.277 1.104 10.97.831 3.199-.238 6.208-1.624 9.42-1.73.515-.018.517-.817 0-.799-3.204.107-6.245 1.361-9.42 1.73-3.65.424-7.32-.757-10.97-.831-.516-.011-.515.789 0 .799z"/>
      </g>
      <g>
        <path fill="#AFAFAF" d="M1244.622 32.664c9.374-.478 18.571 2.916 27.692-.614.476-.184.269-.957-.213-.77-9.053 3.502-18.179.111-27.479.585-.513.026-.515.825 0 .799z"/>
      </g>
      <g>
        <path fill="#AFAFAF" d="M1272.19 32.847c5.526-4.549 11.092-9.131 16.08-14.265 1.496-1.54 3.294-2.832 4.671-4.479.505-.604.546-1.316-.344-1.428-.51-.064-.504.736 0 .799-.493-.062-2.615 2.365-3.143 2.832-1.667 1.477-3.143 3.174-4.725 4.74-4.049 4.008-8.705 7.614-13.104 11.236-.397.327.172.889.565.565z"/>
      </g>
      <g>
        <path fill="#AFAFAF" d="M1293.397 13.374c-.288 3.082.857 6.583 1.507 9.551 1.238 5.673 2.663 11.306 4.094 16.933 1.396 5.482 2.832 10.953 4.237 16.433.477 1.858.95 3.718 1.394 5.584.135.567.265 1.135.379 1.707.073.365-.031.729.201.485-.354.374.21.94.565.564.366-.386-.013-1.361-.104-1.787-.362-1.674-.793-3.335-1.213-4.996-1.365-5.394-2.785-10.774-4.166-16.164-1.502-5.856-2.984-11.72-4.315-17.617-.746-3.303-2.099-7.261-1.779-10.693.047-.514-.752-.509-.8 0z"/>
      </g>
      <g>
        <path fill="#AFAFAF" d="M1268.81 32.864c.462 6.606 1.785 13.105 2.991 19.605.836 4.503 1.439 9.04 2.258 13.544.716 3.945 1.483 7.883 2.35 11.797.33 1.493.674 2.987 1.107 4.454.145.484.306 1.332.788 1.618.444.263.846-.428.403-.69-.426-.252-.662-1.992-.784-2.455-.411-1.575-.755-3.169-1.098-4.76-.775-3.622-1.47-7.261-2.128-10.905-.77-4.263-1.34-8.555-2.126-12.816-1.185-6.433-2.505-12.856-2.962-19.393-.035-.51-.835-.514-.799.001z"/>
      </g>
      <g>
        <path fill="#AFAFAF" d="M1245.821 80.639c10.302-.369 22.493-4 31.583 2.644.416.305.814-.389.402-.69-9.229-6.748-21.529-3.128-31.985-2.753-.513.018-.516.818 0 .799z"/>
      </g>
      <g>
        <path fill="#AFAFAF" d="M1245.821 75.842c5.92.268 11.743-1.006 17.64-.927 3.963.054 8.23 1.611 12.151.613.5-.127.288-.897-.212-.77-3.948 1.005-8.434-.595-12.442-.648-5.729-.078-11.382 1.194-17.137.933-.516-.023-.513.776 0 .799z"/>
      </g>
      <g>
        <path fill="#AFAFAF" d="M1245.415 66.832c3.095.993 6.252 1.537 9.492 1.736 3.035.187 6.015-.204 9.036-.325 2.125-.084 4.253-.063 6.377-.111 1.065-.023 2.941.206 3.889-.44.423-.289.023-.981-.402-.69-.969.661-3.281.33-4.393.351-1.949.037-3.899.03-5.849.107-2.651.106-5.258.412-7.922.343-3.41-.089-6.772-.7-10.016-1.74-.492-.159-.7.613-.212.769z"/>
      </g>
      <g>
        <path fill="#AFAFAF" d="M1246.016 60.236c9.229 1.483 19.382 3.14 28.193-.94.467-.216.062-.905-.402-.69-8.582 3.974-18.602 2.302-27.578.86-.505-.082-.721.688-.213.77z"/>
      </g>
      <g>
        <path fill="#AFAFAF" d="M1244.815 53.639c9.41 2.082 19.281.181 28.399-2.399.495-.14.284-.911-.213-.77-8.979 2.54-18.705 4.449-27.974 2.399-.502-.112-.714.658-.212.77z"/>
      </g>
      <g>
        <path fill="#AFAFAF" d="M1244.516 46.442c2.506.703 5.027 1.561 7.624 1.854 2.825.319 5.472-.159 8.264-.498 2.064-.25 4.123-.563 6.173-.914 1.268-.217 3.254-.284 4.334-1.082.41-.303.012-.997-.403-.69-1.007.745-2.956.792-4.144 1.001-2.104.372-4.224.675-6.346.933-2.467.299-4.831.719-7.327.512-2.712-.225-5.358-1.157-7.962-1.887-.498-.138-.708.633-.213.771z"/>
      </g>
      <g>
        <path fill="#AFAFAF" d="M1244.516 38.946c7.859 2.296 17.213 2.077 25.101 0 .498-.131.286-.902-.213-.771-7.729 2.035-16.973 2.251-24.675 0-.496-.144-.708.628-.213.771z"/>
      </g>
      <g>
        <path fill="#AFAFAF" d="M1250.52 32.265c.033 10.154 1.076 20.255.822 30.417-.095 3.78-.329 7.574-.184 11.354.054 1.427-.278 4.011.488 5.282.069.115.205.208.345.198.386-.026.458-.342.513-.669.085-.503-.686-.719-.771-.212-.063.377.59.414.506-.233-.066-.509-.097-1.023-.133-1.535-.081-1.131-.131-2.265-.171-3.397-.134-3.831.127-7.688.224-11.518.248-9.916-.808-19.779-.841-29.687-.002-.515-.8-.516-.798 0z"/>
      </g>
      <g>
        <path fill="#AFAFAF" d="M1256.217 32.864c.631 5.27.132 10.6.207 15.891.055 3.933.853 7.744 1.267 11.64.379 3.576.7 7.159 1.229 10.717.303 2.04.492 5.541 2.212 7.011.39.333.958-.229.564-.565-1.653-1.414-1.779-5.133-2.072-7.103-.535-3.61-.829-7.254-1.223-10.881-.416-3.854-1.133-7.605-1.188-11.502-.07-5.069.408-10.157-.196-15.208-.061-.506-.861-.511-.8 0z"/>
      </g>
      <g>
        <path fill="#AFAFAF" d="M1262.827 33.57c2.198 8.261.865 16.955 1.606 25.381.363 4.125 1.012 8.436 2.082 12.436.68 2.54.69 5.236 1.409 7.759.141.495.912.285.771-.212-.681-2.389-.791-4.955-1.319-7.384-.959-4.407-1.813-8.85-2.208-13.35-.729-8.271.591-16.722-1.569-24.844-.133-.496-.905-.285-.772.214z"/>
      </g>
      <g>
        <path fill="#AFAFAF" d="M1279.986 84.155c-1.77-1.386 8.34-7.391 9.59-8.151 5.662-3.444 12.075-5.823 15.661-11.754.268-.442-.424-.844-.69-.403-3.862 6.388-11.46 9.04-17.565 12.803-1.23.759-10.378 5.866-7.56 8.071.4.313.971-.248.564-.566z"/>
      </g>
      <g>
        <path fill="#AFAFAF" d="M1287.756 18.673c2.624 3.568 3.768 8 4.709 12.261 1.002 4.54 1.592 9.158 2.542 13.708.843 4.042 1.439 8.134 2.341 12.166.813 3.633 1.843 7.594 4.263 10.521.329.397.891-.171.565-.565-2.666-3.227-3.569-7.793-4.407-11.786-.803-3.821-1.416-7.682-2.189-11.511-1.668-8.276-1.953-18.153-7.134-25.198-.302-.41-.997-.012-.69.404z"/>
      </g>
      <g>
        <path fill="#AFAFAF" d="M1283.92 23.552c2.197 2.733 2.401 7.11 2.762 10.436.407 3.743.61 7.515 1.262 11.229.81 4.613 2.392 9.113 3.364 13.703.82 3.872.64 9.18 3.406 12.309.343.387.906-.181.565-.565-1.619-1.831-1.976-4.577-2.281-6.914-.341-2.594-.926-5.172-1.512-7.719-1.014-4.41-2.51-8.73-3.11-13.224-.511-3.818-.678-7.676-1.216-11.491-.399-2.825-.83-6.032-2.675-8.328-.323-.404-.885.166-.565.564z"/>
      </g>
      <g>
        <path fill="#AFAFAF" d="M1280.404 27.167c-.203-1.517-.016.245-.15.066.395.528.713 1.11 1.021 1.69.726 1.359 1.174 2.857 1.555 4.343.79 3.093 1.012 6.323 1.177 9.5.221 4.263.212 8.533.745 12.774.54 4.28 1.263 8.544 2.071 12.781.336 1.75.688 3.5 1.138 5.225.142.546.288 1.615.838 1.942.444.264.846-.427.402-.69-.425-.252-.679-2.29-.799-2.808-.425-1.824-.773-3.666-1.112-5.506-.767-4.15-1.464-8.33-1.927-12.525-.992-9.002 1.064-20.424-5.076-27.973-.104-.126-.353-.161-.484-.062-.044.033-.09.066-.133.1-.152.113-.228.259-.185.451l.12.693c.067.502.867.508.799-.001z"/>
      </g>
      <g>
        <path fill="#AFAFAF" d="M1274.222 31.171c1.3 4.607 2.334 9.278 3.304 13.964.906 4.379 1.988 8.77 2.688 13.186 1.144 7.211-.015 15.093 3.344 21.822.229.461.92.056.689-.404-3.374-6.76-2.199-14.922-3.352-22.193-.67-4.225-1.738-8.431-2.6-12.623-.965-4.687-2.005-9.358-3.303-13.964-.138-.496-.91-.285-.77.212z"/>
      </g>
      <g>
        <path fill="#AFAFAF" d="M1271.354 39.663c2.94-4.841 8.19-7.24 12.985-9.841 2.079-1.127 3.92-2.28 5.528-4.031 1.72-1.871 3.05-4.212 5.33-5.475.45-.25.049-.94-.403-.69-2.003 1.109-3.332 3.015-4.759 4.748-1.983 2.409-4.404 3.85-7.117 5.308-4.623 2.484-9.441 4.945-12.255 9.578-.267.441.424.842.691.403z"/>
      </g>
      <g>
        <path fill="#AFAFAF" d="M1272.208 46.457c4.777-.407 8.478-3.593 11.929-6.637 4.162-3.67 9.208-6.775 12.642-11.172.313-.401-.248-.971-.565-.564-2.991 3.83-7.248 6.521-10.914 9.654-3.854 3.293-7.741 7.463-13.091 7.92-.511.043-.515.843-.001.799z"/>
      </g>
      <g>
        <path fill="#AFAFAF" d="M1273.453 52.855c1.319-1.734 3.497-2.784 5.385-3.774 2.265-1.188 4.607-2.224 6.887-3.383 4.645-2.36 9.171-5.758 12.316-9.935.311-.412-.385-.81-.69-.403-3.532 4.688-8.673 8.034-13.893 10.572-3.538 1.721-8.225 3.272-10.695 6.519-.313.412.383.809.69.404z"/>
      </g>
      <g>
        <path fill="#AFAFAF" d="M1273.99 60.133c5.033-4.885 11.861-7.43 17.585-11.388 2.226-1.538 4.446-3.087 6.589-4.741.655-.507 2.707-1.706 2.63-2.744-.039-.511-.838-.514-.799 0 .024.35-1.004 1.048-1.228 1.241-.955.815-1.976 1.557-2.988 2.299-1.994 1.461-4.034 2.86-6.068 4.265-5.332 3.684-11.572 5.929-16.286 10.503-.371.359.194.924.565.565z"/>
      </g>
      <g>
        <path fill="#AFAFAF" d="M1274.809 67.092c4.602-3.373 10.217-5.23 15.304-7.722 4.604-2.255 9.73-5.166 11.827-10.113.198-.469-.49-.876-.691-.403-2.186 5.161-7.678 7.966-12.463 10.275-4.804 2.319-10.045 4.097-14.38 7.272-.411.302-.013.996.403.691z"/>
      </g>
      <g>
        <path fill="#AFAFAF" d="M1276.689 75.425c7.684-8.128 19.14-11.473 26.386-20.09.329-.392-.233-.96-.565-.565-7.24 8.611-18.7 11.96-26.387 20.09-.352.374.212.94.566.565z"/>
      </g>
      <g>
        <path fill="#AFAFAF" d="M1251.905 32.97c.839-2.513 3.402-4.166 5.512-5.533 2.108-1.366 4.348-2.516 6.504-3.798 4.569-2.717 9.85-4.794 13.131-9.164.31-.412-.386-.81-.691-.403-2.043 2.722-4.899 4.445-7.847 6.036-2.363 1.275-4.646 2.665-6.981 3.987-3.593 2.033-8.979 4.411-10.398 8.663-.165.49.607.698.77.212z"/>
      </g>
      <g>
        <path fill="#AFAFAF" d="M1258.16 33.965c2.169-4.82 8.062-6.276 12.401-8.462 4.595-2.313 9.524-6.813 11.327-11.723.178-.485-.594-.692-.771-.212-2.005 5.46-7.659 9.76-12.765 12.112-4.041 1.862-8.92 3.517-10.883 7.882-.208.466.481.873.691.403z"/>
      </g>
      <g>
        <path fill="#AFAFAF" d="M1264.199 33.57c1.403-4.538 6.719-6.852 10.451-9.167 4.475-2.775 8.503-6.151 11.933-10.146.335-.388-.228-.957-.564-.565-3.846 4.479-8.419 8.023-13.465 11.051-3.491 2.096-7.84 4.457-9.126 8.615-.153.493.618.703.771.212z"/>
      </g>
      <g>
        <path fill="#AFAFAF" d="M1267.605 16.458c6.148 2.282 13.108-.535 19.094 2.059.468.203.875-.486.402-.69-6.091-2.64-13.064.167-19.285-2.14-.483-.18-.69.593-.211.771z"/>
      </g>
      <g>
        <path fill="#AFAFAF" d="M1262.313 20.07c7.487-.007 15.123-.211 21.987 3.244.458.231.863-.458.402-.69-7.003-3.526-14.744-3.361-22.39-3.353-.514 0-.514.799.001.799z"/>
      </g>
      <g>
        <path fill="#AFAFAF" d="M1256.634 22.952c2.715 2.389 6.53 2.949 10.007 3.277 4.144.39 8.311.151 12.465.139.515-.001.515-.801 0-.799-3.618.011-7.229.16-10.845-.024-3.692-.188-8.159-.603-11.062-3.158-.386-.34-.953.224-.565.565z"/>
      </g>
      <g>
        <path fill="#AFAFAF" d="M1249.219 26.313c3.768 1.998 7.672 3.844 11.954 4.361 2.044.247 3.962.089 6.004-.097 2.126-.193 4.678-.529 6.63.534.451.247.855-.443.402-.69-2.969-1.618-6.935-.584-10.123-.381-5.094.325-10.095-2.1-14.465-4.416-.453-.242-.858.447-.402.689z"/>
      </g>
    </g>
    <g>
      <path fill="#B1F2B7" d="M126.206 39.12v124.747h4.14v-25.363h29.503l-19.151-20.695h13.362l-16.57-26.413h5.537z"/>
      <path fill="#2F7535" d="M126.206 39.12v124.747h-4.142v-25.363H92.562l19.151-20.695H98.351l16.569-26.413h-5.537z"/>
    </g>
    <g>
      <path fill="#B1F2B7" d="M1369.777 0v99.586h3.306V79.338h23.551l-15.287-16.521h10.667l-13.229-21.085h4.42z"/>
      <path fill="#2D6B33" d="M1369.777 0v99.586h-3.305V79.338h-23.551l15.287-16.521h-10.667l13.229-21.085h-4.421z"/>
    </g>
    <g>
      <path fill="#B1F2B7" d="M486.335 103.239v107.336h3.563v-21.823h25.385l-16.478-17.807h11.497l-14.258-22.725h4.766z"/>
      <path fill="#326D35" d="M486.335 103.239v107.336h-3.563v-21.823h-25.384l16.478-17.807h-11.497l14.256-22.725h-4.764z"/>
    </g>
    <path fill="#A1E5A7" d="M0 122.5c20.824 10.118 43.9 20.71 68.349 31.279 98.868 42.737 182.689 68.889 187.219 58.41 2.035-4.707-12.281-16.005-37.619-30.894C80.286 161.612 0 113.646 0 113.646v8.854z"/>
    <ellipse opacity=".3" cx="214.914" cy="190.286" rx="20.426" ry="4.134"/>
    <g>
      <path fill="#B1F2B7" d="M228.262 106.987v83.299h2.765v-16.935h19.701l-12.789-13.82h8.923l-11.065-17.636h3.698z"/>
      <path fill="#4D9954" d="M228.262 106.987v83.299h-2.765v-16.935h-19.7l12.788-13.82h-8.922l11.064-17.636h-3.698z"/>
    </g>
    <g>
      <g>
        <path fill="#1C511F" d="M1366.461 100.39c-1.848-1.786-2.424-4.644-4.163-6.573-.202.262-.404.523-.605.785 1.921 1.416 3.065 3.474 4.202 5.517.255.458.9.222.932-.252.053-.808.155-1.604.219-2.411h-1c.057.66.162 1.313.219 1.973.042.482.658.699.932.252.301-.492.555-.882.708-1.435l-.914.12c.123.427.247.854.37 1.281.041.373.394.627.752.432.628-.343.936-.643 1.275-1.275l-.932-.252-.201 1.182c-.145.497.479.817.836.486.558-.516 1.042-.959 1.393-1.635l-.932-.252c.021.548-.045 1.088-.201 1.62-.125.45.354.748.734.564 1.029-.54 2.068-.596 3.119-.168.044-.327.089-.654.133-.982-2.528.041-5.155.34-7.48 1.383-.588.263-.079 1.125.504.863 2.161-.968 4.634-1.208 6.977-1.246.563-.009.684-.832.133-.982-1.437-.393-2.546-.377-3.889.269.244.188.489.376.734.564.178-.639.227-1.216.236-1.885.007-.485-.7-.699-.932-.252-.324.625-.741.975-1.236 1.433.278.162.557.324.836.486.212-.728.205-.699.236-1.448.021-.495-.698-.686-.932-.252-.306.306-.611.611-.916.917.25.144.501.288.752.432-.073-.672-.218-1.177-.507-1.786-.191-.405-.806-.271-.914.12-.151.425-.354.824-.606 1.195l.932.252c-.057-.66-.162-1.313-.219-1.973-.056-.642-.949-.646-1 0-.063.806-.166 1.603-.219 2.411l.932-.252c-1.233-2.217-2.489-4.349-4.562-5.875-.479-.353-.967.384-.605.785 1.744 1.935 2.296 4.768 4.163 6.573.463.446 1.171-.261.706-.709z"/>
      </g>
    </g>
    <g>
      <g>
        <path fill="#1C511F" d="M1367.027 101.095c.169-.589.586-.652 1.138-.528.628.142.895-.822.266-.964-1.087-.246-2.042.09-2.368 1.226-.178.622.787.885.964.266z"/>
      </g>
    </g>
    <g>
      <g>
        <path fill="#1C511F" d="M483.438 210.5c-.384-.773-.845-1.5-1.246-2.265l-.684.684c.649.398.871.865 1.236 1.463.218.357.811.313.914-.12.038-.159.114-.745.28-.833-.251-.144-.501-.288-.752-.432l-.039 1c-.064.375.341.858.734.564.407-.304.751-.633 1.121-.984-.278-.162-.557-.324-.835-.486-.095.227-.189.453-.284.68-.146.349.281.731.615.615.608-.211.925-.472 1.41-.921-.262-.202-.523-.404-.785-.606-.099.246-.23.473-.396.68-.351.509.375.926.785.606.287-.182.574-.363.861-.545-.245-.1-.49-.199-.734-.299.019.094.038.188.057.283.084.423.718.49.914.12.75-1.422 1.723-2.794 1.824-4.442.035-.569-.845-.673-.982-.133-.363 1.434-.725 2.865-1.076 4.303-.099.403.352.818.734.564.832-.551.944-1.424 1.482-2.217l-.932-.252c-.052.521-.345 1.134-.548 1.623-.166.396.396.813.734.564.359-.264.717-.528 1.076-.792l-.684-.684c-.189.34-.378.679-.566 1.019-.283.509.365.982.785.606l.578-.488c-.245-.188-.49-.376-.734-.564-.078.225-.155.449-.233.673-.256.423.257.954.684.684.438-.276.838-.562 1.303-.793l-.684-.684c-.163.212-.326.423-.488.635-.39.416.103 1.061.606.785.426-.233.792-.515 1.189-.793l-.684-.684-.488.635c-.371.372.011.932.486.835.293-.059 1.289-.337 1.423.16.161-.211.321-.422.482-.633-2.921-.051-5.801.509-8.72.51l.252.932c1.388-.601 3.197-.805 4.711-.689.73.056 1.879.431 2.587.173.601-.218.342-1.185-.266-.964-.813.295-2.263-.267-3.151-.244-1.445.037-3.059.286-4.386.861-.476.206-.211.932.252.932 2.919-.001 5.799-.561 8.72-.51.327.006.566-.323.482-.633-.33-1.223-1.633-1.064-2.653-.858.162.278.324.557.486.835.364-.364.397-.399.644-.837.232-.412-.255-.984-.684-.684-.397.278-.763.56-1.189.793.202.262.404.523.606.785.319-.34.401-.443.645-.837.28-.452-.257-.896-.684-.684-.464.231-.865.517-1.303.793l.684.684c.264-.437.266-.413.333-.913.05-.365-.335-.872-.734-.564-.283.218-.513.405-.78.644.262.202.523.404.785.606.189-.34.377-.68.566-1.019.226-.406-.258-.998-.684-.684-.358.264-.717.528-1.076.792.245.188.49.376.734.564.436-1.043.491-.947.584-1.888.053-.536-.679-.625-.932-.252-.393.58-.525 1.462-1.124 1.859.245.188.49.376.734.564.352-1.438.713-2.869 1.076-4.303-.327-.044-.655-.088-.982-.133-.088 1.436-1.036 2.701-1.688 3.938l.914.12c-.019-.094-.038-.188-.057-.283-.066-.333-.465-.437-.734-.299-.514.264-.595.335-1.063.701.262.202.523.404.785.606.166-.207.297-.434.396-.68.248-.506-.357-1.003-.785-.606-.265.303-.587.524-.968.665l.615.615c.095-.227.189-.453.284-.68.205-.491-.503-.801-.835-.486-.295.288-.602.563-.918.828.245.188.49.376.734.564.102-.599.112-.649.075-1.265-.023-.382-.406-.618-.752-.432-.621.333-.583.773-.739 1.431l.914-.12c-.468-.767-.825-1.35-1.595-1.821-.446-.273-.909.255-.684.684.401.765.861 1.491 1.246 2.265.287.575 1.149.068.863-.507z"/>
      </g>
    </g>
    <g>
      <g>
        <path fill="#1C511F" d="M225.537 190.33c-.775-1.216-1.755-2.096-2.598-3.239-.188.245-.376.49-.564.734 1.174.377 1.868 1.428 2.591 2.328.331.412.949-.037.835-.486v-1.692h-.964c.089.573.178 1.146.267 1.718.065.521.837.726.982.133.173-.704.045-1.863.476-2.414-.278-.074-.557-.147-.835-.221.244.806.039 1.616.054 2.43.007.386.417.613.752.432.628-.341.637-1.026.674-1.678.098-1.711.164-3.332.356-5.054h-1c-.025 2.072-.502 4.444.018 6.469.122.473.849.483.964 0 .22-.918-.082-2.782.838-3.297-.245-.1-.49-.199-.734-.299.16 1.021-.354 1.918-.498 2.902-.063.427.315.785.734.564.69-.362 1.107-.934 1.631-1.501-.278-.162-.557-.324-.835-.486-.367.968-.446.937-.551 1.805-.053.434.583.662.854.354.537-.61.817-1.346 1.352-1.958-.278-.162-.557-.324-.835-.486-.159.661-.356 1.201-.409 1.877-.037.47.554.614.854.354.617-.537.864-1.241 1.459-1.815-.285-.118-.569-.236-.854-.354-.044.542-.211 1.04-.5 1.492-.294.571.527 1.059.863.505.269-.496.599-.948.989-1.359-.285-.118-.569-.236-.854-.354-.131.438-.263.876-.394 1.314-.271.58.506 1.05.863.505.282-.311.565-.621.847-.932-.285-.118-.569-.236-.854-.354-.061.225-.121.449-.181.674-.308.583.486 1.013.863.505 1.017-1.372 2.158-2.628 3.268-3.922-.262-.202-.523-.404-.785-.606-1.087 1.826-2.295 3.572-3.417 5.375.305.128.609.257.914.385.502-1.203 1.31-2.281 2.57-2.784-.188-.245-.376-.489-.564-.734-.56.938-1.361 1.678-1.993 2.563-.29.406.279.961.684.684.566-.463 1.214-.767 1.945-.911-.128-.304-.257-.609-.385-.914-.637.344-1.319.581-1.958.926-.46.249-.221.906.252.932.51.054 1.021.054 1.531 0-.044-.327-.088-.655-.133-.982-1.643.367-3.269.665-4.958.623-.916-.023-1.824-.05-2.741-.035-.549.009-2.084.517.335.548 1.601.02 4.245.605 5.607-.478.242-.192.171-.656-.101-.785-.882-.418-4.579.533-4.804.15-.1.245-.199.49-.299.735.417-.159 3.455-.132 3.875.466.119.169.192.361.415.417.929.232 1.829.004 2.757-.142.636-.1.365-1.063-.266-.964-.343.054-1.843.507-2.043.185-.252-.407-.373-.43-.847-.633-1.102-.472-2.991-.737-4.158-.293-.296.113-.475.436-.299.734.897 1.521 3.915-.384 5.163.208-.034-.262-.067-.523-.101-.785-.759.603-3.176.22-4.06.205-.931-.015-1.808-.174-2.643.274-.183.099-.306.363-.23.565.038.099.075.198.112.296.083.219.242.356.482.367 3.042.135 6.09-.029 9.067-.694.55-.123.431-1.011-.133-.982-.51.054-1.021.054-1.531 0l.252.932c.639-.346 1.318-.58 1.958-.926.522-.282.149-1.022-.385-.914-.88.178-1.43.496-2.184 1.012l.684.684c.638-.893 1.43-1.619 1.993-2.563.208-.348-.142-.903-.564-.734-1.604.639-2.614 1.912-3.268 3.482-.226.541.626.847.914.385 1.123-1.803 2.331-3.55 3.417-5.375.286-.479-.409-1.044-.785-.606-1.166 1.359-2.357 2.685-3.424 4.124.288.168.576.336.863.505.289-.546.312-.576.318-1.179.005-.468-.534-.619-.854-.354-.646.536-.545.435-1.003 1.134.288.168.576.336.863.505.296-.632.508-1.116.531-1.819.015-.464-.542-.625-.854-.354-.537.467-.774.948-1.146 1.561.288.168.576.336.863.505.382-.742.609-1.187.637-1.997.016-.448-.55-.646-.854-.354-.572.552-.857 1.291-1.459 1.815.285.118.569.236.854.354.118-.539.242-1.076.373-1.612.11-.459-.49-.883-.835-.486-.534.611-.814 1.347-1.352 1.958.285.118.569.236.854.354.051-.422.354-1.112.515-1.54.18-.474-.508-.841-.835-.486-.45.487-.821 1.026-1.429 1.345.245.188.49.376.734.564.179-1.222.693-2.191.498-3.434-.051-.329-.478-.442-.734-.299-1.363.763-.986 2.594-1.297 3.895h.964c-.489-1.904-.005-4.257.018-6.203.008-.659-.93-.625-1 0-.117 1.048-.505 2.132-.45 3.199.023.455.382 2.416-.085 2.669.251.144.501.288.752.432-.017-.95.189-1.776-.09-2.696-.098-.324-.591-.533-.835-.221-.733.938-.455 1.72-.733 2.855.327.044.655.088.982.133-.094-.752-.167-1.238-.303-1.984-.096-.526-.815-.426-.964 0-.289.824-.212 1.385 0 2.223.278-.162.557-.324.835-.486-.88-1.096-1.661-2.145-3.032-2.584-.394-.126-.829.376-.564.734.833 1.13 1.827 2.03 2.598 3.239.346.544 1.212.043.864-.502z"/>
      </g>
    </g>
    <g>
      <g>
        <path fill="#1C511F" d="M229.834 188.942c-.037.08-.094.141-.171.183-.507.397.206 1.1.707.707.141-.11.243-.228.328-.385.306-.568-.557-1.072-.864-.505z"/>
      </g>
    </g>
    <path fill="#62B76E" d="M0 113.646v2.789h4.987C1.688 114.653 0 113.646 0 113.646z"/>
  </g>
</svg>
