<?xml version="1.0" encoding="utf-8"?>
<!-- Generator: Adobe Illustrator 16.0.0, SVG Export Plug-In . SVG Version: 6.00 Build 0)  -->
<!DOCTYPE svg PUBLIC "-//W3C//DTD SVG 1.1//EN" "http://www.w3.org/Graphics/SVG/1.1/DTD/svg11.dtd">
<svg version="1.1" id="Layer_1" xmlns="http://www.w3.org/2000/svg" xmlns:xlink="http://www.w3.org/1999/xlink" x="0px" y="0px"
	 width="294.833px" height="334.248px" viewBox="0 0 294.833 334.248" style="enable-background:new 0 0 294.833 334.248;"
	 xml:space="preserve">
<g>
	<g>
		
			<polygon style="fill:#6B397F;stroke:#000000;stroke-width:4;stroke-linecap:round;stroke-linejoin:round;stroke-miterlimit:10;" points="
			279.333,319.334 14.333,319.334 14.333,14.334 181.666,14.334 279.333,93.354 		"/>
		
			<polygon style="fill:#6B397F;stroke:#000000;stroke-width:4;stroke-linecap:round;stroke-linejoin:round;stroke-miterlimit:10;" points="
			280.168,93.354 178.189,94.516 181.666,14.556 		"/>
	</g>
	<polygon style="opacity:0.3;fill:#FFFFFF;" points="188.64,44.039 242.026,85.334 260.171,85.334 189.478,29.39 	"/>
	<polygon style="opacity:0.2;fill:#FFFFFF;" points="23.333,25.334 23.333,308.334 266.333,308.334 266.333,267.184 22.132,25.334 	
		"/>
	<g>
		
			<line style="fill:none;stroke:#000000;stroke-width:4;stroke-linecap:round;stroke-linejoin:round;stroke-miterlimit:10;" x1="58.333" y1="54.334" x2="147.333" y2="54.334"/>
		
			<line style="fill:none;stroke:#000000;stroke-width:4;stroke-linecap:round;stroke-linejoin:round;stroke-miterlimit:10;" x1="58.333" y1="93.334" x2="147.333" y2="93.334"/>
		
			<line style="fill:none;stroke:#000000;stroke-width:4;stroke-linecap:round;stroke-linejoin:round;stroke-miterlimit:10;" x1="60.333" y1="129.334" x2="242.333" y2="129.334"/>
		
			<line style="fill:none;stroke:#000000;stroke-width:4;stroke-linecap:round;stroke-linejoin:round;stroke-miterlimit:10;" x1="60.333" y1="170.334" x2="242.333" y2="170.334"/>
		
			<line style="fill:none;stroke:#000000;stroke-width:4;stroke-linecap:round;stroke-linejoin:round;stroke-miterlimit:10;" x1="60.333" y1="206.334" x2="242.333" y2="206.334"/>
		
			<line style="fill:none;stroke:#000000;stroke-width:4;stroke-linecap:round;stroke-linejoin:round;stroke-miterlimit:10;" x1="60.333" y1="283.334" x2="242.333" y2="283.334"/>
		
			<line style="fill:none;stroke:#000000;stroke-width:4;stroke-linecap:round;stroke-linejoin:round;stroke-miterlimit:10;" x1="60.333" y1="244.334" x2="242.333" y2="244.334"/>
	</g>
	<g>
		
			<image style="overflow:visible;" width="240" height="244" xlink:href="68D1F775.png"  transform="matrix(1 0 0 1 0.3335 68.334)">
		</image>
	</g>
	<path style="opacity:0.4;fill:#020202;" d="M95.26,21.334l178.074,171.684v-92.707l-94.398,1.231c0,0-7.959-2.297-7.725-7.62
		c0.111-2.532,3.286-72.588,3.286-72.588H95.26z"/>
	<path style="opacity:0.4;fill:#020202;" d="M63.632,186.572l57.782,17.97l25.101,62.931c0,0,3.118,9.111,5.325-0.257
		c7.788-33.059,38.204-130.317,38.204-130.317s-94.274,33.838-125.93,42.385C51.875,182.588,63.632,186.572,63.632,186.572z"/>
	<g>
		
			<polygon style="fill:#F15B2E;stroke:#000000;stroke-width:4;stroke-linecap:round;stroke-linejoin:round;stroke-miterlimit:10;" points="
			59.744,170.501 131.56,195.344 208.419,111.881 		"/>
		
			<polygon style="fill:#F15B2E;stroke:#000000;stroke-width:4;stroke-linecap:round;stroke-linejoin:round;stroke-miterlimit:10;" points="
			162.081,264.786 131.512,195.217 208.481,111.857 		"/>
	</g>
	<polygon style="opacity:0.3;fill:#FFFFFF;" points="105.829,178.821 180.367,130.979 128.559,186.488 	"/>
</g>
</svg>
