<svg id="Layer_3" xmlns="http://www.w3.org/2000/svg" width="699.558" height="376.471" viewBox="0 0 699.558 376.471">
  <g id="nontechIllustration">
    <path fill="#DCFFDC" d="M104.302 376.471s26.829-65.639-60.583-69.67c-87.414-4.031-20.116-88.904 0-103.41 32.748-23.615 90.875-37.809 95.201-134.484 4.328-96.676 141.072-6.445 141.072-6.445s78.449 72.736 135.724-23.018c57.279-95.754 149.885 7.367 144.691 51.561s35.323 30.469 110.108 117.735c102.708 119.852-100.008 166.503-100.008 166.503l-466.205 1.228z"/>
    <g fill="none" stroke="#84BC84" stroke-miterlimit="10">
      <circle cx="39.214" cy="239.977" r="4.268"/>
      <circle cx="176.348" cy="106.772" r="4.269"/>
      <circle cx="561.84" cy="197.253" r="4.268"/>
      <circle cx="612.789" cy="272.142" r="4.268"/>
    </g>
    <g fill="#88D388">
      <circle cx="566.281" cy="333.346" r="4.268"/>
      <circle cx="634.273" cy="224.875" r="2.13"/>
      <circle cx="534.217" cy="62.207" r="2.13"/>
      <circle cx="452.833" cy="30.823" r="2.13"/>
      <circle cx="200.287" cy="64.417" r="2.13"/>
      <circle cx="103.915" cy="192.098" r="2.13"/>
      <circle cx="144.428" cy="258.392" r="4.155"/>
      <circle cx="134.606" cy="311.796" r="4.155"/>
      <circle cx="518.871" cy="154.897" r="4.155"/>
      <circle cx="573.503" cy="141.393" r="4.154"/>
    </g>
    <g opacity=".7" fill="none" stroke="#84BC84" stroke-miterlimit="10">
      <g>
        <path d="M87.812 238.627v21.131M79.069 259.758h31.82"/>
      </g>
      <g>
        <path d="M475.243 30.648v16.977M462.796 47.625h25.564"/>
      </g>
      <g>
        <path d="M569.008 267.975v-21.131M577.75 246.844h-31.82"/>
      </g>
    </g>
    <g>
      <circle fill="none" stroke="#C8C8DB" stroke-width=".3205" stroke-miterlimit="10" cx="276.403" cy="126.772" r="2.13"/>
      <g opacity=".4" fill="none" stroke="#E4E4ED" stroke-width=".6623" stroke-miterlimit="10">
        <path d="M228.893 123.295v15.65M222.419 138.945h23.566"/>
      </g>
      <path fill="#84D884" d="M199.906 114.011h142.573v100.07H199.906z"/>
      <g>
        <path fill="#C6AA63" d="M344.434 216.987H197.308V111.27h147.126v105.717zm-143.126-4h139.126V115.27H201.308v97.717z"/>
      </g>
      <circle fill="#F4F4F4" cx="248.476" cy="175.781" r="27.011"/>
      <path fill="#424242" d="M272.349 164.125c-2.01-1.232-4.014-1.691-4.4-1.773-.215-.275-.487-.646-.84-1.064-.422-.455-.926-.984-1.477-1.539-.287-.262-.584-.533-.886-.811-.308-.271-.61-.557-.931-.821-.65-.519-1.28-1.06-1.916-1.511-.621-.466-1.212-.891-1.732-1.231-.439-.293-.814-.53-1.109-.714-.153-.492-.767-2.34-1.72-3.811-2.845-1.02-5.911-1.578-9.106-1.578-1.468 0-2.905.12-4.309.346-1.124.806-2.442 1.973-3.241 3.449 0 0 .094.02.253.061-.084.023-.188.055-.317.096-.332.111-.812.253-1.381.452-.291.086-.579.237-.893.378-.311.147-.64.301-.979.461-.344.157-.683.344-1.019.549-.341.197-.688.403-1.031.604-.347.206-.664.448-.992.665-.324.225-.643.447-.941.67-.59.467-1.146.888-1.586 1.297-.416.362-.745.688-.989.928-1.358-.102-3.269.724-4.583 1.404-2.307 3.236-3.915 7.001-4.61 11.08.565 2.172 1.566 3.547 2.019 4.084-.008.328-.013.711-.007 1.141.024.705.044 1.528.142 2.408.08.877.229 1.809.402 2.737.105.46.196.924.317 1.374.124.447.233.889.382 1.309.146.419.269.828.438 1.199.162.375.296.734.455 1.051.071.146.141.283.21.414-.396 1.063-.304 2.66-.111 3.994 2.349 3.462 5.482 6.348 9.144 8.408 2.014.123 3.543-.283 4.359-.58.381.175.922.43 1.599.674.677.241 1.476.508 2.351.729.434.109.892.206 1.356.3.47.067.942.164 1.42.212.479.045.96.105 1.437.11.472.027.939.034 1.392.007.453-.007.889-.037 1.298-.1.412-.055.801-.086 1.153-.172.294-.058.559-.119.804-.174.612.423 1.757 1.082 3.343 1.454 4.52-1.263 8.563-3.663 11.793-6.886.142-1.234.239-2.803.026-3.987.063-.073.128-.149.196-.23.186-.21.366-.466.569-.743.203-.274.424-.575.629-.911.211-.333.457-.671.654-1.055.201-.38.439-.755.623-1.169.191-.41.398-.821.569-1.246.179-.424.348-.848.493-1.277.164-.419.281-.852.408-1.26.242-.826.407-1.61.531-2.285.084-.432.129-.811.163-1.139 1.331-.588 2.36-2.011 3.057-3.281.003-.18.016-.357.016-.539-.002-4.375-1.05-8.504-2.895-12.158zm-22.896-7.602l.002.003s.987-1.228 9.568-1.726c.257.219.581.495.96.816.949.796 2.219 1.852 3.486 2.91.323.257.625.536.935.797.31.264.614.521.909.771.57.521 1.105 1.001 1.574 1.406.402.391.739.713.991.958.332 6.323-.514 9.181-.611 9.487-.222.034-.471.075-.738.125-1.107.197-2.574.506-4.03.852-1.454.353-2.901.747-3.977 1.076-.502.149-.915.294-1.224.394l-8.907-7.594c.054-.29.122-.642.183-1.05.186-1.131.385-2.646.54-4.165.151-1.519.262-3.042.312-4.187.014-.325.021-.617.027-.873zm-23.245 30.799c-.053-.137-.109-.279-.17-.426-.132-.323-.235-.689-.364-1.064-.136-.375-.222-.789-.354-1.206-.133-.41-.21-.856-.331-1.297-.114-.442-.194-.899-.295-1.353-.089-.455-.175-.912-.255-1.364-.062-.452-.155-.894-.207-1.327-.127-.863-.235-1.672-.306-2.368-.03-.327-.064-.628-.094-.897.022.027.037.038.037.038.247-2.349 5.316-7.416 5.316-7.416.122-7.169 1.854-9.396 1.854-9.396-.019-.002-.038-.002-.054-.004.265-.191.606-.426 1-.703.479-.354 1.067-.724 1.669-1.153.311-.202.632-.411.957-.626.327-.209.645-.443.987-.64.337-.202.677-.41 1.007-.612.332-.2.652-.413.982-.578.324-.181.637-.354.933-.517.3-.161.57-.342.842-.458.536-.251.978-.482 1.292-.635.146-.075.264-.135.346-.18 1.075.266 4.779 1.267 8.282 3.289-.05.271-.106.578-.162.936-.184 1.135-.383 2.648-.537 4.166-.154 1.52-.264 3.043-.313 4.188-.017.36-.022.68-.029.953l-.01-.009-10.048 5.996c-.229-.13-.513-.297-.843-.474-.872-.472-2.052-1.059-3.252-1.604-1.197-.545-2.416-1.051-3.343-1.396-.462-.179-.856-.305-1.128-.404-.274-.094-.433-.14-.433-.14s.138.089.389.233c.256.143.609.354 1.045.589.871.47 2.051 1.058 3.25 1.605 1.199.542 2.415 1.05 3.343 1.397.341.131.643.234.887.316l2.669 11.525c-.212.208-.516.489-.862.842-.723.728-1.649 1.729-2.547 2.757-.895 1.03-1.756 2.09-2.377 2.906-.25.323-.453.61-.616.839-5.638-1.866-7.664-3.774-8.157-4.328zm25.441 13.114s.092.082.255.205c-.185.02-.376.043-.58.07-.349.059-.735.059-1.14.082-.404.03-.832.021-1.274.018-.44.012-.896-.027-1.36-.052-.462-.014-.93-.079-1.399-.128-.467-.041-.933-.127-1.394-.188-.455-.089-.91-.156-1.342-.249-.867-.182-1.678-.359-2.364-.557-.62-.176-1.146-.32-1.533-.446.329-.129.516-.228.516-.228-2.162-.921-5.49-7.199-5.522-7.261.195-.186.438-.414.703-.688.722-.728 1.652-1.728 2.548-2.759.896-1.029 1.756-2.09 2.376-2.906.273-.355.492-.667.663-.9l.004.014 11.761.961c.138.264.313.609.534 1.004.518.94 1.247 2.17 2.011 3.375.769 1.204 1.573 2.387 2.206 3.254.312.434.595.785.781 1.035.01.017.021.025.03.041-.489.656-4.343 5.742-6.48 6.303zm20.067-19.26c-.17.655-.42 1.408-.687 2.208-.279.796-.586 1.646-.946 2.47-.164.422-.361.826-.545 1.23-.179.405-.387.789-.572 1.167-.184.385-.393.735-.571 1.077-.179.347-.37.662-.547.947-.183.287-.329.564-.479.797-.028.043-.052.08-.079.121-.029-.131-.062-.26-.102-.378 0 0-1.938 2.042-8.99 3.245-.007-.009-.01-.015-.013-.023-.149-.275-.349-.68-.61-1.148-.517-.938-1.246-2.168-2.013-3.372-.769-1.204-1.572-2.385-2.206-3.253-.232-.324-.447-.602-.62-.826l.183.016 4.428-10.951c.316-.05.744-.111 1.248-.203 1.108-.197 2.573-.505 4.03-.852 1.455-.354 2.899-.748 3.976-1.078.298-.088.562-.174.795-.25 1.301 1.426 4.372 8.141 4.372 8.141.072-.02.139-.055.208-.08-.072.292-.159.622-.26.995z"/>
      <ellipse fill="#EAEAEF" cx="250.786" cy="204.532" rx="31.795" ry="1.51"/>
      <g>
        <g>
          <path fill="#00AD66" d="M292.672 201.903c-.575.722-.951 1.437-1.008 2.371-.063 1.024 1.527 1.019 1.589 0 .029-.481.247-.876.543-1.247.629-.792-.486-1.925-1.124-1.124z"/>
        </g>
        <g>
          <path fill="#00AD66" d="M294.698 201.291c-.378.693-.663 1.432-.942 2.17-.362.961 1.175 1.373 1.534.422.23-.611.467-1.213.78-1.791.492-.901-.882-1.701-1.372-.801z"/>
        </g>
        <g>
          <g>
            <path fill="#00AD66" d="M210.461 204.532h121.107"/>
            <path fill="#CECEDB" d="M210.461 204.532s1.893-.035 5.204-.097c3.312-.045 8.042-.107 13.719-.184 5.677-.045 12.3-.097 19.396-.152 7.096-.021 14.665-.045 22.234-.066 7.569.021 15.139.045 22.234.065 7.097.056 13.72.107 19.396.152 5.677.076 10.407.14 13.719.185 3.312.062 5.204.097 5.204.097s-1.893.035-5.204.097c-3.312.045-8.042.108-13.719.185-5.677.045-12.3.097-19.396.152-7.096.021-14.665.044-22.234.065-7.569-.021-15.139-.045-22.234-.066-7.097-.056-13.72-.107-19.396-.152-5.677-.076-10.407-.139-13.719-.184-3.311-.062-5.204-.097-5.204-.097z"/>
          </g>
          <g>
            <path fill="#00AD66" d="M216.987 199.798c-.016-1.024-1.605-1.024-1.59 0 .019 1.296.241 2.578.26 3.874.016 1.023 1.605 1.023 1.59 0-.018-1.296-.241-2.578-.26-3.874z"/>
          </g>
          <g>
            <path fill="#00AD66" d="M220.919 203.461c-1.29-4.447-2.812-8.83-4.987-12.93-.479-.905-1.853-.104-1.372.803 2.111 3.979 3.574 8.232 4.826 12.549.286.982 1.819.565 1.533-.422z"/>
          </g>
          <g>
            <path fill="#00AD66" d="M222.692 199.934c-.57-1.09-1.273-2.271-2.312-2.974-.851-.577-1.646.8-.802 1.372.873.592 1.413 1.78 1.885 2.686.479.916.942 1.922 1.107 2.95.161 1.011 1.693.579 1.533-.422-.2-1.262-.828-2.491-1.411-3.612z"/>
          </g>
          <g>
            <path fill="#00AD66" d="M226.95 203.012c-1.324-3.134-1.127-6.627-3.186-9.467-.595-.822-1.974-.031-1.372.801 2.02 2.788 1.876 6.37 3.185 9.469.399.94 1.768.13 1.373-.803z"/>
          </g>
          <g>
            <path fill="#00AD66" d="M266.503 199.752c-1.186 1.191-2.18 2.229-3.837 2.895-1.317.534-3.909.139-5.366.107-3.547-.084-7.089-.312-10.636-.395-.323-.006-.534.154-.653.37-.026.005-.048-.003-.075.005-1.289.35-2.457-.02-3.747-.117-1.425-.105-2.823.039-4.239.143-.114-.479-.674-.842-1.147-.545.021-.664-1.014-1.113-1.497-.408-.126.185-.249.378-.36.578.031-.189.041-.377.092-.567.267-.993-1.266-1.411-1.533-.423-.148.545-.212 1.094-.246 1.65-.02-.018-.029-.043-.051-.059-.477-.366-.831-.866-1.177-1.352-.513-.713-1.608-.217-1.507.471-.283-.164-.565-.326-.845-.498-.097-.059-.191-.086-.284-.102-.202-.287-.41-.568-.674-.806-.758-.687-1.886.435-1.124 1.124.474.428.816.93 1 1.542.208.69 1.021.679 1.386.272.295.173.59.352.874.547.441.303.861.072 1.051-.299.165.158.312.328.498.471.308.238.612.185.828-.004.067.74 1.005.871 1.396.406.295.325.839.355 1.148.092.069.019.133.043.213.046.438.005.79-.294 1.101-.643.118.081.26.138.449.124 1.626-.104 3.277-.376 4.904-.129 1.326.201 2.6.373 3.914.016.206-.056.338-.175.43-.312 4.51.106 9.013.394 13.525.438 3.288.031 5.057-1.248 7.313-3.516.723-.726-.4-1.85-1.124-1.122z"/>
          </g>
          <g>
            <path fill="#00AD66" d="M271.542 192.855c-.884 1.497-1.486 3.08-2.044 4.722-.493 1.461-1.063 4.771-2.574 5.579-.906.484-.104 1.855.8 1.373 1.088-.58 1.679-2.1 2.113-3.183 1.033-2.571 1.658-5.287 3.078-7.69.523-.885-.851-1.682-1.373-.801z"/>
          </g>
          <g>
            <path fill="#00AD66" d="M283.709 191.021c-4.158 1.922-8.414 5.234-10.666 9.435-.165-.519-.819-.873-1.289-.36-.976 1.07-2.144 2.191-2.127 3.748.012 1.023 1.601 1.023 1.59 0-.008-.842.624-1.539 1.216-2.154-.242.58-.467 1.164-.626 1.771-.259.993 1.272 1.412 1.533.422 1.376-5.246 6.437-9.297 11.169-11.488.929-.432.123-1.803-.8-1.374z"/>
          </g>
          <g>
            <path fill="#00AD66" d="M277.597 199.199c-1.797.861-2.917 2.697-3.552 4.52-.336.971 1.198 1.385 1.534.422.505-1.456 1.391-2.885 2.818-3.569.924-.447.119-1.814-.8-1.373z"/>
          </g>
          <g>
            <path fill="#00AD66" d="M280.78 200.576c-1.317.789-2.62 1.59-3.604 2.793-.645.784.475 1.917 1.124 1.123.904-1.105 2.07-1.82 3.281-2.545.879-.525.08-1.9-.801-1.371z"/>
          </g>
          <g>
            <path fill="#00AD66" d="M283.077 200.344c-.483 1.143-1.398 2.012-1.979 3.098-.485.904.888 1.705 1.372.803.582-1.088 1.495-1.954 1.98-3.099.395-.932-.974-1.744-1.373-.802z"/>
          </g>
          <g>
            <path fill="#00AD66" d="M283.718 197.225c-1.002-.201-1.427 1.332-.423 1.533 2.127.428 1.501 3.238 1.481 4.828-.013 1.023 1.577 1.023 1.59 0 .03-2.391.432-5.744-2.648-6.361z"/>
          </g>
          <g>
            <path fill="#00AD66" d="M288.539 200.354c-.919 1.035-2.119 2.186-1.754 3.701.239.996 1.772.573 1.533-.424-.187-.77.891-1.642 1.345-2.152.68-.763-.441-1.891-1.124-1.125z"/>
          </g>
          <g>
            <path fill="#00AD66" d="M291.503 198.125c-.299-.979-1.834-.562-1.535.421.294.96.679 4.036-.562 4.53-.94.376-.53 1.912.423 1.533 2.293-.913 2.28-4.494 1.674-6.484z"/>
          </g>
          <g>
            <path fill="#00AD66" d="M297.114 201.223c-.356.954-1.079 1.719-1.465 2.668-.384.952 1.153 1.359 1.533.424.385-.945 1.102-1.701 1.465-2.669.359-.964-1.178-1.375-1.533-.423z"/>
          </g>
          <g>
            <path fill="#00AD66" d="M296.12 196.363c-.969.32-.553 1.857.423 1.53 2.481-.823 3.045 4.319 2.028 5.72-.604.832.775 1.623 1.373.805 1.833-2.526.172-9.385-3.824-8.055z"/>
          </g>
          <g>
            <path fill="#00AD66" d="M302.968 200.361c-.108.477-.208.954-.315 1.429-.286-.214-.688-.278-1.029.028-.68.613-1.045 1.371-1.095 2.283-.055 1.025 1.535 1.02 1.59 0 .004-.068.041-.115.054-.178.13.688 1.288.879 1.555.044.332-1.042.532-2.118.774-3.185.227-.998-1.306-1.421-1.534-.421z"/>
          </g>
          <g>
            <path fill="#00AD66" d="M304.937 195.436c-.515-.885-1.889-.086-1.373.805 1.116 1.92 2.493 4.97.813 6.955-.657.777.462 1.908 1.124 1.124 2.221-2.625.977-6.227-.564-8.884z"/>
          </g>
          <g>
            <path fill="#00AD66" d="M307.696 200.344c-.466 1.049-.844 2.084-.885 3.242-.035 1.023 1.555 1.021 1.59 0 .032-.863.319-1.658.666-2.44.413-.929-.957-1.738-1.371-.802z"/>
          </g>
          <g>
            <path fill="#00AD66" d="M309.396 200.486c-.013 1.035-.163 1.998-.753 2.869-.575.852.802 1.646 1.373.805.738-1.094.954-2.375.97-3.674.012-1.024-1.578-1.024-1.59 0z"/>
          </g>
          <g>
            <path fill="#00AD66" d="M311.355 193.898c-.764-.68-1.89.44-1.124 1.123 1.975 1.768 2.439 6.267 1.338 8.592-.438.922.934 1.729 1.371.805 1.401-2.955.959-8.245-1.585-10.52z"/>
          </g>
          <g>
            <path fill="#00AD66" d="M314.754 201.291c-.532.746-.899 1.564-1.199 2.428-.337.972 1.199 1.385 1.533.422.257-.738.583-1.411 1.039-2.049.596-.836-.782-1.629-1.373-.801z"/>
          </g>
          <g>
            <path fill="#00AD66" d="M319.785 200.957c-.394.34-.751.688-1.055 1.075-.104-.526-.813-.948-1.355-.473-.657.575-1.252 1.198-1.674 1.97-.493.898.88 1.7 1.372.801.282-.512.668-.924 1.083-1.316-.04.093-.092.178-.126.275-.341.971 1.195 1.382 1.535.421.243-.692.804-1.163 1.344-1.63.778-.67-.352-1.789-1.124-1.123z"/>
          </g>
          <g>
            <path fill="#00AD66" d="M323.056 200.7c-.649.827-1.226 1.925-2.162 2.456-.891.506-.092 1.88.801 1.373 1.091-.62 1.734-1.745 2.485-2.705.624-.797-.492-1.929-1.124-1.124z"/>
          </g>
          <g>
            <path fill="#00AD66" d="M326.122 199.502c-.313 1.162-.771 3.348-2.198 3.574-1.011.161-.581 1.692.422 1.533 2.077-.33 2.846-2.962 3.31-4.686.265-.991-1.267-1.411-1.534-.421z"/>
          </g>
        </g>
      </g>
    </g>
    <g>
      <path fill="#FFF" d="M364.955 261.314H520.99V371.05H364.955z"/>
      <g>
        <path fill="#C6AA63" d="M524.99 375.051H360.955V257.314H524.99v117.737zm-160.035-4H520.99V261.314H364.955v109.737z"/>
      </g>
      <g>
        <path fill="#515151" d="M464.641 346.37c0 1.464-1.187 2.651-2.648 2.651h-65.794c-1.464 0-2.649-1.188-2.649-2.651v-43.425c0-1.463 1.186-2.648 2.649-2.648h65.794c1.462 0 2.648 1.186 2.648 2.648v43.425z"/>
        <path fill="#F4F4F4" d="M395.945 304.289h66.298v42.337h-66.298z"/>
        <path fill="#878787" d="M384.763 349.021h87.864v1.6h-87.864z"/>
        <path fill="#BABABA" d="M436.251 349.021c0 .8-1.023.8-1.023.8H423.17s-1.021 0-1.021-.8h-37.385v1.6H472.629v-1.6h-36.378z"/>
        <path fill="#878787" d="M428.708 350.621h-44.126s.994 1.594 3.712 1.594h80.828c2.717 0 3.505-1.594 3.505-1.594h-43.919z"/>
        <path fill="#DDDDE8" d="M395.945 304.289h66.298v4.793h-66.298z"/>
        <circle fill="#9F9FBC" cx="397.267" cy="306.453" r=".629"/>
        <circle fill="#9F9FBC" cx="399.123" cy="306.453" r=".628"/>
        <circle fill="#9F9FBC" cx="400.978" cy="306.453" r=".628"/>
        <path fill="#F4F4F4" d="M403.136 305.887h52.717v1.597h-52.717zM456.652 305.887h4.793v1.597h-4.793z"/>
        <g>
          <path fill="#D37F0F" d="M500.527 338.256c-3.403 0-6.162 2.761-6.162 6.16 0 3.406 2.759 6.166 6.162 6.166s6.161-2.76 6.161-6.166c0-3.399-2.757-6.16-6.161-6.16zm0 9.523c-1.854 0-3.36-1.506-3.36-3.363 0-1.854 1.506-3.357 3.36-3.357 1.855 0 3.358 1.504 3.358 3.357.001 1.857-1.502 3.363-3.358 3.363z"/>
          <path fill="#FCC883" d="M500.584 347.854c0 2.408-1.952 4.361-4.36 4.361h-8.85c-2.409 0-4.362-1.953-4.362-4.361v-8.848c0-2.41 1.953-4.363 4.362-4.363h8.85c2.408 0 4.36 1.953 4.36 4.363v8.848z"/>
        </g>
        <path fill="#F7F7F7" d="M489.614 333.128s-.139-.067-.342-.239c-.197-.178-.497-.443-.705-.881-.097-.215-.193-.47-.205-.758-.03-.284.02-.59.121-.883.104-.29.257-.574.453-.819.18-.243.448-.483.62-.68.229-.217.38-.429.524-.644l.187-.353c.038-.124.09-.241.119-.364.05-.248.077-.492.053-.732-.021-.234-.066-.461-.137-.664-.137-.41-.31-.738-.454-.956-.141-.218-.234-.339-.234-.339s.127.084.317.271c.183.191.449.479.661.904.21.416.367.991.263 1.609-.024.15-.078.301-.117.456-.058.147-.132.29-.204.436-.177.279-.381.55-.589.749-.229.247-.422.405-.597.629-.174.213-.323.437-.421.668-.092.232-.163.467-.16.7-.018.231.035.451.089.653.126.402.33.72.49.922.161.209.268.315.268.315zM493.79 333.293s-.195-.098-.491-.346c-.146-.123-.315-.285-.496-.486-.178-.209-.362-.459-.51-.771-.14-.312-.283-.679-.295-1.087-.044-.406.026-.844.169-1.265.154-.416.371-.819.652-1.175.127-.191.294-.34.447-.509l.439-.464c.138-.154.321-.308.427-.459.107-.156.225-.301.329-.461.088-.17.178-.338.264-.504.055-.175.127-.35.169-.523.071-.355.112-.709.079-1.047-.033-.337-.096-.662-.196-.953-.095-.293-.208-.557-.323-.787-.106-.231-.227-.425-.33-.58-.199-.314-.334-.486-.334-.486s.183.12.453.392c.135.136.295.308.458.521.167.211.346.465.488.773.157.297.286.648.358 1.042.082.39.087.821.023 1.263-.04.215-.112.43-.173.652-.081.209-.188.414-.289.623-.121.197-.268.387-.406.583-.138.196-.289.322-.437.491l-.454.461c-.136.146-.296.277-.401.438-.249.303-.461.624-.604.952-.132.336-.233.674-.229 1.005-.022.33.048.647.126.938.096.287.209.545.334.767.128.223.257.404.369.552.228.294.384.45.384.45z"/>
      </g>
      <path fill="#F7F7F9" d="M495.886 343.428c0 2.258-1.829 4.09-4.088 4.09-2.258 0-4.089-1.832-4.089-4.09 0-2.256 1.831-4.088 4.089-4.088 2.259 0 4.088 1.832 4.088 4.088z"/>
      <path fill="#DEDEE2" d="M403.136 315.11h13.566v13.565h-13.566zM421.134 315.11h35.519v1.07h-35.519zM421.134 318.367h35.519v1.071h-35.519zM421.134 321.358h35.519v1.071h-35.519zM421.134 324.125h35.519v1.07h-35.519zM421.134 326.891h35.519v1.072h-35.519zM421.134 329.656h35.519v1.072h-35.519zM421.134 332.424h35.519v1.07h-35.519zM421.134 335.189h35.519v1.07h-35.519zM421.134 337.955h35.519v1.071h-35.519zM421.134 340.721h35.519v1.072h-35.519z"/>
    </g>
    <g>
      <path fill="#006050" d="M362.896 136.895h149.941V243.45H362.896z"/>
      <g>
        <path fill="#C6AA63" d="M514.95 245.254H360.93V134.641h154.02v110.613zm-150.019-4h146.02V138.641h-146.02v102.613z"/>
      </g>
      <g>
        <path fill="#FFA785" d="M448.388 190.241l2.44-1.878 33.443-11.268-5.817-12.117-31.848 14.905-8.502.483c0 .001.576 8.723 10.284 9.875z"/>
        <path fill="#ECEFF9" d="M477.364 163.523s7.997 15.268 7.877 15.51c-.121.242 22.457-9.209 22.457-9.209v-20.598l-30.334 14.297z"/>
        <path fill="#FFA57D" d="M454.465 142.07l-19.941 32.454-8.414 10.567 14.661 7.876 2.548-11.461 22.778-32.279z"/>
        <path fill="#F48E6E" d="M370.613 182.061l.606-13.087 45.413 4.726 15.899-1.938 1.333 14.298-14.541 4.181-3.391-6.12z"/>
        <path fill="#FFBDA9" d="M366.673 205.018l49.26-13.504s4.064-10.077 8.212-11.946c4.146-1.868 3.542-1.505 3.542-1.505l2.544 5.331 10.179-5.359s2.424-.615 2.545.634c.12 1.25-2.183 2.545-2.183 2.545l-6.3 4.727 9.694-2.908s2.907-1.092 3.392.483c.485 1.575-2.664 2.545-2.664 2.545l-5.938 3.019 6.422-2.412s2.041-.364 2.232.848c.19 1.211-1.626 1.564-1.626 1.564l-7.149 3.678 4.362-1.121s1.333-.301 1.333 1.121-.849 1.059-.849 1.059l-13.571 5.575s-5.938 3.85-11.754 2.349l-51.683 17.941v-14.664z"/>
        <path fill="#DB8558" d="M424.535 142.07l-1.697 19.271-16.964 15.631s1.011 3.599 6.785 0c5.774-3.6 3.973-2.448 3.973-2.448s4.391-2.299 4.268 12.626c0 0 7.27 15.972 19.993 1.928 0 0-4.847-24.103-5.574-27.131l1.868-19.877h-12.652z"/>
        <path fill="#F48E6E" d="M475.667 236.088l-1.212-3.982-30.777-29.443-11.026-2.576L435.923 188l-6.18-9.745s-1.232-1.158 0-3.099c1.233-1.94 3.029 1.212 3.029 1.212l8.725 8.967-3.271-7.451s-1.212-1.638.12-2.485c1.333-.849 2.061 1.091 2.061 1.091l10.058 17.328 39.017 32.231 5.09 10.04h-18.905z"/>
        <path fill="#FFA57D" d="M430.917 236.088s-3.08-34.344-2.756-33.857-11.024-19.777-11.024-19.777-1.135-1.459 0-2.109c1.136-.647 1.945.811 1.945.811l5.351 6.81-6.16-11.997s-1.297-1.783.161-2.594c1.459-.811 2.27.811 2.27.811l6.323 9.891-4.216-13.457s-.99-1.782.965-2.594c1.954-.811 2.115.972 2.115.972l5.36 12.884s-.342-11.633-.398-11.348-.628-3.023.798-3.137c1.426-.114 2.168 2.223 2.168 2.223l1.71 11.863s1.026 5.133 2.966 4.904c1.938-.229 2.452-2.852 2.452-2.852s2.51-5.932 4.904-4.962c0 0 1.712.515 0 3.252 0 0-1.769 2.851-3.421 8.325 0 0-.629 6.502-2.282 8.213l4.927 37.727h-14.158z"/>
        <g>
          <path fill="#262626" d="M448.827 178.0935l3.522-1.334 3.8827 10.2518-3.522 1.334z"/>
          <circle fill="#262626" cx="452.516" cy="182.521" r="2.962"/>
          <circle fill="#FFF" cx="452.517" cy="182.522" r="2.399"/>
        </g>
        <g fill="#002475">
          <path d="M429.623 203.164c-.045.483-.571.779-1.17.637-.599-.141-1.022-.649-.953-1.108.069-.458.588-.715 1.162-.597.574.117 1.006.584.961 1.068zM431.923 202.922c-.021.501-.524.86-1.125.771-.6-.088-1.044-.571-.996-1.05.048-.483.55-.797 1.122-.733.57.068 1.019.508.999 1.012zM434.183 202.457c.005.52-.476.936-1.071.901-.597-.036-1.06-.492-1.036-.991.024-.505.502-.878 1.069-.862.567.015 1.03.428 1.038.952zM436.38 201.775c.034.538-.416 1.008-1.005 1.025-.589.016-1.069-.412-1.072-.932-.001-.52.449-.952 1.007-.986.558-.035 1.037.354 1.07.893zM438.501 200.885c.063.551-.352 1.074-.93 1.143-.579.068-1.074-.334-1.104-.869-.03-.539.39-1.02.935-1.103.544-.086 1.036.278 1.099.829zM440.531 199.795c.094.564-.283 1.136-.846 1.252-.564.117-1.073-.254-1.134-.804-.061-.552.324-1.085.852-1.214.53-.132 1.032.203 1.128.766z"/>
        </g>
        <g>
          <path fill="#D32300" d="M442.244 203.102c.102.415-.278.93-.855 1.135-4.181 1.467-8.588 2.05-12.923 1.706-.601-.048-1.113-.411-1.149-.777-.037-.367.411-.62 1.002-.579 4.283.29 8.624-.34 12.725-1.838.563-.206 1.1-.061 1.2.353 0-.001 0-.001 0 0z"/>
        </g>
        <path fill="#A89CFF" d="M373.018 201.314l6.573 16.748s-13.212 6.529-12.918 5.877 0-21.948 0-21.948l6.345-.677z"/>
        <path fill="#A4FFF0" d="M366.673 183.896h3.94l.925-18.917h-4.135z"/>
        <path fill="#FFE6A6" d="M452.518 141.021l15.212 9.577 9.634-9.577z"/>
      </g>
    </g>
    <g>
      <path fill="#5B5B5B" d="M182.273 231.887h157.241v111.489H182.273z"/>
      <g>
        <path fill="#C6AA63" d="M343.515 347.376H180.013V230.024h163.502v117.352zm-159.502-4h155.502V234.024H184.013v109.352z"/>
      </g>
      <g>
        <path fill="#3D3D3D" d="M203.206 267.165s-1.188 3.413-3.169 4.987l4.197-1.43c0 .001.45-2.145-1.028-3.557z"/>
        <path fill="#94BBEA" d="M199.66 296.538s-.027 1.171 4.666-.344c0 0 4.483-.513 4.629-1.976v-1.135l-2.904-.373-3.401.746-2.808 2.364-.182.718z"/>
        <path fill="#FFB37B" d="M200.37 296.785l8.166-2.15s-.59-10.131-1.829-11.955c-1.239-1.826-9.278 3.485-9.278 3.485s2.822 5.474 2.941 10.62z"/>
        <path fill="#CCE0FF" d="M205.549 280.223s5.539 1.973 6.761 6.967l-5.162 1.275c-.001 0-1.046-5.793-1.599-8.242z"/>
        <path fill="#FFB37B" d="M213.968 278.553c-1.719 0-3.111 1.533-3.111 3.424 0 .398.065.781.18 1.137-.563.258-.975.787-1.069 1.42l-.023-.006-.775 3.438c-.113.241-.179.51-.179.795 0 1.031.836 1.865 1.867 1.865.88 0 1.615-.609 1.813-1.428v-.003c.005-.022.012-.046.017-.07l.896-3.725c.002-.01.003-.019.007-.029.124.017.25.028.379.028 1.717 0 3.111-1.532 3.111-3.422-.002-1.891-1.396-3.424-3.113-3.424zM200.157 277.367l-.12 2.707s1.311 1.801 3.407.927c0 0-.582-2.666.35-3.634h-3.637z"/>
        <g>
          <path fill="#C4C4C4" d="M291.756 321.447l1.226-2.851-84.085-41.784c-.255-.178-.562-.282-.895-.282-.868 0-1.571.704-1.571 1.571 0 .591.326 1.106.81 1.373l.001.002c.031.016.064.032.098.048l84.416 41.923z"/>
          <circle fill="#A0A0A0" cx="292.585" cy="320.115" r="1.571"/>
        </g>
        <path fill="#B5D0F7" d="M199.66 296.538c.415-1.245 8.879-5.062 9.295-2.319 0 0 1.38-8.107-3.406-13.996l-2.264-.402c.403.736-2.994.598-3.248.254 0 0-3.872.194-3.69 3.892.182 3.695 3.222 5.573 3.313 12.571z"/>
        <path fill="#FFC392" d="M206.707 272.838s.048 4.529-2.199 5.715c0 0-2.925 1.184-4.351-1.186l-1.546-3.121.35-1.98 1.455-1.455 2.11.35 2.084.43 2.097 1.247z"/>
        <path fill="#FFC392" d="M206.762 272.838s.048 4.529-2.199 5.715c0 0-2.925 1.184-4.351-1.186l-1.546-3.121.35-1.98 1.455-1.455 2.109.35 2.084.43 2.098 1.247z"/>
        <path fill="#CCE0FF" d="M203.257 284.97c-.075-.083-.155-.163-.239-.237l-3.372-3.374c-.545-.608-1.336-.993-2.217-.993-1.645 0-2.979 1.332-2.979 2.978 0 .608.184 1.175.497 1.646l.001.002c.208.313.473.581.779.796l3.167 3.23c.021.021.04.043.063.064l.001.001c.537.523 1.269.848 2.077.848 1.645 0 2.979-1.335 2.979-2.979.001-.763-.287-1.455-.757-1.982z"/>
        <path fill="#FFC392" d="M216.705 281.197c0-1.838-1.392-3.328-3.11-3.328s-3.113 1.49-3.113 3.328c0 .303.042.594.112.871l-6.596 5.197-1.058-1.055c-.351-.553-.966-.92-1.668-.92-1.092 0-1.976.885-1.976 1.975 0 .763.433 1.424 1.067 1.752l2.072 1.943c.361.479.932.791 1.578.791.388 0 .748-.113 1.052-.307h.003l.007-.004c.112-.074.22-.156.315-.25l7.953-6.283c.15-.109.281-.241.396-.389 1.651-.08 2.966-1.534 2.966-3.321z"/>
        <path fill="#FF7878" d="M223.484 313.438v-.003l-.038-.047c-.025-.036-.051-.07-.079-.102l-14.204-18.082s-1.578-2.955-8.793 1.58c-.255.11-.485.262-.688.445-.004.002-.008.004-.013.006l-.006.011c-.233.214-.425.472-.563.76l-4.513 6.09s-.003.003-.004.003c-.465.456-.754 1.09-.754 1.793 0 .072.005.143.01.213-.007.469.081 1.007.345 1.604l4.438 8.001c.388.887 1.271 1.507 2.3 1.507 1.387 0 2.511-1.125 2.511-2.511 0-.386-.09-.749-.245-1.075.009-.012.019-.023.028-.033l-4.439-7.043 6.346-7.289 14.307 17.125c.457.621 1.19 1.027 2.023 1.027 1.386 0 2.51-1.125 2.51-2.511-.001-.55-.18-1.055-.479-1.469z"/>
        <g>
          <path fill="#B7B7B7" d="M205.572 320.861c0 .384-.9.697-2 .697h-9.382c-1.1 0-2-.313-2-.697 0-.383.9-.696 2-.696h9.382c1.1 0 2 .314 2 .696z"/>
        </g>
        <path fill="#FFC392" d="M201.107 318.322l2.987-.828-1.533-3.066c-.266-.535-.816-.904-1.454-.904-.898 0-1.625.729-1.625 1.625 0 .23.049.449.135.647l.001.003c.052.115.117.227.193.327l1.296 2.196zM222.46 318.889l2.881-1.145-1.853-2.883c-.322-.505-.91-.813-1.545-.743-.892.097-1.536.897-1.439 1.79.024.229.097.441.204.629v.002c.064.111.143.213.229.305l1.523 2.045z"/>
        <path fill="#D8D8D8" d="M204.888 317.295v2.87h-12.065s-.759-2.543 6.488-2.638c0 0 2.977.994 5.093-.266.32-.191.484.034.484.034zM220.014 320.243s.88-2.979 4.077-3.212c3.196-.231 3.946 3.212 3.946 3.212h-8.023z"/>
        <g>
          <path fill="#B7B7B7" d="M228.173 320.889c0 .381-.9.691-2 .691h-4.309c-1.1 0-2-.311-2-.691s.9-.691 2-.691h4.309c1.099-.001 2 .31 2 .691z"/>
        </g>
        <path d="M200.157 277.367s-2.714-1.469-2.729-7.006c-.009-3.338 1.347 1.205 1.347 1.205l.43-4.125.832 1.918s1.604-.652 0-3.548c0 0 2.842 1.11 2.903 3.815 0 0 2.473-1.565 1.649-2.69-.824-1.125 5.305 2.722 2.117 5.901l-6.67-.686c.001.001-.751 2.129.121 5.216z"/>
        <path fill="#212121" d="M206.707 272.838s2.343-.328 2.126-3.022c0 0-2.15 2.194-4.715 1.911 0 0 .891-.717.718-1.803 0 0-.515 1.806-4.799 2.229l6.67.685z"/>
        <path fill="#3D3D3D" d="M199.205 267.441s-.582 6.047-.594 6.068c-.011.021-.047 1.676 1.426 3.781 0 .001-1.584-1.954-.832-9.849z"/>
        <path fill="#232323" d="M200.037 265.812s3.657 3.739 0 6.341c0 0 2.376-.342 2.903-2.525 0-.001.173-2.302-2.903-3.816z"/>
        <path fill="#C17542" d="M201.397 273.932l1.037.406-1.037.379.358-.391zM205.227 274.223l-1.07.308.996.472-.318-.423z"/>
        <g>
          <path fill="#C17542" d="M203.461 275.755s.188-.038.37.044c.095.039.191.107.262.239.073.113.125.37-.041.636-.076.104-.206.199-.287.227-.093.047-.188.046-.249.041-.148 0-.237-.064-.321-.123-.149-.128-.213-.304-.213-.304s.111-.159.223-.271c.047-.068.113-.119.124-.162.021-.014.006-.046-.01-.037 0 0-.065.023-.09.063-.059.121-.02.183.012.142.031-.026.06-.099.091-.173.077-.194.129-.322.129-.322z"/>
        </g>
        <path fill="#7F1F2A" d="M201.915 276.895s.931.709 2.1.229c0 0 .033 1.104-1.073 1.137-.427.012-1.453-.253-1.027-1.366z"/>
        <path fill="#F7F7F7" d="M204.015 277.123c-1.169.48-2.1-.229-2.1-.229-.016.042-.024.08-.037.119.147.532.845.677 1.187.668.502-.014.784-.219.945-.45.007-.067.005-.108.005-.108z"/>
        <path fill="#B73B4D" d="M202.941 278.26c.302-.008.517-.098.673-.221-.141-.08-.325-.129-.532-.129-.101 0-.195.012-.283.031-.142-.113-.369-.188-.628-.188-.089 0-.172.013-.251.029.222.378.746.488 1.021.478z"/>
        <circle fill="#CEA984" cx="274.636" cy="317.576" r="4.119"/>
        <path fill="#CCA079" d="M329.946 297.244c0 13.504-10.946 24.449-24.451 24.449-13.504 0-24.45-10.945-24.45-24.449 0-13.506 10.946-24.453 24.45-24.453 13.505 0 24.451 10.947 24.451 24.453z"/>
      </g>
      <g>
        <path fill="#878787" d="M189.856 321.693s2.133-.035 5.865-.097c3.732-.044 9.064-.108 15.463-.184 6.398-.045 13.863-.097 21.861-.153 7.998-.021 16.529-.043 25.061-.066 8.531.023 17.063.045 25.061.066 7.998.056 15.463.107 21.861.152 6.398.076 11.73.14 15.463.184 3.732.063 5.865.098 5.865.098s-2.133.035-5.865.098c-3.732.044-9.064.107-15.463.184-6.398.045-13.863.097-21.861.152-7.998.021-16.529.043-25.061.066-8.531-.023-17.063-.046-25.061-.066-7.998-.057-15.463-.108-21.861-.153-6.398-.075-11.73-.14-15.463-.184-3.732-.061-5.865-.097-5.865-.097z"/>
      </g>
    </g>
  </g>
</svg>
