<svg id="Layer_3" xmlns="http://www.w3.org/2000/svg" width="1703.827" height="689.953" viewBox="0 0 1703.827 689.953">
  <style>
		.st0{fill:#F7F7F7;}
  </style>
  <path class="st0" d="M1696.511 469.314V214.898c4.727-11.382 7.315-23.663 7.315-36.479 0-39.715-24.753-74.356-61.468-92.721-21.616-29.616-59.464-49.251-102.543-49.251-53.854 0-99.529 30.688-115.54 73.205-1.594-.338-3.199-.649-4.817-.93-19.856-35.248-61.262-59.493-109.132-59.493-31.657 0-60.487 10.604-82.13 27.98-10.019-5.05-21.624-7.953-34.01-7.953-15.996 0-30.697 4.831-42.343 12.901-22.147-20.291-53.34-32.929-87.901-32.929-30.865 0-59.041 10.084-80.49 26.693-16.353-15.501-39.743-25.209-65.724-25.209-5.215 0-10.325.396-15.296 1.146C881.168 20.792 842.382 0 798.051 0c-60.44 0-110.577 38.648-120.042 89.297-17.852-18.286-44.365-29.878-73.968-29.878-34.984 0-65.652 16.187-82.808 40.482-22.241-23.707-55.921-38.862-93.665-38.952-49.105-.118-91.49 25.293-110.823 61.978-14.888-16.168-37.667-26.52-63.212-26.52-39.319 0-72.108 24.501-79.604 57.04-15.836-6.618-33.559-10.326-52.271-10.326-53.239 0-98.485 29.988-114.982 71.748H0v260.216h6.676c16.497 41.76 61.743 71.747 114.982 71.747 18.711 0 36.434-3.708 52.271-10.325 7.496 32.539 40.285 57.04 79.604 57.04 25.545 0 48.324-10.352 63.212-26.519 19.333 36.684 61.718 62.094 110.823 61.977 37.744-.093 71.424-15.245 93.665-38.952 17.156 24.295 47.824 40.482 82.808 40.482 29.603 0 56.116-11.592 73.968-29.878 9.464 50.647 59.602 89.297 120.042 89.297 44.331 0 83.118-20.793 104.382-51.859 4.971.75 10.081 1.146 15.296 1.146 25.98 0 49.371-9.709 65.724-25.209 21.449 16.609 49.625 26.694 80.49 26.694 34.562 0 65.754-12.639 87.901-32.929 11.646 8.069 26.347 12.9 42.343 12.9 12.386 0 23.991-2.904 34.01-7.952 21.643 17.374 50.473 27.98 82.13 27.98 47.87 0 89.275-24.246 109.132-59.494 1.618-.281 3.224-.592 4.817-.93 16.011 42.518 61.686 73.203 115.54 73.203 43.079 0 80.927-19.633 102.543-49.25 36.715-18.363 61.468-53.006 61.468-92.72 0-12.815-2.589-25.097-7.315-36.478v-5.742z"/>
</svg>
