<svg id="Layer_1" xmlns="http://www.w3.org/2000/svg" width="1337.926" height="420" viewBox="0 0 1337.926 420">
  <style>
	.st0{fill:#FC622C;}
  </style>
  <g>
    <path class="st0" d="M632.037 202.903c0 42.38-25.739 70.718-64.999 70.718-19.5 0-34.839-7.799-44.979-21.839V322.5H482.02V132.186h40.039v20.539c9.88-14.039 25.22-21.84 44.199-21.84 39.259 0 65.779 28.859 65.779 72.018zm-40.56-1.299c0-22.359-14.039-38.479-34.579-38.479s-34.839 15.859-34.839 38.479c0 23.14 14.3 38.739 34.839 38.739 20.54 0 34.579-15.861 34.579-38.739zM796.615 202.123c0 42.64-30.159 71.498-74.879 71.498-44.979 0-75.138-28.858-75.138-71.498 0-42.898 30.159-71.238 75.138-71.238 44.72 0 74.879 28.34 74.879 71.238zm-109.718.521c0 22.88 14.04 38.479 34.839 38.479 20.54 0 34.84-15.6 34.84-38.479s-14.3-38.479-34.84-38.479c-20.799-.001-34.839 15.599-34.839 38.479zM961.193 272.063h-39.779v-20.54c-9.88 14.3-24.96 22.099-44.199 22.099-39.779 0-66.038-28.858-66.038-72.018 0-42.639 25.999-70.979 64.998-70.979 19.76 0 35.1 7.8 45.239 22.1V79.146h39.779v192.917zm-39.779-69.419c0-22.88-14.3-38.739-34.839-38.739-20.8 0-35.1 16.119-35.359 38.739.26 22.88 14.3 38.739 35.359 38.739 20.539 0 34.839-15.86 34.839-38.739zM1042.834 92.406c0 13-8.84 22.359-21.58 22.359-12.739 0-21.579-9.359-21.579-22.359s8.84-22.359 21.579-22.359c12.741 0 21.58 9.359 21.58 22.359zm-41.599 179.657V132.186h40.039v139.877h-40.039zM1208.449 214.344h-100.357c4.68 17.68 18.199 28.079 36.139 28.079 13.26 0 25.74-5.2 35.359-14.819l21.06 21.318c-14.039 15.6-34.579 24.699-59.799 24.699-44.719 0-73.058-28.599-73.058-70.978 0-43.159 29.379-71.759 72.018-71.759 49.139.001 72.018 32.501 68.638 83.46zm-37.439-23.66c-.521-18.459-12.48-30.42-30.939-30.42-17.68 0-29.64 11.961-32.76 30.42h63.699zM1336.885 145.965l-13.779 27.299c-15.34-8.58-30.939-13.52-42.64-13.52-9.359 0-16.119 3.12-16.119 10.4 0 21.059 73.838 10.399 73.578 59.799 0 28.6-25.22 43.678-56.938 43.678-22.62 0-44.719-6.759-60.579-19.498l13-27.04c14.56 11.18 33.279 17.419 48.619 17.419 10.14 0 17.68-3.379 17.68-10.919 0-22.36-72.539-10.399-72.539-59.539 0-28.859 24.7-43.679 55.119-43.679 19.239 0 38.999 5.72 54.598 15.6z"/>
  </g>
  <g>
    <path class="st0" d="M387.88 32.354v356h-356v-356h356m32-32h-420v420h420v-420z"/>
  </g>
  <path class="st0" d="M-720.12 1.354v14h-14v-14h14m1-1h-16v16h16v-16z"/>
  <g>
    <path class="st0" d="M-730.12 4.354h1v8h-1z"/>
    <g>
      <path class="st0" d="M-727.105 10.136c-.169-.014-.334-.04-.494-.08l.242-.971c.106.026.216.045.329.053l-.077.998zm.497-.003l-.083-.996c.112-.01.222-.028.329-.056l.248.969c-.16.041-.325.069-.494.083zm-1.465-.238c-.155-.067-.303-.147-.443-.239l.548-.836c.093.061.19.113.292.157l-.397.918zm2.434-.009l-.409-.912c.104-.047.203-.101.296-.162l.55.836c-.138.09-.284.169-.437.238zm-3.27-.533c-.124-.112-.238-.235-.341-.367l.786-.617c.069.087.145.169.228.244l-.673.74zm4.098-.011l-.677-.736c.082-.075.158-.157.226-.245l.791.611c-.103.132-.216.256-.34.37zm-4.714-.773c-.08-.146-.148-.298-.204-.458l.945-.328c.037.107.083.209.136.306l-.877.48zm5.327-.015l-.88-.475c.053-.099.098-.201.134-.308l.946.324c-.054.16-.121.313-.2.459zm-5.656-.926c-.028-.161-.042-.326-.043-.495l1-.008c.001.114.011.227.029.335l-.986.168zm5.979-.019l-.987-.16c.018-.109.027-.222.027-.336l1-.03v.03c.001.169-.014.334-.04.496zm-4.997-.818l-.988-.156c.027-.168.067-.331.12-.487l.947.32c-.035.103-.061.212-.079.323zm4.007-.036c-.02-.111-.049-.219-.085-.322l.941-.336c.056.156.099.318.128.484l-.984.174zm-3.795-.595l-.882-.473c.079-.146.169-.286.27-.418l.794.607c-.067.09-.128.185-.182.284zm3.571-.032c-.054-.098-.117-.191-.186-.278l.782-.623c.104.13.196.269.278.415l-.874.486zm-3.164-.5l-.682-.73c.121-.113.251-.217.389-.31l.558.83c-.094.063-.182.134-.265.21zm2.75-.023c-.083-.074-.173-.143-.268-.204l.538-.842c.141.089.273.19.396.302l-.666.744zm-2.193-.346l-.41-.912c.152-.068.31-.125.475-.167l.249.969c-.11.028-.214.065-.314.11zm1.627-.015c-.102-.043-.207-.078-.316-.104l.236-.973c.164.04.323.093.476.159l-.396.918zm-.983-.153l-.09-.996c.166-.014.335-.017.501-.004l-.078.996c-.111-.009-.223-.007-.333.004z"/>
    </g>
  </g>
  <g>
    <path class="st0" d="M116.88 96.354h29v237h-29z"/>
    <g>
      <path class="st0" d="M206.289 267.019c-5.014-.406-9.925-1.188-14.664-2.376l7.172-28.806c3.159.783 6.419 1.334 9.751 1.564l-2.259 29.618zm14.735-.087l-2.462-29.56c3.333-.288 6.592-.841 9.766-1.65l7.36 28.748c-4.738 1.215-9.65 2.056-14.664 2.462zm-43.454-7.071c-4.593-2.001-8.998-4.377-13.143-7.102l16.257-24.805c2.753 1.797 5.652 3.36 8.68 4.665l-11.794 27.242zm72.216-.261l-12.142-27.065c3.072-1.392 6.014-2.986 8.795-4.813l16.315 24.808c-4.085 2.695-8.418 5.042-12.968 7.07zm-97.022-15.823c-3.666-3.332-7.057-6.984-10.114-10.896l23.329-18.316c2.043 2.581 4.303 5.015 6.752 7.246l-19.967 21.966zm121.611-.319l-20.082-21.851c2.434-2.231 4.68-4.665 6.694-7.272l23.473 18.141c-3.057 3.94-6.404 7.591-10.085 10.982zm-139.897-22.922c-2.362-4.317-4.391-8.839-6.057-13.591l28.052-9.737c1.086 3.188 2.448 6.201 4.027 9.069l-26.022 14.259zm158.068-.464l-26.111-14.083c1.565-2.929 2.898-5.97 3.984-9.129l28.081 9.621c-1.608 4.724-3.607 9.274-5.954 13.591zm-167.82-27.471c-.827-4.783-1.261-9.68-1.29-14.693l29.675-.23c.029 3.39.319 6.722.855 9.938l-29.24 4.985zm177.426-.551l-29.297-4.754c.536-3.246.811-6.578.811-9.968l29.675-.898v.898c-.001 5.014-.422 9.91-1.189 14.722zm-148.287-24.286l-29.328-4.637c.796-4.984 2-9.823 3.564-14.46l28.111 9.504c-1.044 3.073-1.84 6.29-2.347 9.593zm118.887-1.072c-.579-3.303-1.449-6.491-2.536-9.564l27.937-9.967c1.666 4.637 2.942 9.446 3.81 14.373l-29.211 5.158zm-112.598-17.648l-26.169-14.025c2.333-4.349 5.013-8.492 8.012-12.403l23.561 18.025c-2.015 2.635-3.826 5.446-5.404 8.403zm105.948-.956c-1.608-2.899-3.463-5.682-5.521-8.26l23.212-18.489c3.071 3.854 5.825 7.97 8.245 12.317l-25.936 14.432zm-93.878-14.837l-20.229-21.678c3.58-3.361 7.449-6.434 11.549-9.187l16.548 24.632c-2.797 1.884-5.421 3.972-7.868 6.233zm81.591-.668c-2.478-2.201-5.129-4.231-7.941-6.057l15.968-24.98c4.173 2.638 8.1 5.652 11.766 8.956l-19.793 22.081zm-65.074-10.287L176.569 95.23c4.507-2.03 9.202-3.709 14.084-4.956l7.39 28.747c-3.23.841-6.331 1.941-9.302 3.275zm48.294-.436c-3.014-1.275-6.143-2.318-9.389-3.102l7.013-28.862c4.869 1.188 9.592 2.753 14.113 4.723l-11.737 27.241zm-29.168-4.549l-2.666-29.558c4.926-.406 9.955-.492 14.881-.117l-2.318 29.56c-3.318-.26-6.651-.203-9.897.115z"/>
    </g>
  </g>
</svg>
