<svg id="Layer_3" xmlns="http://www.w3.org/2000/svg" width="363.472" height="240.044" viewBox="0 0 363.472 240.044">
  <g id="productSecondCloud">
    <circle opacity=".4" fill="#F3F8FF" cx="127.739" cy="73.831" r="73.831"/>
    <path fill="#E6F0FF" d="M347.212 146.776c6.314-13.221 9.851-27.981 9.851-43.554 0-56.642-46.682-102.56-104.268-102.56-35.655 0-67.124 17.607-85.926 44.46-5.234-1.606-10.8-2.474-16.572-2.474-29.513 0-53.638 22.64-55.432 51.225-4.832-1.349-9.924-2.087-15.196-2.087-28.496 0-51.969 21.112-55.167 48.299C9.72 149.905 0 166.537 0 185.402c0 30.178 24.873 54.643 55.552 54.643 17.874 0 33.765-8.313 43.927-21.212 10.162 12.899 26.053 21.212 43.928 21.212 20.652 0 38.661-11.095 48.233-27.547 9.573 16.452 27.581 27.547 48.234 27.547 12.822 0 24.621-4.284 34.022-11.462 9.4 7.178 21.199 11.462 34.021 11.462 30.683 0 55.554-24.464 55.554-54.643.001-15.084-6.213-28.739-16.259-38.626z"/>
  </g>
</svg>
