<svg id="Layer_3" xmlns="http://www.w3.org/2000/svg" width="310.542" height="233.303" viewBox="0 0 310.542 233.303">
  <g id="productFirstCloud">
    <circle opacity=".4" fill="#F3F8FF" cx="97.199" cy="78.116" r="76.609"/>
    <path fill="#E6F0FF" d="M265.647 143.511c-.645 0-1.284.021-1.923.048.028-.638.049-1.277.049-1.921 0-20.791-14.135-38.273-33.315-43.381 1.851-6.633 2.844-13.625 2.844-20.849C233.302 34.656 198.646 0 155.895 0S78.487 34.656 78.487 77.408c0 6.688.848 13.178 2.443 19.368-24.155.731-43.515 20.529-43.515 44.862 0 .836.027 1.667.072 2.492C16.218 147.664 0 166.136 0 188.407c0 24.795 20.1 44.896 44.896 44.896 16.035 0 30.098-8.413 38.039-21.058 7.941 12.646 22.004 21.058 38.039 21.058 14.471 0 27.334-6.854 35.545-17.484 8.21 10.631 21.073 17.484 35.544 17.484 15.227 0 28.674-7.587 36.792-19.18 8.118 11.593 21.565 19.18 36.792 19.18 24.795 0 44.896-20.101 44.896-44.896-.001-24.796-20.101-44.896-44.896-44.896z"/>
  </g>
</svg>
