<svg id="Layer_3" xmlns="http://www.w3.org/2000/svg" width="368.162" height="234.735" viewBox="0 0 368.162 234.735">
  <g id="productThirdCloud">
    <ellipse opacity=".4" fill="#F3F8FF" cx="256.442" cy="67.797" rx="62.3" ry="67.797"/>
    <path fill="#E6F0FF" d="M340.346 149.303c7.267-10.053 11.394-21.571 11.394-33.813 0-39.218-42.351-71.01-94.587-71.01-3.01 0-5.984.11-8.921.317-16.648-12.669-39.778-20.524-65.356-20.524-50.703 0-91.809 30.857-91.809 68.923 0 .35.012.697.019 1.046-4.697-.677-9.543-1.043-14.503-1.043C34.287 93.199 0 118.94 0 150.693c0 31.752 34.287 57.493 76.582 57.493 3.936 0 7.803-.225 11.579-.654 9.796 16.049 31.367 27.204 56.422 27.204 15.205 0 29.128-4.113 39.918-10.929 10.792 6.816 24.713 10.929 39.918 10.929 15.647 0 29.932-4.358 40.847-11.533 10.915 7.175 25.199 11.533 40.847 11.533 34.269 0 62.05-20.856 62.05-46.583-.001-16.227-11.057-30.508-27.817-38.85z"/>
  </g>
</svg>
