<svg id="Layer_3" xmlns="http://www.w3.org/2000/svg" width="1800" height="1063.413" viewBox="0 0 1800 1063.413">
  <style>
<![CDATA[
	.st0{opacity:0.3;}
	.st1{opacity:0.4;}
	.st2{fill:#FFFFFF;}
	.st3{fill:#06001E;}
]]>
  </style>
  <g>
    <path class="st3" d="M419.934 185C159 185 0 5 0 5v1027.413h1800V1s-157-1-417.115-1C1086 0 696.466 185 419.934 185z"/>
    <g>
      <path class="st2" d="M348.336 420.839c0-.24-1.202-.441-2.822-.497-.045-2.454-.427-4.369-.892-4.369-.464 0-.846 1.915-.892 4.369-1.62.055-2.822.256-2.822.497s1.202.441 2.822.497c.046 2.454.428 4.369.892 4.369s.846-1.915.892-4.369c1.62-.055 2.822-.256 2.822-.497zM146.285 415.974c0-.24-1.202-.441-2.822-.497-.045-2.454-.427-4.369-.892-4.369-.464 0-.846 1.915-.892 4.369-1.62.055-2.822.256-2.822.497s1.202.441 2.822.497c.046 2.454.428 4.369.892 4.369s.846-1.915.892-4.369c1.62-.056 2.822-.257 2.822-.497zM440.016 527.302c0-.24-1.202-.441-2.822-.497-.045-2.454-.427-4.369-.892-4.369-.464 0-.846 1.915-.892 4.369-1.62.055-2.822.256-2.822.497s1.202.441 2.822.497c.046 2.454.428 4.369.892 4.369s.846-1.915.892-4.369c1.62-.056 2.822-.257 2.822-.497z"/>
      <circle class="st2" cx="541.234" cy="345.051" r="2"/>
      <circle class="st2" cx="593" cy="500.795" r="2"/>
      <circle class="st2" cx="230.878" cy="328.549" r="2"/>
      <circle class="st2" cx="136.858" cy="461.123" r="2"/>
      <circle class="st2" cx="99.693" cy="572.249" r="2"/>
      <circle class="st2" cx="230.878" cy="471.625" r="2"/>
      <circle class="st2" cx="322.354" cy="353.167" r="2"/>
      <circle class="st2" cx="460.453" cy="299.989" r="2"/>
      <circle class="st2" cx="442.137" cy="391.668" r="2"/>
      <circle class="st2" cx="257.489" cy="540.3" r="2"/>
      <circle class="st2" cx="369.008" cy="560.36" r="2"/>
      <circle class="st2" cx="510.49" cy="459.123" r="2"/>
      <circle class="st2" cx="340.91" cy="286.709" r="2"/>
      <circle class="st2" cx="99.693" cy="347.051" r="2"/>
      <circle class="st2" cx="155.906" cy="252.76" r="2"/>
      <circle class="st2" cx="167.591" cy="353.167" r="2"/>
      <circle class="st2" cx="62.799" cy="448.01" r="2"/>
    </g>
    <g class="st0">
      <path class="st2" d="M372.862 355.439c0-.24 1.202-.441 2.822-.497.045-2.454.427-4.369.892-4.369.464 0 .846 1.915.892 4.369 1.62.055 2.822.256 2.822.497s-1.202.441-2.822.497c-.046 2.454-.428 4.369-.892 4.369s-.846-1.915-.892-4.369c-1.62-.056-2.822-.257-2.822-.497zM574.914 350.573c0-.24 1.202-.441 2.822-.497.045-2.454.427-4.369.892-4.369.464 0 .846 1.915.892 4.369 1.62.055 2.822.256 2.822.497s-1.202.441-2.822.497c-.046 2.454-.428 4.369-.892 4.369s-.846-1.915-.892-4.369c-1.62-.055-2.822-.257-2.822-.497zM281.183 461.901c0-.24 1.202-.441 2.822-.497.045-2.454.427-4.369.892-4.369.464 0 .846 1.915.892 4.369 1.62.055 2.822.256 2.822.497s-1.202.441-2.822.497c-.046 2.454-.428 4.369-.892 4.369s-.846-1.915-.892-4.369c-1.62-.055-2.822-.256-2.822-.497z"/>
      <circle class="st2" cx="179.965" cy="279.65" r="2"/>
      <circle class="st2" cx="128.199" cy="435.395" r="2"/>
      <circle class="st2" cx="490.321" cy="263.148" r="2"/>
      <circle class="st2" cx="584.34" cy="395.722" r="2"/>
      <circle class="st2" cx="621.505" cy="506.849" r="2"/>
      <circle class="st2" cx="490.321" cy="406.224" r="2"/>
      <circle class="st2" cx="398.844" cy="287.767" r="2"/>
      <circle class="st2" cx="260.746" cy="234.589" r="2"/>
      <circle class="st2" cx="279.062" cy="326.268" r="2"/>
      <circle class="st2" cx="463.709" cy="474.9" r="2"/>
      <circle class="st2" cx="352.191" cy="494.96" r="2"/>
      <circle class="st2" cx="210.708" cy="393.722" r="2"/>
      <circle class="st2" cx="380.289" cy="221.309" r="2"/>
      <circle class="st2" cx="621.505" cy="281.65" r="2"/>
      <circle class="st2" cx="565.293" cy="187.36" r="2"/>
      <circle class="st2" cx="553.608" cy="287.767" r="2"/>
      <circle class="st2" cx="658.4" cy="382.609" r="2"/>
    </g>
    <g class="st0">
      <path class="st2" d="M1352.988 473.048c0-.24 1.201-.441 2.821-.497.046-2.454.427-4.369.892-4.369.464 0 .846 1.915.892 4.369 1.62.055 2.821.256 2.821.497s-1.201.441-2.821.497c-.046 2.454-.428 4.369-.892 4.369-.465 0-.846-1.915-.892-4.369-1.62-.055-2.821-.256-2.821-.497zM1555.039 468.183c0-.24 1.202-.441 2.822-.497.045-2.454.427-4.369.891-4.369.465 0 .846 1.915.893 4.369 1.619.055 2.821.256 2.821.497s-1.202.441-2.821.497c-.047 2.454-.428 4.369-.893 4.369-.464 0-.846-1.915-.891-4.369-1.62-.056-2.822-.257-2.822-.497zM1261.309 579.511c0-.24 1.201-.441 2.821-.497.046-2.454.427-4.369.892-4.369.464 0 .846 1.915.892 4.369 1.62.055 2.821.256 2.821.497s-1.201.441-2.821.497c-.046 2.454-.428 4.369-.892 4.369-.465 0-.846-1.915-.892-4.369-1.62-.056-2.821-.257-2.821-.497z"/>
      <circle class="st2" cx="1160.09" cy="397.26" r="2"/>
      <circle class="st2" cx="1108.324" cy="553.004" r="2"/>
      <circle class="st2" cx="1470.446" cy="380.758" r="2"/>
      <circle class="st2" cx="1564.466" cy="513.332" r="2"/>
      <circle class="st2" cx="1601.631" cy="624.458" r="2"/>
      <circle class="st2" cx="1470.446" cy="523.833" r="2"/>
      <circle class="st2" cx="1378.97" cy="405.376" r="2"/>
      <circle class="st2" cx="1240.871" cy="352.198" r="2"/>
      <circle class="st2" cx="1259.188" cy="443.877" r="2"/>
      <circle class="st2" cx="1443.835" cy="592.509" r="2"/>
      <circle class="st2" cx="1332.316" cy="612.569" r="2"/>
      <circle class="st2" cx="1190.834" cy="511.332" r="2"/>
      <circle class="st2" cx="1360.414" cy="338.918" r="2"/>
      <circle class="st2" cx="1601.631" cy="399.26" r="2"/>
      <circle class="st2" cx="1545.418" cy="304.969" r="2"/>
      <circle class="st2" cx="1533.733" cy="405.376" r="2"/>
      <circle class="st2" cx="1638.525" cy="500.219" r="2"/>
    </g>
    <g>
      <path class="st2" d="M1529.539 329.16c0-.24-1.201-.441-2.821-.497-.046-2.454-.427-4.369-.892-4.369-.464 0-.846 1.915-.892 4.369-1.62.055-2.821.256-2.821.497s1.201.441 2.821.497c.046 2.454.428 4.369.892 4.369.465 0 .846-1.915.892-4.369 1.62-.056 2.821-.257 2.821-.497zM1327.488 324.294c0-.24-1.202-.441-2.822-.497-.045-2.454-.427-4.369-.891-4.369-.465 0-.846 1.915-.893 4.369-1.619.055-2.821.256-2.821.497s1.202.441 2.821.497c.047 2.454.428 4.369.893 4.369.464 0 .846-1.915.891-4.369 1.62-.056 2.822-.257 2.822-.497zM1621.219 435.622c0-.24-1.201-.441-2.821-.497-.046-2.454-.427-4.369-.892-4.369-.464 0-.846 1.915-.892 4.369-1.62.055-2.821.256-2.821.497s1.201.441 2.821.497c.046 2.454.428 4.369.892 4.369.465 0 .846-1.915.892-4.369 1.62-.056 2.821-.257 2.821-.497z"/>
      <circle class="st2" cx="1722.438" cy="253.371" r="2"/>
      <circle class="st2" cx="1774.203" cy="409.115" r="2"/>
      <circle class="st2" cx="1412.081" cy="236.869" r="2"/>
      <circle class="st2" cx="1318.062" cy="369.443" r="2"/>
      <circle class="st2" cx="1280.896" cy="480.569" r="2"/>
      <circle class="st2" cx="1412.081" cy="379.945" r="2"/>
      <circle class="st2" cx="1503.558" cy="261.487" r="2"/>
      <circle class="st2" cx="1641.656" cy="208.31" r="2"/>
      <circle class="st2" cx="1623.34" cy="299.989" r="2"/>
      <circle class="st2" cx="1438.692" cy="448.621" r="2"/>
      <circle class="st2" cx="1550.211" cy="468.681" r="2"/>
      <circle class="st2" cx="1691.693" cy="367.443" r="2"/>
      <circle class="st2" cx="1522.113" cy="195.029" r="2"/>
      <circle class="st2" cx="1280.896" cy="255.371" r="2"/>
      <circle class="st2" cx="1337.109" cy="161.081" r="2"/>
      <circle class="st2" cx="1348.794" cy="261.487" r="2"/>
      <circle class="st2" cx="1244.002" cy="356.33" r="2"/>
    </g>
    <g class="st1">
      <path class="st2" d="M959.006 353.386c0-.24-1.201-.441-2.821-.497-.046-2.454-.427-4.369-.892-4.369-.464 0-.846 1.915-.892 4.369-1.62.055-2.821.256-2.821.497s1.201.441 2.821.497c.046 2.454.428 4.369.892 4.369.465 0 .846-1.915.892-4.369 1.62-.056 2.821-.257 2.821-.497zM756.955 348.52c0-.24-1.202-.441-2.822-.497-.045-2.454-.427-4.369-.891-4.369-.465 0-.846 1.915-.893 4.369-1.619.055-2.821.256-2.821.497s1.202.441 2.821.497c.047 2.454.428 4.369.893 4.369.464 0 .846-1.915.891-4.369 1.62-.056 2.822-.257 2.822-.497zM1050.686 459.848c0-.24-1.201-.441-2.821-.497-.046-2.454-.427-4.369-.892-4.369-.464 0-.846 1.915-.892 4.369-1.62.055-2.821.256-2.821.497s1.201.441 2.821.497c.046 2.454.428 4.369.892 4.369.465 0 .846-1.915.892-4.369 1.619-.055 2.821-.257 2.821-.497z"/>
      <circle class="st2" cx="1151.904" cy="277.597" r="2"/>
      <circle class="st2" cx="1203.67" cy="433.341" r="2"/>
      <circle class="st2" cx="841.548" cy="261.095" r="2"/>
      <circle class="st2" cx="747.528" cy="393.669" r="2"/>
      <circle class="st2" cx="710.363" cy="504.795" r="2"/>
      <circle class="st2" cx="841.548" cy="404.171" r="2"/>
      <circle class="st2" cx="933.024" cy="285.713" r="2"/>
      <circle class="st2" cx="1071.123" cy="232.536" r="2"/>
      <circle class="st2" cx="1052.807" cy="324.215" r="2"/>
      <circle class="st2" cx="868.159" cy="472.847" r="2"/>
      <circle class="st2" cx="979.678" cy="492.907" r="2"/>
      <circle class="st2" cx="1121.16" cy="391.669" r="2"/>
      <circle class="st2" cx="951.58" cy="219.255" r="2"/>
      <circle class="st2" cx="710.363" cy="279.597" r="2"/>
      <circle class="st2" cx="766.576" cy="185.307" r="2"/>
      <circle class="st2" cx="778.261" cy="285.713" r="2"/>
      <circle class="st2" cx="673.469" cy="380.556" r="2"/>
    </g>
  </g>
</svg>
