<svg id="Layer_3" xmlns="http://www.w3.org/2000/svg" width="270.429" height="643.633" viewBox="0 0 270.429 643.633">
  <g id="secondRocket">
    <path fill="#6B002C" d="M73.081 348.764l-30.373 33.75-10.252 73.234h-5.114L0 366.233l54.145-94.776z"/>
    <path fill="#EF5C22" d="M73.081 348.764l-30.373 33.75-10.252 73.234h-5.114L0 366.233l54.145-94.776z"/>
    <path fill="#FFAD97" d="M55.605 277.418l-1.46-5.961L0 366.233l27.342 89.515h4.865L4.865 366.233z"/>
    <path fill="#EF5C22" d="M197.348 348.764l30.373 33.75 10.252 73.234h5.114l27.342-89.515-54.146-94.776z"/>
    <path fill="#C63D0E" d="M234.841 385.25l-31.417-35.797 16.441-71.724-3.582-6.272-18.935 77.307 30.373 33.75 10.252 73.234h5.114l1.369-4.486z"/>
    <path fill="#FFAD97" d="M216.283 271.457l-1.968 8.034 52.727 92.292-25.647 83.965h1.692l27.342-89.515z"/>
    <path opacity=".3" d="M54.145 271.457l-30.462 53.322c-.962 12.372-1.478 25.385-1.478 38.823 0 34.86 3.456 66.894 9.231 92.146h1.02l10.253-73.234 30.373-33.75-18.937-77.307z"/>
    <g>
      <path fill="#E5E5E5" d="M74.119 355.111v262.496s15.375 23.613 44.692 26.025V363.666s-32.497-3.496-44.692-8.555z"/>
      <path fill="#CECECE" d="M195.45 355.111v241.555s-13.405 13.811-40.611 24.059V362.758s19.813.426 40.611-7.647z"/>
      <path fill="#A0A0A0" d="M163.2 362.017v220.446s-13.497 21.586-28.942 21.183V363.668s13.871 3.079 28.942-1.651z"/>
      <path fill="#CECECE" d="M103.497 361.66s24.124 4.17 30.761 2.008v247.239s-20.988 9.24-30.813 5.611l.052-254.858z"/>
    </g>
    <path fill="none" stroke="#3F3F3F" stroke-miterlimit="10" d="M46.118 283.313c0 .732.356 1.451 1.041 2.153-.216-1.165-.428-2.331-.632-3.501-.267.444-.409.892-.409 1.348zM223.018 282.167c-.182 1.033-.37 2.063-.56 3.093.56-.637.856-1.285.856-1.947 0-.386-.103-.768-.296-1.146z"/>
    <path fill="#878787" d="M134.716 297.323c-44.301 0-81.006-5.143-87.557-11.857 4.644 24.989 12.251 48.938 22.453 71.462 0 0 31.48 9.844 65.147 9.844 33.668 0 65.207-9.844 65.207-9.844 10.229-22.586 17.851-46.604 22.491-71.668-5.996 6.816-42.99 12.063-87.741 12.063z"/>
    <path fill="#999" d="M134.79 297.323v69.448c33.656-.008 65.177-9.844 65.177-9.844 10.229-22.586 17.851-46.604 22.491-71.668-5.993 6.813-42.952 12.058-87.668 12.064z"/>
    <path fill="#606060" d="M61.096 291.107c-7.057-1.662-11.924-3.577-13.937-5.642 4.644 24.989 12.251 48.938 22.453 71.462 0 0 5.689 1.777 14.815 3.822-9.746-22.26-17.586-45.542-23.331-69.642z"/>
    <path fill="#D1D1D1" d="M212.079 290.391c-5.919 24.102-13.805 47.43-23.487 69.801 7.207-1.709 11.569-3.07 11.569-3.07 10.229-22.585 17.85-46.603 22.49-71.666-1.56 1.771-5.224 3.439-10.572 4.935z"/>
    <path fill="#020202" d="M86.953 66.801l-1.977 7.734s67.969 13.331 99.846-.332l-1.19-7.402H86.953z"/>
    <path fill="#62B76E" d="M223.018 282.167c-.182 1.033-.37 2.063-.56 3.093-5.997 6.816-42.991 12.063-87.742 12.063-44.301 0-81.006-5.143-87.557-11.857-.216-1.165-.428-2.331-.632-3.501-3.054-17.545-4.649-35.592-4.649-54.01 0-56.478 14.966-109.455 41.141-155.195 1.392 1.962 24.006 3.521 51.697 3.521 28.434 0 51.504-1.644 51.753-3.68C212.7 118.378 227.7 171.412 227.7 227.955c0 18.488-1.605 36.603-4.682 54.212z"/>
    <path fill="#4B9652" d="M55.183 232.61c0-56.845 13.683-110.49 37.924-157.835-5.88-.568-9.553-1.262-10.088-2.016-26.174 45.74-41.141 98.718-41.141 155.195 0 18.418 1.596 36.465 4.649 54.01.204 1.17.416 2.336.632 3.501 1.915 1.964 6.41 3.791 12.914 5.396-3.204-18.94-4.89-38.398-4.89-58.251z"/>
    <g>
      <path opacity=".3" d="M131.274 254.883l-20.145 41.938c6.799.297 13.926.467 21.277.497l-1.132-42.435z"/>
      <path opacity=".3" d="M132.406 297.317c-7.351-.03-14.478-.2-21.277-.497l-18.023 37.52 4.374 28.999c10.718 1.852 23.566 3.392 36.777 3.43l-1.851-69.452z"/>
    </g>
    <path fill="#73C67B" d="M134.897 76.281v221.042c44.669-.015 81.572-5.256 87.561-12.063.189-1.029.378-2.06.56-3.093 3.077-17.609 4.683-35.724 4.683-54.212 0-56.543-15-109.577-41.231-155.354-.25 2.032-23.223 3.672-51.573 3.68z"/>
    <path fill="#ACE5B0" d="M186.469 72.602c-.096.79-3.641 1.52-9.589 2.118 24.187 47.496 37.831 101.259 37.831 158.213 0 19.688-1.651 38.987-4.783 57.785 6.416-1.626 10.786-3.476 12.53-5.458.189-1.029.378-2.06.56-3.093 3.077-17.609 4.683-35.724 4.683-54.212-.001-56.543-15.001-109.577-41.232-155.353z"/>
    <path fill="#EF5C22" d="M186.257 66.801c.07.122.323.395.394.52-.249 2.035-23.318 3.679-51.753 3.679-27.692 0-50.305-1.559-51.697-3.522.129-.225.258-.451.387-.676l-.181-.147C97.508 42.154 114.825 19.742 134.79 0c20.004 19.781 37.351 42.244 51.467 66.801M138.305 254.883H131.274l-5.912 89.526 5.347 111.744h7.392l6.117-111.744z"/>
    <g>
      <circle fill="#3F3F3F" cx="134.79" cy="177.3" r="74.499"/>
      <circle fill="#E6FFFF" cx="134.79" cy="177.3" r="68.748"/>
    </g>
    <path fill="#F97A4E" d="M134.897 70.999c28.435 0 51.504-1.644 51.753-3.679-.07-.125-.323-.397-.394-.52C172.141 42.244 154.794 19.781 134.79 0v70.999h.107z"/>
    <path fill="#FFAD97" d="M186.65 67.32c-.07-.125-.323-.397-.394-.52C172.141 42.244 154.794 19.781 134.79 0c0 0 30.598 36.377 43.929 69.261 4.944-.563 7.844-1.228 7.931-1.941z"/>
    <path fill="#C63D0E" d="M103.104 70.216c6.311-34.653 23.123-59.517 29.892-68.412-19.206 19.304-35.914 41.091-49.588 64.85l.181.147c-.129.225-.258.451-.387.676.788 1.113 8.407 2.096 19.902 2.739z"/>
    <path fill="#FFAD97" d="M138.101 456.153l6.117-111.744-5.913-89.526h-3.515v201.27z"/>
    <ellipse fill="#606060" cx="210.846" cy="300.28" rx="5.019" ry="6.013"/>
    <ellipse fill="#606060" cx="183.848" cy="304.342" rx="5.019" ry="6.012"/>
    <ellipse fill="#606060" cx="154.838" cy="307.833" rx="5.019" ry="6.012"/>
    <ellipse fill="#4C4C4C" cx="113.682" cy="307.833" rx="5.019" ry="6.012"/>
    <ellipse fill="#606060" cx="87.957" cy="304.342" rx="5.019" ry="6.012"/>
    <ellipse fill="#606060" cx="63.493" cy="301.821" rx="5.019" ry="6.012"/>
  </g>
</svg>
