<svg id="Layer_3" xmlns="http://www.w3.org/2000/svg" width="258.744" height="383.624" viewBox="0 0 258.744 383.624">
  <g id="secondBaloon">
    <path fill="#62B76E" d="M257.886 144.045c-2.396 20.913-9.932 41.067-21.776 58.27l-.12.167-84.904 110.24-.059-.006-13.076 17.927-19.891-2.279-25.691-2.944-18.012-2.064-7.883-21.074-57.621-125.71c-7.721-20.02-10.408-40.841-7.995-61.894 3.935-34.334 21.005-65.071 48.059-86.57C75.973 6.598 109.773-3.076 144.099.858s65.063 20.994 86.555 48.027c21.49 27.044 31.165 60.835 27.232 95.16zm-28.243 53.653c11.088-16.122 18.12-34.984 20.367-54.586C257.629 76.627 209.711 16.35 143.196 8.727 76.681 1.104 16.364 49.018 8.737 115.563c-2.261 19.731.245 39.233 7.465 58.008l55.977 122.056 24.231 2.777c.357.041.765-.083 1.162-.037.396.045.756.258 1.122.299l21.331 2.445c.357.041.765-.084 1.161-.038.398.046.756.257 1.124.3l25.245 2.893 82.088-106.568zm-98.958 129.676l11.37-15.688-17.754-2.034-2.144 18.698c-.006.059-.139.164-.139.164l7.938.91c.074-.997.275-1.427.729-2.05zm-16.475.065l2.143-18.698-15.896-1.821-2.144 18.698c-.006.059.09.19.09.19l15.767 1.808c-.011-.002.033-.117.04-.177zm-31.822-3.465l8.166.936c-.01-.001-.194-.143-.188-.202l2.143-18.698-16.969-1.945 6.656 17.895c.255.672.345 1.024.192 2.014z"/>
    <path fill="#62B76E" d="M250.01 143.112c-2.247 19.602-9.279 38.464-20.367 54.586l-82.087 106.566-25.245-2.893c-.368-.043-.726-.254-1.124-.3-.396-.046-.804.079-1.161.038l-21.331-2.445c-.366-.041-.726-.254-1.122-.299-.397-.046-.805.078-1.162.037l-24.231-2.777L16.202 173.57c-7.22-18.774-9.726-38.276-7.465-58.008C16.364 49.018 76.681 1.104 143.196 8.727c66.515 7.623 114.433 67.9 106.814 134.385z"/>
    <path fill="#73C97B" d="M152.078 10.079c37.396 28.231 59.367 74.939 53.659 124.752-2.53 22.079-10.453 43.326-22.942 61.487L103.531 299.22l16.494 1.891c.357.041.765-.084 1.161-.038.398.046.756.257 1.124.3l25.245 2.893L229.642 197.7c11.088-16.122 18.12-34.984 20.367-54.586 7.276-63.488-36.09-121.31-97.931-133.035z"/>
    <path fill="#539959" d="M134.238 8.034C91.425 27.073 59.456 67.601 53.747 117.412c-2.53 22.079.381 44.568 8.437 65.084l53.929 118.165-16.494-1.891c-.357-.04-.726-.254-1.122-.299-.398-.045-.795.08-1.163.037l-25.244-2.893-55.852-122.374c-7.152-18.213-9.735-38.177-7.489-57.777 7.275-63.487 62.6-110 125.489-107.43z"/>
    <path fill="#AA8144" d="M144.782 343.394l-3.361 29.338c-.436 3.795-2.573 6.982-5.559 8.885 2.899-1.941 4.938-5.141 5.369-8.906l3.361-29.338c.613-5.346-2.245-10.272-6.871-12.414l.229-.315.089.011-.228.315c4.637 2.141 7.585 7.078 6.971 12.424z"/>
    <path fill="#AA8144" d="M144.593 343.372l-3.361 29.338c-.432 3.766-2.47 6.965-5.369 8.906-.133.096-.271.17-.412.256-2.19 1.278-4.796 1.887-7.509 1.575l-15.985-1.832 6.104-53.252 19.891 2.279-.229.315c4.625 2.143 7.483 7.069 6.87 12.415z"/>
    <path fill="#62B76E" d="M127.941 383.447c2.713.312 5.318-.297 7.509-1.575-2.167 1.341-4.777 1.988-7.52 1.674l-55.586-6.37c-3.13-.358-5.822-1.895-7.711-4.114 1.924 2.174 4.623 3.66 7.723 4.016l13.909 1.594 25.69 2.944 15.986 1.831z"/>
    <path fill="#997336" d="M86.2695 378.681l6.1052-53.2527 25.691 2.9454-6.1053 53.2526z"/>
    <path fill="#725327" d="M92.368 325.419l-6.103 53.252-13.909-1.594c-3.1-.355-5.799-1.842-7.723-4.016-.125-.146-.249-.29-.372-.455-1.913-2.454-2.893-5.667-2.511-9.006l3.362-29.337c.607-5.296 4.471-9.412 9.396-10.498l-.153-.411 18.013 2.065z"/>
    <path fill="#725327" d="M74.356 323.354l.153.411c-4.926 1.086-8.789 5.202-9.396 10.498L61.751 363.6c-.382 3.339.598 6.552 2.511 9.006-1.964-2.44-2.996-5.639-2.609-9.017l3.362-29.337c.606-5.296 4.521-9.407 9.445-10.493l-.154-.411.05.006z"/>
  </g>
</svg>
