<?xml version="1.0" encoding="utf-8"?>
<!-- Generator: Adobe Illustrator 16.0.0, SVG Export Plug-In . SVG Version: 6.00 Build 0)  -->
<!DOCTYPE svg PUBLIC "-//W3C//DTD SVG 1.1//EN" "http://www.w3.org/Graphics/SVG/1.1/DTD/svg11.dtd">
<svg version="1.1" id="Layer_1" xmlns="http://www.w3.org/2000/svg" xmlns:xlink="http://www.w3.org/1999/xlink" x="0px" y="0px"
	 width="313.349px" height="259.417px" viewBox="0 0 313.349 259.417" style="enable-background:new 0 0 313.349 259.417;"
	 xml:space="preserve">
<g>
	<g>
		
			<rect x="80.039" y="118.165" transform="matrix(-0.3211 -0.947 0.947 -0.3211 1.6496 279.306)" style="fill:none;" width="41.794" height="41.794"/>
		<path style="fill:#E8A820;" d="M128.69,49.547c-2.972-8.766-12.576-13.505-21.341-10.534l-0.45,0.152
			c-8.766,2.972-13.505,12.576-10.533,21.341l6.69,19.73l32.324-10.959L128.69,49.547z"/>
		<path style="fill:#E8A820;" d="M144.983,203.893c2.972,8.766,12.576,13.506,21.342,10.534l0.448-0.151
			c8.766-2.973,13.506-12.576,10.534-21.341l-6.588-19.429l-32.323,10.96L144.983,203.893z"/>
		
			<rect x="119.822" y="105.974" transform="matrix(-0.947 0.3211 -0.3211 -0.947 307.266 203.0679)" style="fill:#E8A820;" width="34.131" height="41.794"/>
		<path style="fill:#3EB991;" d="M56.888,74.229c-2.972-8.765-12.576-13.505-21.341-10.533l-0.45,0.152
			c-8.766,2.972-13.506,12.576-10.534,21.341l6.588,19.429l32.324-10.96L56.888,74.229z"/>
		<path style="fill:#3EB991;" d="M73.181,228.575c2.972,8.766,12.576,13.505,21.341,10.533l0.449-0.151
			c8.766-2.972,13.506-12.575,10.534-21.341l-6.689-19.73l-32.324,10.959L73.181,228.575z"/>
		
			<rect x="47.918" y="130.355" transform="matrix(0.947 -0.3211 0.3211 0.947 -45.1273 28.877)" style="fill:#3EB991;" width="34.131" height="41.794"/>
		<path style="fill:#6EC9DC;" d="M11.421,111.308c-8.766,2.972-13.505,12.576-10.534,21.341l0.152,0.449
			c2.972,8.765,12.576,13.505,21.341,10.533l19.73-6.69l-10.96-32.324L11.421,111.308z"/>
		<path style="fill:#6EC9DC;" d="M165.767,95.014c8.766-2.972,13.506-12.576,10.534-21.341l-0.152-0.449
			c-2.971-8.766-12.575-13.506-21.34-10.534l-19.428,6.587l10.96,32.323L165.767,95.014z"/>
		
			<rect x="71.68" y="82.212" transform="matrix(0.3211 0.947 -0.947 0.3211 157.897 -14.0458)" style="fill:#6EC9DC;" width="34.131" height="41.794"/>
		
			<rect x="107.632" y="73.854" transform="matrix(0.3211 0.947 -0.947 0.3211 170.7592 -56.3699)" style="fill:#64851C;" width="34.131" height="34.131"/>
		
			<rect x="35.728" y="98.234" transform="matrix(0.947 -0.3211 0.3211 0.947 -34.2282 23.0586)" style="fill:#1C947D;" width="34.131" height="34.131"/>
		<path style="fill:#E11664;" d="M200.983,145.475l-0.152-0.449c-2.972-8.766-12.576-13.506-21.341-10.534l-19.73,6.69
			l10.959,32.323l19.729-6.689C199.213,163.844,203.955,154.24,200.983,145.475z"/>
		<path style="fill:#E11664;" d="M36.103,183.109c-8.766,2.972-13.506,12.575-10.534,21.341l0.152,0.449
			c2.972,8.766,12.576,13.506,21.341,10.533l19.429-6.588l-10.96-32.323L36.103,183.109z"/>
		
			<rect x="96.06" y="154.117" transform="matrix(-0.3211 -0.947 0.947 -0.3211 -16.2934 338.3474)" style="fill:#E11664;" width="34.131" height="41.794"/>
		
			<rect x="132.012" y="145.758" transform="matrix(-0.3211 -0.947 0.947 -0.3211 42.7483 356.2915)" style="fill:#CE0E0B;" width="34.131" height="34.131"/>
		
			<rect x="60.108" y="170.138" transform="matrix(-0.3211 -0.947 0.947 -0.3211 -75.3336 320.4052)" style="fill:#371039;" width="34.13" height="34.131"/>
	</g>
	<path style="fill:#E8A820;" d="M112.085,76.072c0-16.782,6.385-32.072,16.854-43.577l-4.486-6.338c0,0-44.499,45.981-3.375,98.288
		c0,0,34.13,40.846,85.988,18.414l-5.032-7.109c-7.743,3.272-16.255,5.082-25.188,5.082
		C141.08,140.832,112.085,111.838,112.085,76.072z"/>
	
		<rect x="214.532" y="133.479" transform="matrix(0.8151 -0.5793 0.5793 0.8151 -42.0813 155.6664)" style="fill:#606060;" width="16.604" height="20.563"/>
	<path style="fill:#E8A820;" d="M176.846,0c-42.013,0-76.073,34.058-76.073,76.072c0,42.013,34.06,76.072,76.073,76.072
		c42.014,0,76.071-34.059,76.071-76.072C252.917,34.058,218.86,0,176.846,0z M202.035,135.75l5.032,7.109
		c-51.858,22.432-85.988-18.414-85.988-18.414c-41.124-52.307,3.375-98.288,3.375-98.288l4.486,6.338
		c11.846-13.014,28.922-21.183,47.906-21.183c35.766,0,64.76,28.993,64.76,64.76C241.606,102.904,225.287,125.924,202.035,135.75z"
		/>
	<path style="opacity:0.5;fill:#FFFFFF;" d="M112.085,76.072c0-16.782,6.385-32.072,16.854-43.577l-4.486-6.338
		c0,0-44.499,45.981-3.375,98.288c0,0,34.13,40.846,85.988,18.414l-5.032-7.109c-7.743,3.272-16.255,5.082-25.188,5.082
		C141.08,140.832,112.085,111.838,112.085,76.072z"/>
	<path style="fill:#777777;" d="M176.848,11.31c-18.988,0-36.058,8.172-47.912,21.183c-10.465,11.502-16.851,26.796-16.851,43.58
		c0,35.761,28.991,64.763,64.762,64.763c8.933,0,17.446-1.809,25.187-5.083c23.257-9.826,39.576-32.85,39.576-59.68
		C241.611,40.3,212.611,11.31,176.848,11.31z M197.635,129.543c-6.451,2.503-13.454,3.893-20.787,3.893
		c-31.68,0-57.374-25.682-57.374-57.364c0-14.28,5.227-27.326,13.86-37.371c10.521-12.24,26.102-19.992,43.513-19.992
		c31.682,0,57.364,25.682,57.364,57.363C234.212,100.421,219.04,121.207,197.635,129.543z"/>
	<path style="opacity:0.5;fill:#E5E5E5;" d="M176.846,18.704c-17.405,0-32.989,7.761-43.51,20
		c-8.63,10.04-13.858,23.089-13.858,37.367c0,31.684,25.685,57.368,57.368,57.368c7.335,0,14.343-1.392,20.791-3.901
		c21.402-8.328,36.578-29.119,36.578-53.466C234.215,44.388,208.53,18.704,176.846,18.704z"/>
	<path style="fill:#E8A820;" d="M220.911,155.265c0,0,28.198,53.482,52.581,93.894c0,0,12.783,18.984,32.228,5.3
		c0,0,16.149-13.922,1.458-30.254c-11.827-13.146-72.374-78.035-72.374-78.035L220.911,155.265z"/>
	<g>
		<path style="fill:#E5E5E5;" d="M214.639,144.575c-0.318-0.448-0.189-1.037,0.289-1.309l2.896-1.65
			c0.479-0.272,1.131-0.128,1.45,0.319l5.627,7.877c0.319,0.448,0.212,1.071-0.24,1.384l-2.725,1.892
			c-0.452,0.313-1.083,0.204-1.401-0.244L214.639,144.575z"/>
	</g>
	<g style="opacity:0.6;">
		<path style="fill:#E5E5E5;" d="M232.4,146.306c-0.146,0-0.287-0.067-0.378-0.193l-6.918-9.522c-0.15-0.208-0.105-0.5,0.104-0.652
			c0.208-0.151,0.5-0.106,0.653,0.104l6.916,9.522c0.15,0.208,0.105,0.5-0.104,0.652C232.59,146.276,232.495,146.306,232.4,146.306z
			"/>
	</g>
	<path style="opacity:0.5;fill:#FFFFFF;" d="M222.834,155.59l54.502,92.085c0,0,8.6,11.354,19.302,8.243
		c0,0,4.224-0.603,6.436-3.618l-76.419-98.641L222.834,155.59z"/>
	
		<line style="opacity:0.5;fill:none;stroke:#FFFFFF;stroke-linecap:round;stroke-miterlimit:10;" x1="234.395" y1="148.028" x2="306.839" y2="228.153"/>
</g>
</svg>
