<svg id="Layer_3" xmlns="http://www.w3.org/2000/svg" width="701.558" height="377.548" viewBox="0 0 701.558 377.548">
  <g id="techIllustration">
    <path fill="#DCFFDC" d="M104.6 377.548s26.906-65.827-60.756-69.87c-87.663-4.043-20.173-89.158 0-103.705 32.843-23.682 91.135-37.916 95.474-134.869 4.34-96.951 141.476-6.463 141.476-6.463s78.672 72.944 136.112-23.084c57.442-96.028 150.313 7.388 145.104 51.709-5.208 44.319 35.424 30.555 110.423 118.07 103.002 120.195-100.293 166.98-100.293 166.98l-467.54 1.232z"/>
    <g>
      <path fill="none" stroke="#84BC84" stroke-miterlimit="10" d="M103.606 300.926h30.377-.224c6.583 0 11.347-5.664 11.347-12.246v.222-65.976h.628c0-6 5.786-12 12.368-12h-.111 371.205-.223c6.583 0 12.133-6.155 12.133-12.738v.223-1.848l-.098.252c0-6.582 5.229-11.889 11.811-11.889h-.232 26.019"/>
    </g>
    <g>
      <path fill="none" stroke="#84BC84" stroke-miterlimit="10" d="M115.606 312.926h29.457-.223c6.583 0 12.266-5.967 12.266-12.55v.222-66.672h-.291c0-5 5.785-12 12.367-12h-.111 371.205-.223c6.583 0 12.053-5.459 12.053-12.043v.223-1.846l-.058.402c0-6.584 5.269-11.736 11.852-11.736h-.231 25.938"/>
    </g>
    <path opacity=".05" d="M537.786 370.031v-8.26h-44.485c2.779-2.258 4.558-5.699 4.558-9.559V150.77c0-6.648-5.39-12.039-12.04-12.039H179.468c-6.649 0-12.04 5.391-12.04 12.039V352.213c0 3.859 1.779 7.301 4.558 9.559H127.5v8.26h1.137s4.617 6.885 17.237 6.885H521.387c12.62 0 17.237-6.885 17.237-6.885h-.838z"/>
    <path fill="#BABABA" d="M504.606 352.114c0 6.8-5.512 12.312-12.312 12.312H186.918c-6.799 0-12.312-5.512-12.312-12.312V150.737c0-6.8 5.512-12.312 12.312-12.312h305.377c6.799 0 12.312 5.512 12.312 12.312v201.377z"/>
    <path fill="#3A3A3A" d="M504.606 342.386c0 6.649-5.391 12.04-12.04 12.04h-305.92c-6.649 0-12.04-5.391-12.04-12.04v-191.92c0-6.649 5.391-12.04 12.04-12.04h305.92c6.649 0 12.04 5.391 12.04 12.04v191.92z"/>
    <path fill="#F4F4F4" d="M185.606 155.426h309v194h-309z"/>
    <path fill="#ADADAD" d="M134.606 361.426h410v9h-410z"/>
    <path fill="#CECECE" d="M373.279 361.426c0 6-4.754 6-4.754 6H312.506s-4.754 0-4.754-6H134.606v9h410v-9H373.279z"/>
    <path fill="#ADADAD" d="M340.516 370.426H135.522s4.617 6 17.237 6H528.272c12.62 0 17.237-6 17.237-6H340.516z"/>
    <g id="XMLID_2_">
      <path fill="#2B2B2B" d="M337.577 303.746c-.01 4.35.01 8.699-.02 13.06-.01 1.48-.43 2.84-1.54 3.91-.79.76-1.76 1.15-2.82 1.31-1.51.221-2.98.11-4.37-.59-1.13-.569-1.95-1.45-2.52-2.569-.07-.131-.13-.24.06-.351.97-.58 1.93-1.17 2.93-1.77.21.319.38.62.58.91.43.609.99 1.02 1.77 1.029 1.05.021 1.88-.24 2.05-1.68.03-.3.04-.6.04-.9v-12.25c0-.41 0-.41.4-.41 1.05 0 2.09 0 3.13-.01.23.001.31.061.31.311zM351.176 312.906c1.23 1.06 1.64 2.489 1.61 4.05-.04 1.66-.68 3.04-2.07 4.01-.74.52-1.57.84-2.46 1-2.01.34-3.95.19-5.79-.76-1.21-.63-2.13-1.55-2.79-2.74-.07-.13-.14-.24.05-.35.97-.551 1.94-1.12 2.94-1.7.09.13.17.25.26.37.86 1.29 2.04 1.979 3.61 1.93.58-.021 1.13-.14 1.63-.46.95-.63 1.06-1.95.19-2.68-.4-.33-.87-.58-1.34-.801-1.07-.52-2.18-.97-3.23-1.52-1.1-.561-2.03-1.34-2.56-2.49-1.33-2.89-.27-6.67 3.7-7.39 1.62-.3 3.2-.181 4.66.67.91.53 1.56 1.32 2.09 2.26-.99.64-1.97 1.26-2.97 1.91-.13-.19-.25-.37-.37-.54-.63-.88-1.48-1.23-2.54-1.03-.61.12-1.06.45-1.24 1.061-.17.609-.11 1.229.39 1.66.38.34.84.609 1.3.84 1.01.489 2.06.899 3.05 1.42.67.35 1.31.79 1.88 1.28z"/>
      <path fill="#FFDB43" d="M339.727 318.116c-.19.109-.12.22-.05.35.66 1.19 1.58 2.11 2.79 2.74 1.84.95 3.78 1.1 5.79.76.89-.16 1.72-.48 2.46-1 1.39-.97 2.03-2.35 2.07-4.01.03-1.561-.38-2.99-1.61-4.05-.57-.49-1.21-.931-1.88-1.28-.99-.521-2.04-.931-3.05-1.42-.46-.23-.92-.5-1.3-.84-.5-.431-.56-1.051-.39-1.66.18-.61.63-.94 1.24-1.061 1.06-.2 1.91.15 2.54 1.03.12.17.24.35.37.54 1-.65 1.98-1.271 2.97-1.91-.53-.939-1.18-1.729-2.09-2.26-1.46-.851-3.04-.97-4.66-.67-3.97.72-5.03 4.5-3.7 7.39.53 1.15 1.46 1.93 2.56 2.49 1.05.55 2.16 1 3.23 1.52.47.221.94.471 1.34.801.87.729.76 2.05-.19 2.68-.5.32-1.05.439-1.63.46-1.57.05-2.75-.64-3.61-1.93-.09-.12-.17-.24-.26-.37-1 .58-1.971 1.149-2.94 1.7zm-3.71 2.6c1.11-1.07 1.53-2.43 1.54-3.91.03-4.36.01-8.71.02-13.06 0-.25-.08-.311-.31-.311-1.04.01-2.08.01-3.13.01-.4 0-.4 0-.4.41v12.25c0 .301-.01.601-.04.9-.17 1.439-1 1.7-2.05 1.68-.78-.01-1.34-.42-1.77-1.029-.2-.29-.37-.591-.58-.91-1 .6-1.96 1.189-2.93 1.77-.19.11-.13.22-.06.351.57 1.119 1.39 2 2.52 2.569 1.39.7 2.86.811 4.37.59 1.059-.16 2.03-.55 2.82-1.31zm24.589-39.29v47h-49v-47h49z"/>
    </g>
    <g id="XMLID_1_">
      <g>
        <path fill="#66ACFF" d="M265.816 280.179v48.08h-49.31v-48.08h49.31zm-2.049 46.029v-43.979h-45.21v43.979h45.21z"/>
        <path fill="#353535" d="M263.767 282.229v43.979h-45.21v-43.979h45.21zm-9.411 26.82c0-2.2-1.01-3.7-4.24-5.261-2.18-1.13-2.55-1.64-2.55-2.39 0-.67.56-1.5 2.18-1.5 1.34 0 2.67.35 3.58.93.2.061.31-.04.31-.21v-2.81c0-.14-.05-.311-.21-.41-.68-.31-1.91-.58-3.68-.58-3.59 0-5.67 2.2-5.67 4.851 0 2.359 1.21 3.779 4.13 5.18 2.08 1.07 2.55 1.729 2.55 2.47 0 .92-.68 1.601-2.3 1.601-1.36 0-2.84-.37-4.13-1.211-.15-.109-.25-.05-.25.16v3.021c0 .16.02.27.17.33.88.51 2.42.88 4.21.88 3.391-.001 5.9-1.772 5.9-5.051zm-12.27-10.851c0-3.99-2.22-7.109-7.91-7.109-2.04 0-3.99.04-5.3.1-.17 0-.46.11-.46.25v22.07c0 .18.09.239.25.239h3.15c.18 0 .24-.079.24-.239v-7.891c.56 0 .82.04 1.6.04 4.651 0 8.43-2.239 8.43-7.46z"/>
        <path fill="#66ACFF" d="M250.116 303.788c3.23 1.561 4.24 3.061 4.24 5.261 0 3.279-2.51 5.05-5.9 5.05-1.79 0-3.33-.37-4.21-.88-.15-.061-.17-.17-.17-.33v-3.021c0-.21.1-.27.25-.16 1.29.841 2.77 1.211 4.13 1.211 1.62 0 2.3-.681 2.3-1.601 0-.74-.47-1.399-2.55-2.47-2.92-1.4-4.13-2.82-4.13-5.18 0-2.65 2.08-4.851 5.67-4.851 1.77 0 3 .271 3.68.58.16.1.21.271.21.41v2.81c0 .17-.11.271-.31.21-.91-.58-2.24-.93-3.58-.93-1.62 0-2.18.83-2.18 1.5 0 .751.371 1.261 2.55 2.391zM234.176 291.089c5.69 0 7.91 3.119 7.91 7.109 0 5.221-3.78 7.46-8.43 7.46-.78 0-1.04-.04-1.6-.04v7.891c0 .16-.06.239-.24.239h-3.15c-.16 0-.25-.06-.25-.239v-22.07c0-.14.29-.25.46-.25 1.311-.06 3.26-.1 5.3-.1zm4.23 7.189c0-2.609-1.62-3.92-4.36-3.92-.82 0-1.6.04-1.97.061v7.93c.47.04.84.04 1.67.04 2.4 0 4.66-.84 4.66-4.111z"/>
        <path fill="#353535" d="M234.046 294.358c2.74 0 4.36 1.311 4.36 3.92 0 3.271-2.26 4.11-4.66 4.11-.83 0-1.2 0-1.67-.04v-7.93c.37-.02 1.151-.06 1.97-.06z"/>
      </g>
    </g>
    <path fill="#333" d="M425.776 297.036l2.17 8.39h-4.33z"/>
    <path fill="#333" d="M434.756 313.426l-6.44-19h-4.71v1.07l-6.33 17.93h4.02l1.58-4h5.86l1.58 4h4.44zm4.85-15h-4v15h4v-15zm-.759-1.88c1.24 0 2.25-.99 2.25-2.22 0-1.221-1.01-2.21-2.25-2.21s-2.24.989-2.24 2.21c-.001 1.23.999 2.22 2.24 2.22zm11.759-12.12v42h-42v-42h42z"/>
    <path fill="#EF8B06" d="M438.847 292.116c1.24 0 2.25.989 2.25 2.21 0 1.229-1.01 2.22-2.25 2.22s-2.24-.99-2.24-2.22c-.001-1.221.999-2.21 2.24-2.21zM435.606 298.426h4v15h-4zM425.776 297.036l-2.16 8.39h4.33l-2.17-8.39zm-2.17-2.61h4.71l6.44 19h-4.44l-1.58-4h-5.86l-1.58 4h-4.02l6.33-17.93v-1.07z"/>
    <path fill="#EF8B06" d="M408.606 326.426h42v-42h-42v42zm45-45v48h-48v-48h48z"/>
    <g fill-rule="evenodd" clip-rule="evenodd" fill="#FF9D45">
      <path d="M426.48 233.262c.007-.035.014-.074.022-.113-.173-.103-.338-.227-.521-.307-1.568-.702-3.122-.572-4.682.062-2.226.903-4.526 1.075-6.88.618-2.639-.51-4.989-1.676-7.204-3.151-.136-.09-.289-.157-.434-.235-.004.185.044.291.112.383 2.708 3.753 6.125 6.629 10.438 8.375 1.939.783 3.956 1.32 6.063 1.183 1.963-.13 3.918-.386 5.872-.624 2.5-.301 4.926-.054 7.282.848.117.045.242.07.364.105-.054-.252-.161-.428-.296-.576-1.748-1.924-4.031-2.682-6.523-2.939-1.268-.129-2.553-.109-3.807-.309-.803-.126-1.617-.428-2.33-.825-.818-.457-.753-1.362.072-1.812.419-.227.901-.346 1.365-.475.354-.101.724-.14 1.087-.208zM426.94 208.105c-.042.037-.085.074-.127.113.063.119.107.254.191.359 1.854 2.287 4.163 3.971 6.868 5.111 1.799.759 3.679 1.194 5.623 1.389 1.896.188 3.789.225 5.654-.199 1.149-.262 2.271-.641 3.408-.953 3.477-.967 6.191.973 6.887 3.716.012.048.06.086.167.237.016-.275.047-.434.031-.587-.066-.557-.118-1.118-.229-1.667-.734-3.635-3.385-5.795-7.078-5.82-1.398-.01-2.738.277-4.055.701-2.307.74-4.633 1.306-7.09 1.18-3.602-.186-6.917-1.173-9.841-3.336-.126-.093-.271-.161-.409-.244zM438.235 232.299c.003.045.009.091.012.137.156.01.314.037.467.023 1.461-.146 2.931-.229 4.377-.465 2.528-.411 4.849-1.356 6.745-3.131.96-.9 1.848-1.881 2.723-2.868 1.013-1.143 2.232-1.688 3.761-1.479.593.084 1.184.193 1.912.314-.259-.22-.422-.387-.611-.513-1.103-.737-2.345-.995-3.645-1.126-3.071-.308-5.677.694-7.879 2.778-1.399 1.321-2.709 2.735-4.083 4.087-.96.945-2.062 1.688-3.369 2.088-.139.044-.274.102-.41.155zM431.096 223.922c-.01.037-.02.074-.029.11.043.038.081.087.132.111 1.102.528 2.251.937 3.472 1.022 3.754.262 7.305-.341 10.537-2.428.854-.549 1.818-.988 2.79-1.282 1.423-.433 2.893-.124 4.339.034.558.059 1.113.151 1.731.24-.059-.137-.065-.186-.095-.213-.09-.079-.18-.169-.286-.223-.851-.43-1.671-.944-2.563-1.259-2.957-1.032-5.888-.651-8.701.519-1.5.625-2.904 1.504-4.309 2.34-1.627.969-3.311 1.564-5.235 1.241-.588-.098-1.188-.142-1.783-.212z"/>
      <path d="M422.553 202.815c.141.181.214.296.308.388 3.196 3.199 6.864 5.518 11.437 6.17 1.918.275 3.779.104 5.586-.599.223-.089.431-.214.646-.323-.017-.043-.034-.086-.049-.129-.488.059-.978.121-1.466.177-1.843.206-3.523-.192-5.013-1.33-.928-.707-1.853-1.424-2.805-2.097-2.461-1.743-5.26-2.326-8.218-2.33-.115 0-.229.039-.426.073zM465.971 230.724c-.141-.038-.279-.093-.422-.107-.752-.077-1.404-.388-1.958-.882-.543-.482-1.091-.973-1.577-1.514-2.004-2.229-5.103-2.43-7.599-.939-.12.072-.227.166-.442.328.307.051.48.077.654.104.343.053.691.081 1.028.16 1.283.305 2.245 1.119 3.112 2.045 1.323 1.418 2.917 2.016 4.837 1.727.84-.126 1.649-.345 2.367-.922zM430.389 240.803c.058.119.063.156.084.169.037.024.08.043.124.052 2.198.441 3.916 1.688 5.355 3.323 1.141 1.299 2.551 2.077 4.195 2.479.419.102.863.104 1.296.152.009-.043.02-.088.029-.133-.046-.053-.082-.123-.141-.154-.945-.516-1.503-1.379-2.065-2.255-.646-1.003-1.427-1.894-2.496-2.474-1.983-1.08-4.154-1.102-6.381-1.159zM442.498 226.52c-.081.102-.149.215-.241.309-2.526 2.58-5.53 4.26-9.124 4.823-1.921.302-3.803.313-5.595-.604-1.443-.735-2.657-1.765-3.71-2.97-1.616-1.854-3.162-3.766-4.78-5.619-.748-.856-1.594-1.621-2.629-2.151-1.271-.649-2.574-.672-3.884-.196-1.089.4-1.639 1.242-1.776 2.38-.157 1.3.26 2.469.866 3.568 1.415 2.567 3.453 4.396 6.36 5.126.444.109.901.177 1.352.264.001.047.003.091.003.137-.359.045-.719.097-1.081.14-4.004.468-7.521-.845-10.715-3.097-3.539-2.496-5.486-6.033-6.306-10.241-.366-1.876-.356-3.772-.413-5.669-.076-2.563-.393-5.083-1.409-7.469-.867-2.038-2.193-3.634-4.34-4.402-.941-.336-1.919-.441-2.917-.318-.171.021-.345.021-.519.031-.015-.036-.032-.071-.048-.109.117-.096.228-.205.353-.294 2.317-1.66 4.918-2.683 7.675-3.313 3.741-.862 7.507-1.147 11.266-.148 2.89.77 5.349 2.318 7.538 4.339 2.274 2.097 4.186 4.519 6.189 6.858 1.72 2.009 3.495 3.961 5.653 5.525 2.326 1.688 4.894 2.719 7.766 2.961.438.035.876.067 1.315.104.022.002.042.037.091.08-.043.052-.077.125-.132.15-1.473.722-2.951 1.445-4.607 1.625-2.225.246-4.243-.321-6.018-1.688-.671-.518-1.294-1.1-1.938-1.653-.838-.721-1.778-1.227-2.902-1.272-1.497-.059-2.669.323-3.108 1.781-.248.828-.121 1.654.186 2.451 1.426 3.713 4.074 6.215 7.688 7.768 1.987.854 4.066 1.276 6.212 1.434 2.281.166 4.546.137 6.767-.494.284-.08.566-.172.85-.256.02.033.041.069.062.109zm-42.142-27.455c.29.817 1.697 1.341 2.662 1.084.721-.192 1.354-.911 1.346-1.618-1.333.178-2.658.354-4.008.534z"/>
      <path d="M426.48 233.262c-.363.068-.733.107-1.087.207-.464.129-.946.248-1.365.475-.826.449-.89 1.354-.072 1.812.713.397 1.527.699 2.33.825 1.254.199 2.539.18 3.807.309 2.493.258 4.776 1.016 6.523 2.939.135.148.243.324.296.576-.122-.035-.247-.061-.364-.105-2.356-.901-4.782-1.148-7.282-.848-1.954.238-3.909.494-5.872.624-2.107.138-4.123-.399-6.063-1.183-4.314-1.746-7.73-4.622-10.438-8.375-.068-.092-.116-.198-.112-.383.145.078.297.146.434.235 2.215 1.476 4.565 2.642 7.204 3.151 2.354.457 4.654.285 6.88-.618 1.56-.634 3.113-.764 4.682-.062.183.08.348.204.521.307-.008.04-.015.079-.022.114zM426.94 208.105c.138.082.282.15.409.244 2.924 2.163 6.24 3.15 9.841 3.336 2.457.126 4.783-.439 7.09-1.18 1.316-.424 2.657-.711 4.055-.701 3.693.025 6.344 2.186 7.078 5.82.11.549.162 1.11.229 1.667.017.153-.015.312-.031.587-.107-.151-.155-.189-.167-.237-.696-2.743-3.41-4.683-6.887-3.716-1.137.313-2.259.691-3.408.953-1.866.424-3.758.387-5.654.199-1.944-.194-3.824-.63-5.623-1.389-2.705-1.141-5.013-2.824-6.868-5.111-.084-.105-.128-.24-.191-.359.042-.038.086-.075.127-.113zM438.235 232.299c.136-.053.271-.111.41-.154 1.307-.4 2.408-1.143 3.369-2.088 1.374-1.352 2.684-2.766 4.083-4.087 2.202-2.084 4.808-3.086 7.879-2.778 1.3.131 2.542.389 3.645 1.126.189.126.352.293.611.513-.728-.121-1.318-.23-1.912-.314-1.528-.209-2.748.337-3.761 1.479-.875.987-1.763 1.968-2.723 2.868-1.896 1.774-4.217 2.72-6.745 3.131-1.446.235-2.916.318-4.377.465-.153.014-.311-.014-.467-.023-.003-.047-.009-.093-.012-.138zM431.096 223.922c.595.07 1.195.114 1.784.214 1.924.323 3.608-.272 5.235-1.241 1.405-.836 2.809-1.715 4.309-2.34 2.813-1.17 5.744-1.551 8.701-.519.892.314 1.713.829 2.563 1.259.106.054.195.144.286.223.029.027.036.076.095.213-.618-.089-1.173-.182-1.731-.24-1.446-.158-2.916-.467-4.339-.034-.972.294-1.936.733-2.79 1.282-3.232 2.087-6.783 2.689-10.537 2.428-1.221-.086-2.37-.494-3.472-1.022-.051-.024-.089-.073-.132-.111.008-.038.018-.075.028-.112z"/>
      <path d="M422.553 202.815c.196-.034.311-.073.426-.073 2.958.004 5.757.587 8.218 2.33.952.673 1.877 1.39 2.805 2.097 1.49 1.138 3.17 1.536 5.013 1.33.488-.056.978-.118 1.466-.177.015.043.032.086.049.129-.215.109-.423.234-.646.323-1.807.703-3.667.874-5.586.599-4.573-.652-8.241-2.971-11.437-6.17-.094-.092-.167-.207-.308-.388zM465.971 230.724c-.718.577-1.527.796-2.367.921-1.92.289-3.514-.309-4.837-1.727-.867-.926-1.829-1.74-3.112-2.045-.337-.079-.686-.107-1.028-.16-.174-.026-.347-.053-.654-.104.216-.162.323-.256.442-.328 2.497-1.49 5.595-1.289 7.599.939.485.541 1.033 1.031 1.577 1.514.555.494 1.207.805 1.958.882.143.015.281.07.422.108zM430.389 240.803c2.228.058 4.398.079 6.381 1.16 1.069.58 1.85 1.471 2.496 2.474.562.876 1.12 1.739 2.065 2.255.059.031.095.102.141.154-.009.045-.02.09-.029.133-.433-.049-.877-.051-1.296-.152-1.644-.402-3.054-1.181-4.195-2.479-1.439-1.636-3.158-2.882-5.355-3.323-.043-.009-.086-.027-.124-.052-.021-.014-.026-.051-.084-.17z"/>
    </g>
    <g fill="#66ACFF">
      <path d="M353.64 211.953c-.651-.225-1.307-.432-1.969-.621.11-.445.212-.895.305-1.344 1.49-7.232.516-13.059-2.812-14.979-3.188-1.838-8.406.08-13.675 4.665-.519.452-1.026.919-1.522 1.396-.333-.317-.67-.629-1.013-.936-5.522-4.9-11.058-6.968-14.38-5.045-3.187 1.846-4.132 7.322-2.789 14.18.133.678.284 1.354.451 2.024-.782.221-1.539.458-2.263.712-6.474 2.257-10.608 5.793-10.608 9.463 0 3.789 4.439 7.591 11.182 9.895.546.188 1.098.358 1.653.518-.18.721-.341 1.451-.48 2.183-1.279 6.737-.28 12.083 2.898 13.917 3.283 1.894 8.793-.053 14.157-4.743.425-.37.85-.763 1.277-1.177.537.52 1.088 1.022 1.653 1.509 5.196 4.474 10.33 6.279 13.504 4.44 3.28-1.898 4.346-7.645 2.961-14.635-.105-.533-.228-1.076-.366-1.635.387-.113.767-.232 1.138-.355 7.01-2.321 11.57-6.075 11.57-9.916-.001-3.682-4.268-7.245-10.872-9.516zm-16.437-10.308c4.515-3.929 8.735-5.479 10.657-4.369 2.047 1.18 2.844 5.941 1.558 12.185-.084.407-.176.813-.275 1.218-2.537-.587-5.292-1.022-8.176-1.293-1.679-2.393-3.421-4.567-5.168-6.451.456-.443.925-.872 1.404-1.29zm-15.785 22.959c.553 1.067 1.131 2.123 1.734 3.164.615 1.061 1.255 2.107 1.92 3.139-2.003-.223-3.892-.525-5.636-.906.541-1.741 1.206-3.556 1.982-5.397zm-.003-6.143c-.76-1.807-1.41-3.58-1.943-5.293 1.745-.39 3.606-.709 5.543-.951-.648 1.014-1.273 2.039-1.874 3.081-.6 1.04-1.175 2.095-1.726 3.163zm1.388 3.07c.806-1.676 1.673-3.318 2.602-4.93.928-1.609 1.917-3.184 2.965-4.72 1.819-.138 3.684-.208 5.568-.208 1.894 0 3.76.072 5.579.209 1.037 1.533 2.019 3.104 2.946 4.706.931 1.605 1.811 3.243 2.636 4.905-.817 1.68-1.693 3.331-2.628 4.95-.926 1.608-1.904 3.187-2.934 4.733-1.814.129-3.688.195-5.599.195-1.903 0-3.753-.059-5.536-.175-1.056-1.54-2.053-3.123-2.988-4.741-.933-1.605-1.803-3.248-2.611-4.924zm21.93 6.217c.616-1.067 1.207-2.148 1.773-3.24.817 1.863 1.506 3.666 2.053 5.38-1.772.405-3.687.731-5.703.974.646-1.027 1.272-2.063 1.877-3.114zm1.749-9.286c-.565-1.073-1.152-2.136-1.759-3.183-.598-1.033-1.217-2.052-1.86-3.058 1.951.247 3.819.574 5.576.976-.526 1.687-1.183 3.453-1.957 5.265zm-12.515-13.659c1.205 1.305 2.412 2.762 3.598 4.343-2.408-.112-4.819-.112-7.226 0 1.187-1.567 2.404-3.023 3.628-4.343zm-14.086-7.451c2.046-1.185 6.569.502 11.337 4.736.305.271.61.556.917.849-1.777 1.907-3.533 4.079-5.209 6.444-2.876.268-5.628.695-8.159 1.27-.156-.625-.296-1.254-.42-1.884-1.15-5.874-.387-10.304 1.534-11.415zm-2.981 32.013c-.508-.146-1.011-.305-1.51-.475-2.982-1.019-5.444-2.342-7.132-3.787-1.517-1.299-2.282-2.588-2.282-3.635 0-2.227 3.32-5.066 8.855-6.999.695-.239 1.397-.46 2.105-.66.765 2.489 1.77 5.092 2.98 7.722-1.226 2.673-2.244 5.317-3.016 7.834zm14.155 11.906c-2.372 2.073-4.75 3.545-6.845 4.285-1.883.664-3.382.684-4.289.162-1.929-1.111-2.731-5.407-1.636-11.166.129-.683.278-1.359.446-2.031 2.505.555 5.277.952 8.24 1.191 1.692 2.381 3.464 4.57 5.249 6.486-.379.366-.768.727-1.165 1.073zm2.984-2.952c-1.238-1.337-2.473-2.813-3.679-4.402 1.17.046 2.364.069 3.577.069 1.246 0 2.479-.029 3.69-.084-1.189 1.619-2.392 3.1-3.588 4.417zm15.861 3.634c-.363 1.963-1.096 3.271-2.001 3.796-1.927 1.116-6.049-.333-10.492-4.159-.51-.438-1.024-.907-1.538-1.398 1.722-1.889 3.444-4.078 5.125-6.511 2.957-.263 5.749-.691 8.283-1.276.124.504.234.996.33 1.479.613 3.091.699 5.885.293 8.069zm2.219-13.046c-.334.112-.678.216-1.026.32-.775-2.45-1.82-5.056-3.098-7.745 1.22-2.629 2.225-5.201 2.976-7.634.626.182 1.234.371 1.818.573 5.659 1.947 9.11 4.828 9.11 7.047 0 2.365-3.728 5.433-9.78 7.439z"/>
      <circle cx="333.937" cy="221.521" r="4.774"/>
    </g>
    <path fill="#DDDDE8" d="M185.606 155.426h309v22h-309z"/>
    <circle fill="#9F9FBC" cx="192.172" cy="109.932" r="2.922"/>
    <circle fill="#9F9FBC" cx="200.791" cy="109.932" r="2.922"/>
    <circle fill="#9F9FBC" cx="209.409" cy="109.932" r="2.922"/>
    <path fill="#F4F4F4" d="M218.606 160.426h246v10h-246zM468.606 160.426h22v10h-22z"/>
    <circle fill="none" stroke="#84BC84" stroke-miterlimit="10" cx="46.345" cy="185.662" r="4.28"/>
    <circle fill="none" stroke="#84BC84" stroke-miterlimit="10" cx="176.852" cy="52.078" r="4.28"/>
    <circle fill="none" stroke="#84BC84" stroke-miterlimit="10" cx="387.386" cy="123.699" r="4.28"/>
    <circle fill="none" stroke="#84BC84" stroke-miterlimit="10" cx="563.447" cy="252.975" r="4.28"/>
    <circle fill="none" stroke="#84BC84" stroke-miterlimit="10" cx="614.541" cy="328.077" r="4.281"/>
    <circle fill="none" stroke="#84BC84" stroke-miterlimit="10" cx="277.194" cy="52.078" r="2.136"/>
    <g fill="#88D388">
      <circle cx="636.087" cy="280.676" r="2.136"/>
      <circle cx="535.745" cy="117.543" r="2.136"/>
      <circle cx="474.185" cy="55.983" r="2.136"/>
      <circle cx="200.86" cy="64.602" r="2.136"/>
      <circle cx="104.212" cy="192.646" r="2.137"/>
    </g>
    <circle fill="#68BA68" cx="144.841" cy="204.131" r="4.167"/>
    <circle fill="#68BA68" cx="134.991" cy="257.688" r="4.167"/>
    <circle fill="#68BA68" cx="520.354" cy="210.498" r="4.167"/>
    <circle fill="#68BA68" cx="575.143" cy="196.955" r="4.166"/>
    <g opacity=".4" fill="none" stroke="#84BC84" stroke-miterlimit="10">
      <path d="M88.063 184.311v21.19M79.295 205.501h31.911"/>
    </g>
    <g opacity=".4" fill="none" stroke="#E4E4ED" stroke-width=".6623" stroke-miterlimit="10">
      <path d="M229.548 48.591v15.694M223.055 64.285h23.634"/>
    </g>
    <g opacity=".4" fill="none" stroke="#84BC84" stroke-miterlimit="10">
      <path d="M476.603 85.895v17.023M464.119 102.918h25.637"/>
    </g>
    <g opacity=".4" fill="none" stroke="#84BC84" stroke-miterlimit="10">
      <path d="M570.634 323.898v-21.191M579.402 302.707h-31.91"/>
    </g>
    <g>
      <radialGradient id="SVGID_1_" cx="236.0479" cy="245.5313" r="45.1341" gradientUnits="userSpaceOnUse">
        <stop offset="0" stop-color="#D5D2D8" stop-opacity=".8"/>
        <stop offset=".4236" stop-color="#684F77" stop-opacity=".7"/>
        <stop offset=".8046" stop-color="#B1A5B7" stop-opacity=".4"/>
        <stop offset="1" stop-color="#684F77" stop-opacity=".7"/>
      </radialGradient>
      <path fill="url(#SVGID_1_)" d="M254.558 220.84l-.003-.004c-.506-.682-1.06-1.326-1.651-1.932-2.487-2.933-7.009-8.361-8.032-10.264 0 0-5.295-6.672-3.851-16.467-12.886 5.456-25.848 29.074-19.259 46.207.401 1.118.905 2.185 1.5 3.191.005.011.01.021.016.031h.001c3.274 5.521 9.292 9.228 16.178 9.228 10.382 0 18.797-8.416 18.797-18.798 0-4.193-1.375-8.063-3.696-11.192z"/>
      <radialGradient id="SVGID_2_" cx="236.0483" cy="245.5342" r="45.1362" gradientUnits="userSpaceOnUse">
        <stop offset=".0296" stop-color="#FFF"/>
        <stop offset=".4236" stop-color="#B1A5B7"/>
        <stop offset=".8046" stop-color="#B1A5B7" stop-opacity=".2"/>
        <stop offset="1" stop-color="#B1A5B7"/>
      </radialGradient>
      <path fill="url(#SVGID_2_)" d="M222.219 215.591c-1.652 4.868-2.487 9.995-2.146 14.925-.176-3.046-.027-8.436 2.146-14.925z"/>
      <radialGradient id="SVGID_3_" cx="236.0283" cy="245.4443" r="45.0211" gradientUnits="userSpaceOnUse">
        <stop offset=".0296" stop-color="#FFF"/>
        <stop offset=".4236" stop-color="#B1A5B7"/>
        <stop offset=".8046" stop-color="#B1A5B7" stop-opacity=".2"/>
        <stop offset="1" stop-color="#B1A5B7"/>
      </radialGradient>
      <path fill="url(#SVGID_3_)" d="M223.326 212.641c.022-.053.044-.107.066-.16-.021.052-.044.107-.066.16z"/>
      <radialGradient id="SVGID_4_" cx="236.0337" cy="245.3447" r="44.8985" gradientUnits="userSpaceOnUse">
        <stop offset=".0296" stop-color="#FFF"/>
        <stop offset=".4236" stop-color="#B1A5B7"/>
        <stop offset=".8046" stop-color="#B1A5B7" stop-opacity=".2"/>
        <stop offset="1" stop-color="#B1A5B7"/>
      </radialGradient>
      <path fill="url(#SVGID_4_)" d="M222.674 214.297c.027-.072.057-.145.083-.217-.027.072-.056.145-.083.217z"/>
      <path fill="#181022" d="M222.757 214.08c.183-.483.372-.963.569-1.439-.2.484-.391.964-.569 1.439zM222.219 215.591c.147-.435.295-.866.455-1.294-.16.435-.312.867-.455 1.294zM224.706 209.609c-.486.973-.918 1.929-1.313 2.871.406-.969.847-1.92 1.311-2.855 0-.003.002-.016.002-.016z"/>
      <path opacity=".6" fill="#684F77" d="M242.206 203.56c-.668-1.815-1.237-4.059-1.391-6.636-1.288.67-7.797 4.322-8.37 9.912 0 0-1.114 10.828 1.751 21.327-.001 0 3.448-22.088 8.01-24.603z"/>
      <linearGradient id="SVGID_5_" gradientUnits="userSpaceOnUse" x1="220.6826" y1="212.8311" x2="241.1349" y2="230.4199">
        <stop offset=".0296" stop-color="#B1A5B7"/>
        <stop offset="1" stop-color="#684F77" stop-opacity=".8"/>
      </linearGradient>
      <path fill="url(#SVGID_5_)" d="M257.484 226.764c-.274-.666-.615-1.329-1-1.983-3.216-5.249-9.488-9.829-9.488-9.829 14.004 14.322-6.047 17.082-6.047 17.082-8.03.225-12.171-3.706-14.283-8.333-2.874-6.296-1.985-13.887-1.961-14.075-.464.936-.905 1.887-1.311 2.855-.022.053-.044.107-.066.16-.197.477-.386.956-.569 1.439-.027.072-.057.145-.083.217-.16.428-.308.859-.455 1.294-2.173 6.489-2.321 11.879-2.146 14.925.063.902.16 1.802.306 2.69 2.123 1.53 4.226 2.733 6.286 3.667 1.149.521 2.284.959 3.402 1.322 6.238 1.547 11.521 1.486 15.526.903 6.28-1.23 10.314-3.938 10.314-3.938.481-.402.88-.821 1.208-1.255.632-.912.978-1.879 1.088-2.874-.08-1.472-.323-2.902-.721-4.267z"/>
      <path fill="#181022" d="M257.417 226.518c-.267-.583-.583-1.165-.934-1.737.385.654.727 1.317 1 1.983-.023-.08-.041-.164-.066-.246z"/>
      <linearGradient id="SVGID_6_" gradientUnits="userSpaceOnUse" x1="257.7104" y1="221.9014" x2="257.1735" y2="198.9645">
        <stop offset=".0296" stop-color="#684F77" stop-opacity=".7"/>
        <stop offset="1" stop-color="#2A1439"/>
      </linearGradient>
      <path fill="url(#SVGID_6_)" d="M257.484 226.764c.398 1.365.642 2.795.719 4.269.155-1.39-.13-2.834-.719-4.269z"/>
      <radialGradient id="SVGID_7_" cx="234.9009" cy="233.0156" r="18.4784" gradientUnits="userSpaceOnUse">
        <stop offset=".0296" stop-color="#FFF"/>
        <stop offset="1" stop-color="#684F77" stop-opacity=".6"/>
      </radialGradient>
      <path opacity=".7" fill="url(#SVGID_7_)" d="M244.871 208.641s-1.334-1.682-2.48-4.594c-1.006 1.188-4.16 5.738-2.998 15.02 0 0 2.864 9.069-4.456 15.596 0 0-3.978 2.863-3.978 8.75 0 0-.159 6.025 6.207 6.844 0 0 10.344 0 11.935-11.457 0 0 .795-9.434-.795-12.912 0 0-1.167-3.348-.91-13.695-1.161-1.486-2.119-2.797-2.525-3.552z"/>
      <linearGradient id="SVGID_8_" gradientUnits="userSpaceOnUse" x1="240.6035" y1="222.3604" x2="240.069" y2="199.529">
        <stop offset=".0296" stop-color="#684F77" stop-opacity=".5"/>
        <stop offset="1" stop-color="#2A1439" stop-opacity=".8"/>
      </linearGradient>
      <path fill="url(#SVGID_8_)" d="M253.742 236.365c3.309-1.516 4.498-3.709 4.418-6.129-.054-.569-.137-1.13-.242-1.683-1.241-5.042-6.875-10.597-10.012-12.979-9.554-7.24-10.595-18.065-10.688-21.27-1.834 1.27-3.628 2.867-5.326 4.72-9.929 13.956-8.33 36.249-8.33 36.249 12.895 6.885 24.144 3.868 30.18 1.092z"/>
      <path opacity=".4" fill="#432458" d="M241.746 202.174s-.104.029-.271.129c-.169.098-.396.271-.655.527-.261.252-.532.6-.825 1.01-.269.429-.568.91-.844 1.471-.151.271-.29.563-.416.875-.132.31-.268.628-.408.955-.229.68-.518 1.375-.737 2.123-.228.748-.479 1.512-.673 2.311-.205.794-.437 1.595-.599 2.413-.176.817-.386 1.623-.533 2.433-.157.807-.311 1.602-.459 2.371-.149.768-.261 1.518-.391 2.226-.122.708-.237 1.379-.344 1.997-.172 1.242-.355 2.275-.465 3-.123.723-.193 1.138-.193 1.138s.028-.419.075-1.15c.061-.731.122-1.778.242-3.032.075-.627.157-1.303.244-2.02.094-.715.162-1.473.301-2.249.133-.776.27-1.579.41-2.396.142-.814.345-1.632.518-2.455.17-.824.412-1.634.626-2.435.199-.804.487-1.571.733-2.323.234-.756.572-1.449.836-2.123.16-.327.315-.646.465-.951.144-.311.3-.602.468-.872.167-.271.303-.544.476-.778.171-.233.334-.455.487-.664.336-.395.64-.727.929-.962.282-.241.539-.386.719-.469.18-.084.284-.1.284-.1z"/>
      <path opacity=".1" fill="#432458" d="M249.1 238.799s.125-1.492.177-3.506l-.009-3.433s-.133 13.503-9.442 17.167c0 0-5.514 2.345-7.594-2.713 0 0-1.994-5.454 1.695-10.711-.004.003-.008.008-.012.014l-.848 1.049c-1.032 1.451-2.107 3.687-2.107 6.746 0 0-.159 6.025 6.207 6.844-.002 0 10.342 0 11.933-11.457z"/>
      <path fill="#FFF" d="M232.72 247.272s2.786 1.827 6.023 2.088c0 0-3.881 1.189-6.023-2.088z"/>
      <linearGradient id="SVGID_9_" gradientUnits="userSpaceOnUse" x1="226.4731" y1="213.7998" x2="247.7425" y2="242.8404">
        <stop offset="0" stop-color="#2A1439"/>
        <stop offset="1" stop-color="#181022" stop-opacity=".1"/>
      </linearGradient>
      <path opacity=".6" fill="url(#SVGID_9_)" d="M227.579 207.189c.159 9.389 16.675 36.406 27.973 34.414 0 0-1.75 3.583-4.933 5.334 0 0-20.706-7.462-26.042-28.563.657-5.733 3.002-11.185 3.002-11.185z"/>
    </g>
  </g>
</svg>
