<svg id="Layer_3" xmlns="http://www.w3.org/2000/svg" width="492.457" height="930.947" viewBox="0 0 492.457 930.947">
  <g id="thirdRocket">
    <path fill="#6B002C" d="M133.082 635.106l-55.309 61.459-18.671 133.361H49.79L0 666.918l98.598-172.59z"/>
    <path fill="#EF5C22" d="M133.082 635.106l-55.309 61.459-18.671 133.361H49.79L0 666.918l98.598-172.59z"/>
    <path fill="#FFAD97" d="M101.259 505.185l-2.661-10.857L0 666.918l49.79 163.008h8.86L8.86 666.918z"/>
    <path fill="#EF5C22" d="M359.374 635.106l55.311 61.459 18.669 133.361h9.312l49.791-163.008-98.601-172.59z"/>
    <path fill="#C63D0E" d="M427.65 701.549l-57.212-65.188 29.941-130.611-6.523-11.422-34.482 140.778 55.311 61.459 18.669 133.361h9.312l2.494-8.169z"/>
    <path fill="#FFAD97" d="M393.856 494.328l-3.583 14.631 96.016 168.065-46.705 152.902h3.082l49.791-163.008z"/>
    <path opacity=".3" d="M98.598 494.328l-55.47 97.102c-1.753 22.529-2.692 46.226-2.692 70.699 0 63.48 6.294 121.813 16.809 167.797h1.857l18.672-133.36 55.309-61.459-34.485-140.779z"/>
    <g>
      <path fill="#E5E5E5" d="M134.973 646.665v258.639s27.998 23.267 81.384 25.644V655.093c-.001 0-59.176-3.444-81.384-8.428z"/>
      <path fill="#CECECE" d="M355.919 646.665v238.006s-24.411 13.607-73.954 23.705V654.199s36.08.419 73.954-7.534z"/>
      <path fill="#A0A0A0" d="M297.191 653.47v217.207s-24.579 21.268-52.705 20.871V655.096s25.26 3.034 52.705-1.626z"/>
      <path fill="#CECECE" d="M188.469 653.117s43.931 4.108 56.018 1.979v243.606s-38.221 9.104-56.11 5.529l.092-251.114z"/>
    </g>
    <path fill="none" stroke="#3F3F3F" stroke-miterlimit="10" d="M83.982 515.918c0 1.334.649 2.643 1.896 3.922-.393-2.122-.781-4.246-1.15-6.376-.488.808-.746 1.626-.746 2.454zM406.119 513.832c-.33 1.881-.673 3.758-1.019 5.632 1.019-1.159 1.56-2.341 1.56-3.546 0-.703-.188-1.398-.541-2.086z"/>
    <path fill="#878787" d="M245.32 541.432c-80.673 0-147.516-9.365-159.442-21.592 8.456 45.506 22.31 89.117 40.888 130.133 0 0 57.324 17.926 118.635 17.926s118.743-17.926 118.743-17.926c18.629-41.129 32.506-84.866 40.957-130.509-10.92 12.412-78.288 21.968-159.781 21.968z"/>
    <path fill="#999" d="M245.455 541.432v126.467c61.289-.015 118.688-17.926 118.688-17.926 18.629-41.129 32.506-84.866 40.957-130.509-10.912 12.405-78.215 21.957-159.645 21.968z"/>
    <path fill="#606060" d="M111.256 530.113c-12.85-3.027-21.713-6.515-25.378-10.273 8.456 45.506 22.31 89.117 40.888 130.133 0 0 10.36 3.236 26.979 6.961-17.748-40.538-32.025-82.936-42.489-126.821z"/>
    <path fill="#D1D1D1" d="M386.2 528.807c-10.778 43.891-25.139 86.371-42.771 127.109 13.124-3.112 21.068-5.591 21.068-5.591 18.628-41.128 32.504-84.864 40.955-130.506-2.841 3.226-9.514 6.264-19.252 8.988z"/>
    <path fill="#020202" d="M158.344 121.646l-3.602 14.083s123.772 24.277 181.821-.604l-2.167-13.479H158.344z"/>
    <path fill="#62B76E" d="M406.119 513.832c-.33 1.881-.673 3.758-1.019 5.632-10.92 12.412-78.288 21.968-159.78 21.968-80.673 0-147.516-9.365-159.442-21.592-.393-2.122-.781-4.246-1.15-6.376-5.562-31.95-8.467-64.813-8.467-98.353 0-102.848 27.253-199.32 74.917-282.614 2.535 3.573 43.717 6.413 94.143 6.413 51.778 0 93.789-2.994 94.243-6.701 47.769 83.359 75.083 179.936 75.083 282.902-.001 33.667-2.924 66.654-8.528 98.721z"/>
    <path fill="#4B9652" d="M100.488 423.588c0-103.515 24.917-201.205 69.061-287.421-10.707-1.034-17.396-2.297-18.371-3.67-47.664 83.294-74.917 179.767-74.917 282.614 0 33.539 2.905 66.402 8.467 98.353.369 2.13.758 4.254 1.15 6.376 3.487 3.576 11.671 6.903 23.517 9.824-5.834-34.49-8.907-69.924-8.907-106.076z"/>
    <g>
      <path opacity=".3" d="M239.054 464.146l-36.686 76.369c12.383.541 25.36.85 38.746.905l-2.06-77.274z"/>
      <path opacity=".3" d="M241.114 541.421c-13.386-.056-26.363-.364-38.746-.905l-32.819 68.324 7.966 52.808c19.517 3.371 42.915 6.177 66.972 6.245l-3.373-126.472z"/>
    </g>
    <path fill="#73C67B" d="M245.651 138.91v402.521c81.343-.025 148.544-9.57 159.449-21.968.346-1.874.688-3.751 1.019-5.632 5.604-32.067 8.527-65.054 8.527-98.721 0-102.967-27.314-199.543-75.083-282.902-.454 3.699-42.287 6.688-93.912 6.702z"/>
    <path fill="#ACE5B0" d="M339.563 132.209c-.174 1.438-6.629 2.768-17.461 3.857 44.043 86.49 68.891 184.395 68.891 288.108 0 35.853-3.007 70.997-8.71 105.229 11.683-2.961 19.641-6.329 22.817-9.939.346-1.874.688-3.751 1.019-5.632 5.604-32.067 8.527-65.054 8.527-98.721 0-102.966-27.314-199.543-75.083-282.902z"/>
    <path fill="#EF5C22" d="M339.178 121.646c.128.221.588.718.717.945-.453 3.707-42.463 6.698-94.243 6.698-50.428 0-91.606-2.838-94.141-6.414.235-.409.47-.821.704-1.229l-.33-.27C177.563 76.765 209.098 35.951 245.455 0c36.428 36.021 68.017 76.928 93.723 121.646M251.855 464.146h-12.801l-10.767 163.03 9.736 203.489h13.461l11.14-203.489z"/>
    <g>
      <circle fill="#3F3F3F" cx="245.455" cy="322.866" r="135.664"/>
      <circle fill="#E6FFFF" cx="245.455" cy="322.866" r="125.191"/>
    </g>
    <path fill="#F97A4E" d="M245.651 129.29c51.78 0 93.79-2.991 94.243-6.698-.129-.228-.589-.725-.717-.945C313.472 76.928 281.883 36.021 245.455 0v129.29h.196z"/>
    <path fill="#FFAD97" d="M339.895 122.592c-.129-.228-.589-.725-.717-.945C313.472 76.928 281.883 36.021 245.455 0c0 0 55.72 66.242 79.996 126.126 9.004-1.025 14.283-2.235 14.444-3.534z"/>
    <path fill="#C63D0E" d="M187.753 127.864c11.493-63.104 42.108-108.381 54.434-124.58-34.975 35.152-65.399 74.827-90.302 118.093l.33.27c-.234.408-.469.82-.704 1.229 1.437 2.026 15.311 3.817 36.242 4.988z"/>
    <path fill="#FFAD97" d="M251.484 830.665l11.14-203.489-10.769-163.03h-6.4v366.519z"/>
    <ellipse fill="#606060" cx="383.956" cy="546.816" rx="9.14" ry="10.95"/>
    <path fill="#606060" d="M343.932 554.213c0 6.049-4.093 10.947-9.14 10.947-5.048 0-9.141-4.898-9.141-10.947 0-6.047 4.093-10.947 9.141-10.947 5.047 0 9.14 4.9 9.14 10.947z"/>
    <ellipse fill="#606060" cx="281.964" cy="560.569" rx="9.14" ry="10.948"/>
    <ellipse fill="#4C4C4C" cx="207.017" cy="560.569" rx="9.141" ry="10.948"/>
    <path fill="#606060" d="M169.311 554.213c0 6.049-4.093 10.947-9.139 10.947-5.049 0-9.141-4.898-9.141-10.947 0-6.047 4.092-10.947 9.141-10.947 5.046 0 9.139 4.9 9.139 10.947zM124.761 549.623c0 6.044-4.089 10.946-9.138 10.946-5.05 0-9.14-4.902-9.14-10.946 0-6.049 4.09-10.95 9.14-10.95 5.049 0 9.138 4.901 9.138 10.95z"/>
  </g>
</svg>
