<svg id="Layer_3" xmlns="http://www.w3.org/2000/svg" width="145.51" height="215.059" viewBox="0 0 145.51 215.059">
  <g id="thirdBaloon">
    <path fill="#62B76E" d="M143.688 56.545c2.638 11.543 2.406 23.642-.662 34.979l-.033.112-24.438 74.346-.032.008-3.587 11.953-10.977 2.508-14.179 3.239-9.941 2.271-8.119-9.706-54.059-55.916C9.824 111.162 4.507 100.619 1.854 89-2.475 70.052.836 50.557 11.169 34.096 21.502 17.63 37.624 6.181 56.568 1.854c18.943-4.327 38.438-1.021 54.89 9.302 16.454 10.328 27.901 26.447 32.23 45.389zm-4.956 33.74c2.869-10.624 3.074-21.945.604-32.762C130.952 20.83 94.27-2.19 57.561 6.196S-2.191 51.271 6.198 87.997c2.488 10.888 7.463 20.766 14.801 29.376l52.504 54.286 13.373-3.056c.196-.044.39-.187.609-.236.219-.05.448-.005.651-.051l11.771-2.689c.197-.045.39-.188.609-.237s.449-.005.652-.051l13.932-3.184 23.632-71.87zm-28.261 87.281l3.1-10.446-9.798 2.239 2.357 10.318c.008.033-.043.114-.043.114l4.381-1.001c-.148-.542-.12-.808.003-1.224zm-8.727 3.115l-2.357-10.319-8.773 2.004 2.358 10.32c.007.031.082.084.082.084l8.702-1.987c-.006-.001-.004-.07-.012-.102zm-17.528 4.108l4.506-1.03c-.005.002-.129-.04-.138-.071l-2.357-10.32-9.364 2.14 6.875 8.249c.26.308.374.478.478 1.032z"/>
    <path fill="#62B76E" d="M139.336 57.523c2.471 10.816 2.266 22.138-.604 32.762l-23.631 71.87-13.932 3.184c-.203.046-.433.001-.652.051s-.412.192-.609.237l-11.771 2.689c-.203.046-.433.001-.651.051-.22.05-.413.192-.609.236l-13.373 3.056L21 117.373c-7.338-8.61-12.313-18.488-14.801-29.376-8.39-36.726 14.653-73.414 51.362-81.801s73.391 14.634 81.775 51.327z"/>
    <path fill="#73C97B" d="M62.524 5.253c25.114 7.988 45.497 28.659 51.778 56.149 2.783 12.186 2.551 24.938-.681 36.905l-22.816 69.398 9.103-2.079c.197-.045.39-.188.609-.237s.449-.005.652-.051l13.932-3.184 23.631-71.87c2.869-10.624 3.074-21.945.604-32.762C131.33 22.485 97.521-.084 62.524 5.253z"/>
    <path fill="#539959" d="M52.68 7.503C33.525 25.604 24.141 53.075 30.421 80.566c2.784 12.186 8.53 23.57 16.639 32.949l50.689 52.605-9.103 2.078c-.197.046-.434.001-.651.051-.22.052-.407.191-.61.238l-13.932 3.183-52.497-54.479c-7.197-8.324-12.298-18.433-14.77-29.25-8.004-35.037 12.652-70.05 46.494-80.438z"/>
    <path fill="#AA8144" d="M120.943 183.431l3.699 16.19c.478 2.095-.061 4.186-1.288 5.753 1.175-1.573 1.658-3.649 1.184-5.729l-3.699-16.19c-.674-2.951-3.11-5.03-5.965-5.302l.062-.21.049-.011-.061.209c2.859.271 5.346 2.339 6.019 5.29z"/>
    <path fill="#AA8144" d="M120.839 183.455l3.699 16.19c.475 2.079-.009 4.155-1.184 5.729-.054.075-.113.14-.171.212-.923 1.088-2.19 1.897-3.689 2.239l-8.821 2.015-6.714-29.389 10.977-2.508-.062.21c2.855.272 5.291 2.351 5.965 5.302z"/>
    <path fill="#62B76E" d="M119.494 207.825c1.499-.342 2.767-1.151 3.689-2.239-.898 1.116-2.163 1.948-3.676 2.293l-30.678 7.009c-1.727.396-3.442.083-4.859-.742 1.427.794 3.137 1.078 4.847.688l7.677-1.754 14.179-3.239 8.821-2.016z"/>
    <path fill="#997336" d="M96.498 213.08l-6.7135-29.3895 14.179-3.239 6.7135 29.3894z"/>
    <path fill="#725327" d="M89.78 183.69l6.714 29.389-7.677 1.754c-1.71.391-3.42.106-4.847-.688-.093-.053-.187-.106-.282-.171-1.473-.944-2.594-2.465-3.015-4.309l-3.699-16.19c-.667-2.923.613-5.829 3.022-7.325l-.158-.189 9.942-2.271z"/>
    <path fill="#725327" d="M79.839 185.961l.158.189c-2.409 1.496-3.689 4.402-3.022 7.325l3.699 16.19c.421 1.844 1.542 3.364 3.015 4.309-1.498-.928-2.643-2.432-3.068-4.295l-3.699-16.191c-.669-2.922.641-5.835 3.05-7.332l-.159-.188.026-.007z"/>
  </g>
</svg>
